<?xml version="1.0" encoding="UTF-8" standalone="no"?>
<svg
   version="1.1"
   width="112.933mm"
   height="126.933mm"
   viewBox="0 0 686.1753 771.2386"
   id="svg351"
   sodipodi:docname="cobra_final.svg"
   inkscape:version="1.4.2 (f4327f4, 2025-05-13)"
   xmlns:inkscape="http://www.inkscape.org/namespaces/inkscape"
   xmlns:sodipodi="http://sodipodi.sourceforge.net/DTD/sodipodi-0.dtd"
   xmlns="http://www.w3.org/2000/svg"
   xmlns:svg="http://www.w3.org/2000/svg">
  <defs
     id="defs351" />
  <sodipodi:namedview
     id="namedview351"
     pagecolor="#ffffff"
     bordercolor="#000000"
     borderopacity="0.25"
     inkscape:showpageshadow="2"
     inkscape:pageopacity="0.0"
     inkscape:pagecheckerboard="0"
     inkscape:deskcolor="#d1d1d1"
     inkscape:document-units="mm"
     showgrid="false"
     inkscape:zoom="0.83899976"
     inkscape:cx="371.27543"
     inkscape:cy="502.38393"
     inkscape:window-width="2560"
     inkscape:window-height="1417"
     inkscape:window-x="-8"
     inkscape:window-y="-8"
     inkscape:window-maximized="1"
     inkscape:current-layer="svg351" />
  <g
     fill="none"
     stroke="#ff0000"
     stroke-width="0.1mm"
     stroke-linejoin="round"
     stroke-linecap="round"
     id="g351"
     style="stroke-width:0.755906;stroke-dasharray:none"
     transform="matrix(0.73703128,0,0,0.81561165,-46.524041,-31.032844)">
    <path
       d="m 505,61 c -16.46897,2.339216 -33.8893,2.38164 -49,8 -17.97324,5.397942 -34.96646,13.161863 -54,16 -26.78341,7.69447 -53.51304,15.51876 -75,36 -23.07925,19.17448 -37.71551,44.30737 -45,71 -6.80756,22.76445 -7.6252,50.4076 -4,75 4.59624,28.2955 14.46766,54.40595 28,79 19.67958,33.87046 44.50125,65.61099 75,95 25.80513,22.45905 52.5865,45.39669 75,72 9.35443,11.57705 18.15069,23.3853 25,36 -6.4341,-2.86826 -10.69686,-15.17709 -18,-21 -10.4002,-13.9343 -24.03009,-27.75286 -41,-30 -17.46359,-5.43308 -35.09251,-10.46701 -55,-10 -18.18348,-2.82058 -37.53066,0.18625 -56,0 -16.77485,2.40549 -33.93448,3.88204 -50,8 -28.74805,6.77983 -55.98062,17.21837 -81,33 -29.17689,17.64258 -55.63085,46.88706 -69,77 -10.71736,21.04601 -17.251501,43.82476 -18,69 0.267834,29.0647 7.59927,55.20355 23,78 6.88399,10.95032 16.52416,21.39717 27,30 -23.8905,23.09848 -39.26362,49.72498 -41,82 -0.16071,24.04539 12.21603,44.16941 32,59 21.45185,13.28986 45.70766,19.81034 73,19 14.89583,0.77215 31.92279,-1.88892 47,-4 20.81731,-3.49825 40.57465,-9.55548 61,-14 21.7849,-3.2751 42.90715,2.40609 64,4 17.63873,3.87219 35.92254,6.187 54,9 18.15966,2.0136 34.33893,3.16506 53,3 12.24654,-1.47804 27.89108,-2.37885 41,-5 23.72242,-5.11784 46.62203,-12.22216 68,-23 11.52559,-3.73111 20.03339,-14.74783 33,-15 18.55328,3.74514 37.72945,5.98649 57,8 17.73168,1.64764 33.99126,2.40279 53,2 11.40528,0.55 28.51288,-0.17251 42,-1 22.05303,-2.92916 43.89332,-6.37192 64,-14 29.45923,-10.1575 57.21029,-27.63266 79,-54 15.29065,-21.5324 26.76534,-44.64542 28,-72 2.90201,-19.22855 -0.0652,-39.64062 -5,-57 -8.1126,-28.23231 -26.05559,-53.69321 -51,-74 -25.1787,-19.20173 -53.11013,-31.75781 -82,-42 -24.1335,-9.48245 -49.11787,-16.91069 -73,-27 -12.05208,-6.10724 -29.48372,-11.88429 -34,-27 3.91969,-13.09107 19.96397,-14.10065 31,-17 20.72196,-3.52774 43.0546,-1.60772 64,0 18.88977,3.79471 37.96818,7.134 56,13 25.18463,8.53058 48.92571,20.5462 70,39 -4.5925,-22.39022 -27.47706,-36.46763 -45,-49 -22.83863,-12.47045 -46.64919,-22.59447 -72,-29 -20.26585,-5.24379 -41.44255,-8.28862 -64,-8 -14.87241,1.83661 -30.16091,2.66872 -44,7 -17.57246,5.20369 -37.36202,11.69278 -48,29 -1.43266,9.59127 10.77994,16.96627 14,26 10.75176,16.46966 20.02581,33.5514 26,52 -7.00775,2.01907 -8.13336,-12.41347 -12,-18 -14.61409,-29.06916 -31.90229,-57.03066 -54,-83 -10.53135,-14.33219 -22.2806,-28.15991 -34,-42 6.15804,-5.77609 -0.44576,-15.24906 -8,-12 -15.23242,-22.88985 -25.79576,-47.7137 -28,-76 -2.87937,-23.26304 -0.0859,-47.66975 5,-69 3.77442,-13.03625 6.70816,-26.42072 14,-38 12.43439,17.64328 20.92784,38.22553 38,53 14.70343,10.18997 42.52743,10.82118 50,-9 5.03641,-9.01657 13.08108,7.35281 19,11 17.66277,18.51633 30.08297,39.20421 35,63 0.38595,17.4597 -1.34089,34.04425 -7,49 13.64239,-17.7661 16.91064,-43.16075 12,-66 -6.04823,-17.08459 -14.17743,-33.30722 -26,-48 8.66659,0.85141 16.98984,11.23314 25,17 19.55824,16.65732 31.55158,38.71475 35,63 0.65094,10.22529 3.74107,8.7209 4,-1 1.93543,-18.20334 -7.23587,-35.28125 -17,-50 -17.29639,-25.35277 -45.1494,-36.4394 -68,-53 -20.70795,-18.05556 -27.10624,-44.00343 -23,-71 2.40741,-13.11616 15.84645,-30.91901 31,-23 9.06912,1.63354 7.62748,7.72309 5,15 -4.02845,10.87383 -8.74032,21.46459 -16,31 18.81795,-5.45846 28.87582,-25.17107 37,-41 6.20929,-4.56971 20.21964,-13.9712 22,0 -0.91112,15.5556 -6.38733,29.22027 -14,42 -8.70001,9.58337 -5.97615,9.12213 3,2 15.24344,-11.42133 24.79103,-27.09661 29,-44 14.72736,-7.99985 23.34568,-26.40155 17,-43 -3.28466,-13.90609 -18.46437,-22.53583 -26,-34 -6.83643,-14.54455 -23.76341,-21.02143 -37,-27 -22.49328,-7.751934 -44.83885,-15.860447 -68,-22 -21.36783,-6.52619 -43.13047,-12.099222 -66,-15 -20.71072,-2.737229 -39.89257,-3.316416 -62,-3 -1.07843,2.548314 -2.07935,-1.166647 -4,0 z"
       id="path1"
       style="stroke-width:0.755906;stroke-dasharray:none" />
    <path
       d="m 171,926 c 7.449,-1.45832 16.18383,2.42889 25,1 -1.91446,6.26473 -14.62395,0.89121 -21,1 -0.66667,-2.27614 -3.33333,0.27614 -4,-2 z"
       id="path2"
       style="stroke-width:0.755906;stroke-dasharray:none" />
    <path
       d="m 183,906 c 10.13177,0.9857 21.42211,7.59113 34,6 3.42098,2.76839 -11.16288,4.3791 -15,2 -7.00417,-0.83806 -13.41428,-3.74117 -19,-8 z"
       id="path3"
       style="stroke-width:0.755906;stroke-dasharray:none" />
    <path
       d="m 443,893 c 6.20439,2.11113 11.10395,14.17802 19,18 6.5148,5.64279 14.48947,7.76112 22,11 -16.45354,2.62211 -36.40859,-12.82091 -41,-29 z"
       id="path4"
       style="stroke-width:0.755906;stroke-dasharray:none" />
    <path
       d="m 214,893 c 8.41734,0.29203 17.94084,6.34759 28,6 9.39412,4.23944 -14.68529,0.77685 -11,2 -6.02921,-1.75763 -12.3541,-2.90313 -17,-8 z"
       id="path5"
       style="stroke-width:0.755906;stroke-dasharray:none" />
    <path
       d="m 403,892 c 5.44508,0.20956 9.10416,11.7676 16,15 7.13132,5.29245 15.29557,8.09116 23,12 -14.11289,2.0755 -28.38994,-7.81264 -37,-20 -1.00817,-2.24591 -0.98113,-4.70931 -2,-7 z"
       id="path6"
       style="stroke-width:0.755906;stroke-dasharray:none" />
    <path
       d="m 484,890 c 5.98418,-0.30609 9.36936,12.15096 16,15 6.63469,5.68669 14.35686,8.74794 22,12 -11.67122,1.49253 -23.22708,-6.17562 -32,-15 -1.7357,-4.07712 -5.15637,-7.54668 -6,-12 z"
       id="path7"
       style="stroke-width:0.755906;stroke-dasharray:none" />
    <path
       d="m 415,884 c 3.2782,-2.26651 19.46799,2.48586 13,4 -4.16236,-1.69707 -9.15483,-1.58861 -13,-4 z"
       id="path8"
       style="stroke-width:0.755906;stroke-dasharray:none" />
    <path
       d="m 472,882 c 8.89927,0.22067 -12.85764,5.16137 -11,0 3.66667,0 7.33333,0 11,0 z"
       id="path9"
       style="stroke-width:0.755906;stroke-dasharray:none" />
    <path
       d="m 358,882 c 5.49079,2.01844 8.66651,14.81486 17,18 7.92057,4.9965 16.71175,7.89117 25,12 -13.84043,1.80154 -28.50144,-5.79817 -37,-18 -0.99433,-4.19768 -4.69653,-7.53678 -5,-12 z"
       id="path10"
       style="stroke-width:0.755906;stroke-dasharray:none" />
    <path
       d="m 374,878 c 9.24211,-3.92156 12.05557,6.09915 0,0 z"
       id="path11"
       style="stroke-width:0.755906;stroke-dasharray:none" />
    <path
       d="m 240,877 c 6.37883,1.91382 12.48592,12.89507 21,13 3.77641,3.1296 18.18198,2.73714 15,7 -14.91733,0.84713 -29.80266,-6.40015 -36,-20 z"
       id="path12"
       style="stroke-width:0.755906;stroke-dasharray:none" />
    <path
       d="m 315,873 c 4.09065,2.21727 9.81433,13.68461 17,17 7.86635,6.59881 16.91946,10.33251 26,14 -16.22495,2.56414 -30.83423,-10.92015 -41,-24 -0.38938,-2.43069 -2.14785,-4.39574 -2,-7 z"
       id="path13"
       style="stroke-width:0.755906;stroke-dasharray:none" />
    <path
       d="m 541,870 c 8.63991,-3.12464 14.4272,9.58501 23,10 2.91922,3.56084 19.33061,5.26705 13,8 -15.59008,1.78161 -26.7375,-7.16233 -40,-11 -6.77325,2.37895 -15.88657,9.36278 -5,14 8.41277,7.69383 18.80143,10.61746 29,14 -19.07701,4.07988 -34.8063,-8.95101 -49,-20 2.03297,-5.80519 13.8296,-8.21338 20,-12 3.02565,-0.83846 5.6359,-2.97327 9,-3 z"
       id="path14"
       style="stroke-width:0.755906;stroke-dasharray:none" />
    <path
       d="m 277,870 c 3.713,2.09037 8.01387,12.72356 15,16 7.92256,5.93451 18.69844,4.98048 27,10 -14.92464,1.53926 -33.66869,-5.30508 -40,-21 -1.98349,-1.27816 -2.28148,-2.81029 -2,-5 z"
       id="path15"
       style="stroke-width:0.755906;stroke-dasharray:none" />
    <path
       d="m 326,869 c 6.03306,-3.31347 13.52824,10.5658 0,0 z"
       id="path16"
       style="stroke-width:0.755906;stroke-dasharray:none" />
    <path
       d="m 243,865 c 3.15866,-2.80825 20.29601,1.13863 11,2 -3.95796,0.0818 -7.71406,-0.53441 -11,-2 z"
       id="path17"
       style="stroke-width:0.755906;stroke-dasharray:none" />
    <path
       d="m 490,863 c 11.78781,-2.31085 -1.73931,4.04018 -7,4 -15.06809,-0.24784 3.37596,-4.52333 7,-4 z"
       id="path18"
       style="stroke-width:0.755906;stroke-dasharray:none" />
    <path
       d="m 282,863 c 2.94521,-2.16701 20.28208,3.27183 11,4 -3.19992,-2.19894 -8.08902,-1.11139 -11,-4 z"
       id="path19"
       style="stroke-width:0.755906;stroke-dasharray:none" />
    <path
       d="m 436,862 c 4.06028,0.49254 17.77382,-2.15137 18,3 -6.22152,-0.34048 -13.44141,1.31732 -18,-3 z"
       id="path20"
       style="stroke-width:0.755906;stroke-dasharray:none" />
    <path
       d="m 127,862 c 5.66219,0.7997 -1.46094,13.74067 0,1 z"
       id="path21"
       style="stroke-width:0.755906;stroke-dasharray:none" />
    <path
       d="m 387,857 c 7.31504,-1.63403 16.61793,0.47933 24,2 -7.203,2.29674 -17.71572,1.0386 -24,-2 z"
       id="path22"
       style="stroke-width:0.755906;stroke-dasharray:none" />
    <path
       d="m 531,849 c 6.53496,0.38657 -8.43363,8.01905 -13,8 -8.12893,-3.44317 11.09963,-4.62471 13,-8 z"
       id="path23"
       style="stroke-width:0.755906;stroke-dasharray:none" />
    <path
       d="m 346,849 c 6.29675,-0.38674 15.33389,0.97969 22,3 -6.66936,2.38627 -16.46015,0.561 -22,-3 z"
       id="path24"
       style="stroke-width:0.755906;stroke-dasharray:none" />
    <path
       d="m 300,845 c 4.02965,-2.47401 18.72238,-0.89808 15,3 -4.63663,-1.81999 -10.56681,-0.79661 -15,-3 z"
       id="path25"
       style="stroke-width:0.755906;stroke-dasharray:none" />
    <path
       d="m 565,843 c 7.61818,-0.20856 14.74939,9.38924 23,11 9.7431,5.56302 21.47634,6.32141 32,10 -17.25398,3.76818 -34.09035,-2.1911 -50,-5 -11.21253,5.69829 6.80157,12.46768 12,15 14.69883,7.1419 35.76428,7.96849 47,-7 5.22794,-5.41054 17.77414,-12.11939 8,-1 -10.83651,14.44209 -25.33875,20.03431 -43,18 -16.04754,-2.01201 -33.09953,-8.40537 -42,-23 -0.72987,-8.33137 6.91676,-14.00084 13,-18 z"
       id="path26"
       style="stroke-width:0.755906;stroke-dasharray:none" />
    <path
       d="m 269,843 c 10.33518,-4.41699 11.99589,4.83736 0,0 z"
       id="path27"
       style="stroke-width:0.755906;stroke-dasharray:none" />
    <path
       d="m 477,840 c 10.53467,-2.19553 -3.62606,5.28406 -9,3 -18.5215,-3.48191 4.49923,-3.15528 9,-3 z"
       id="path28"
       style="stroke-width:0.755906;stroke-dasharray:none" />
    <path
       d="m 145,839 c 5.67288,-1.59525 -8.42772,19.24257 -5,9 -0.013,-3.60823 2.91929,-6.23875 5,-9 z"
       id="path29"
       style="stroke-width:0.755906;stroke-dasharray:none" />
    <path
       d="m 783,838 c 11.40552,-3.20173 2.30505,3.85182 -5,2 -3.3464,-2.97047 3.85358,-1.75327 5,-2 z"
       id="path30"
       style="stroke-width:0.755906;stroke-dasharray:none" />
    <path
       d="m 414,838 c 7.63183,0.0422 19.40434,-1.4247 27,2 -7.55079,1.3671 -21.66099,2.70289 -27,-2 z"
       id="path31"
       style="stroke-width:0.755906;stroke-dasharray:none" />
    <path
       d="m 220,837 c 8.77664,-0.69474 -12.18597,7.82037 -1,0 z"
       id="path32"
       style="stroke-width:0.755906;stroke-dasharray:none" />
    <path
       d="m 846,831 c 6.74235,-0.5202 -9.06681,9.34784 -13,6 3.99036,-2.79638 8.63597,-4.16311 13,-6 z"
       id="path33"
       style="stroke-width:0.755906;stroke-dasharray:none" />
    <path
       d="m 370,830 c 7.21582,-0.71271 17.60749,-0.56741 24,4 -8.17029,1.77733 -19.41402,2.33836 -26,-3 l 1,-1 z"
       id="path34"
       style="stroke-width:0.755906;stroke-dasharray:none" />
    <path
       d="m 518,829 c 4.63896,1.78529 -8.94788,9.42487 -14,9 -12.1854,2.48393 3.23575,-3.77396 7,-7 2.6443,0.1353 4.54988,-1.6046 7,-2 z"
       id="path35"
       style="stroke-width:0.755906;stroke-dasharray:none" />
    <path
       d="m 753,824 c 3.4059,-1.61879 18.60971,-2.07511 15,1 -5.4456,-1.63898 -16.13576,3.96879 -17,-1 h 1 z"
       id="path36"
       style="stroke-width:0.755906;stroke-dasharray:none" />
    <path
       d="m 318,824 c 9.76949,-2.11372 20.9119,1.14516 30,4 -0.70283,3.93926 -13.33643,1.78401 -18,1 -3.65161,-2.16685 -8.79178,-1.87972 -12,-5 z"
       id="path37"
       style="stroke-width:0.755906;stroke-dasharray:none" />
    <path
       d="m 256,824 c 11.0097,-1.18932 -4.49423,3.43844 -9,3 -8.90941,-1.68046 7.02476,-3.87922 9,-3 z"
       id="path38"
       style="stroke-width:0.755906;stroke-dasharray:none" />
    <path
       d="m 440,823 c 7.78072,-1.4832 18.82495,-2.28295 26,1 -7.99592,2.33718 -18.64805,3.53098 -26,-1 z"
       id="path39"
       style="stroke-width:0.755906;stroke-dasharray:none" />
    <path
       d="m 195,823 c 7.67321,-1.95961 -12.48119,12.07047 -11,7 3.22003,-3.28922 6.98021,-5.66075 11,-7 z"
       id="path40"
       style="stroke-width:0.755906;stroke-dasharray:none" />
    <path
       d="m 827,822 c 6.08626,-0.78909 -7.9886,9.19791 -13,8 -8.98078,-1.35883 15.17289,-6.69523 11,-7 l 1,-1 z"
       id="path41"
       style="stroke-width:0.755906;stroke-dasharray:none" />
    <path
       d="m 558,822 c 5.13462,1.56572 -5.3517,13.34023 -11,14 -7.08803,5.7905 -15.61338,0.79695 -4,-3 5.07248,-3.48883 10.34949,-6.50266 15,-11 z"
       id="path42"
       style="stroke-width:0.755906;stroke-dasharray:none" />
    <path
       d="m 277,822 c 8.61676,-2.37272 19.01614,-0.47465 27,2 -7.29075,3.82282 -17.76828,-0.59999 -26,-1 z"
       id="path43"
       style="stroke-width:0.755906;stroke-dasharray:none" />
    <path
       d="m 504,816 c 6.30659,-0.0476 -17.23718,9.92067 -13,9 -8.86665,2.84928 -13.61945,-0.55457 -3,-4 5.5318,-1.02691 10.67754,-3.47896 16,-5 z"
       id="path44"
       style="stroke-width:0.755906;stroke-dasharray:none" />
    <path
       d="m 387,816 c 10.8636,-2.42675 25.1993,-0.92738 33,5 -9.54972,1.88929 -20.64405,-1.12245 -30,-3 -1.5286,0.60948 -1.93587,-1.48816 -3,-2 z"
       id="path45"
       style="stroke-width:0.755906;stroke-dasharray:none" />
    <path
       d="m 586,814 c 6.63232,-0.0737 13.22211,8.50319 21,9 13.93048,5.28363 31.61356,8.40302 47,4 -1.17663,5.86117 -13.43914,4.795 -19,8 -14.05229,3.0102 -27.76135,5.78738 -43,3 14.12047,6.55365 31.29062,14.05483 48,8 12.52237,-4.494 16.91571,-20.06125 28,-25 -2.61914,12.75511 -13.65756,30.01395 -29,33 -19.86964,5.68572 -42.00352,0.41336 -58,-12 -8.82422,-8.61377 -0.003,-20.16975 5,-28 z"
       id="path46"
       style="stroke-width:0.755906;stroke-dasharray:none" />
    <path
       d="m 805,812 c 10.43012,-2.85612 -3.82662,6.76711 -9,5 -16.50079,0.89916 5.08035,-5.29009 9,-5 z"
       id="path47"
       style="stroke-width:0.755906;stroke-dasharray:none" />
    <path
       d="m 175,812 c 7.511,0.8466 -9.26678,8.44872 -12,13 -10.63845,7.19262 2.28957,-9.15585 7,-10 1.36979,-1.55527 3.10687,-2.71185 5,-3 z"
       id="path48"
       style="stroke-width:0.755906;stroke-dasharray:none" />
    <path
       d="m 879,809 c 9.69093,-0.89597 -15.54569,13.1781 -7,4 2.35746,-0.97912 4.73634,-2.72474 7,-4 z"
       id="path49"
       style="stroke-width:0.755906;stroke-dasharray:none" />
    <path
       d="m 341,809 c 9.74962,-2.37381 21.42597,-0.78078 30,3 -8.70798,3.46148 -20.34928,0.84488 -29,-2 z"
       id="path50"
       style="stroke-width:0.755906;stroke-dasharray:none" />
    <path
       d="m 153,809 c 7.72647,-2.88898 -13.26025,16.19397 -10,9 2.15092,-3.80309 6.03407,-7.46949 10,-9 z"
       id="path51"
       style="stroke-width:0.755906;stroke-dasharray:none" />
    <path
       d="m 140,809 c 6.99167,-0.12465 -11.54287,12.05581 -2,2 l 1,-1 z"
       id="path52"
       style="stroke-width:0.755906;stroke-dasharray:none" />
    <path
       d="m 479,807 c 11.6985,-3.68498 1.85026,5.04614 -5,4 -3.45023,1.41633 -18.57621,2.22491 -15,-1 6.10471,-2.03124 12.99184,-3.17575 20,-3 z"
       id="path53"
       style="stroke-width:0.755906;stroke-dasharray:none" />
    <path
       d="m 230,807 c 11.19348,-4.43322 5.45164,5.52169 -3,4 -5.57856,3.15482 -18.83073,5.08132 -7,-1 3.02255,-1.47299 6.38219,-3.00375 10,-3 z"
       id="path54"
       style="stroke-width:0.755906;stroke-dasharray:none" />
    <path
       d="m 733,803 c 6.06853,-1.65285 14.93147,-1.65285 21,0 -6.08187,3.26211 -14.3163,1.10239 -21,0 z"
       id="path55"
       style="stroke-width:0.755906;stroke-dasharray:none" />
    <path
       d="m 412,803 c 12.37415,-2.77148 26.09051,-0.0823 37,4 -10.93574,4.10012 -25.86359,1.9181 -37,0 -1.70675,-0.92379 -3.57069,-4.23478 0,-4 z"
       id="path56"
       style="stroke-width:0.755906;stroke-dasharray:none" />
    <path
       d="m 295,802 c 10.55804,-2.49286 24.61557,-1.11899 32,5 -8.65544,5.32742 -18.75155,-2.18877 -28,-2 -0.71758,-2.27293 -4.67548,0.51349 -4,-3 z"
       id="path57"
       style="stroke-width:0.755906;stroke-dasharray:none" />
    <path
       d="m 263,801 c 6.67764,-1.21232 16.97871,-2.6766 23,1 -9.51603,5.55146 -24.92205,2.09593 -35,3 3.03284,-3.30808 7.64676,-3.82715 12,-4 z"
       id="path58"
       style="stroke-width:0.755906;stroke-dasharray:none" />
    <path
       d="m 864,799 c 6.04757,-0.71336 -8.06665,9.8536 -13,9 -4.54894,-4.06198 9.95669,-6.74322 13,-9 z"
       id="path59"
       style="stroke-width:0.755906;stroke-dasharray:none" />
    <path
       d="m 543,798 c 6.30025,-0.16892 -7.96189,12.04843 -12,15 -3.27367,1.78691 -19.61779,7.98312 -13,2 9.24582,-3.40396 16.4447,-11.92135 25,-17 z"
       id="path60"
       style="stroke-width:0.755906;stroke-dasharray:none" />
    <path
       d="m 923,797 c 7.19912,-0.74327 -11.31114,18.92925 -7,10 2.78323,-3.13625 5.03703,-6.54047 7,-10 z"
       id="path61"
       style="stroke-width:0.755906;stroke-dasharray:none" />
    <path
       d="m 774,797 c 5.50226,-1.79115 18.81969,-1.97297 20,2 -9.88962,4.01402 -22.98356,0.29215 -33,4 -3.66847,-4.30954 10.50735,-5.90406 13,-6 z"
       id="path62"
       style="stroke-width:0.755906;stroke-dasharray:none" />
    <path
       d="m 513,797 c 8.70408,-0.36291 -16.70507,12.76874 -3,2 0.40728,-2.09763 2.59272,0.0976 3,-2 z"
       id="path63"
       style="stroke-width:0.755906;stroke-dasharray:none" />
    <path
       d="m 207,795 c 10.96686,-4.62488 6.75849,6.27754 -2,5 -6.23104,3.87274 -17.8164,3.79313 -6,-2 2.28877,-1.73714 5.1206,-2.68755 8,-3 z"
       id="path64"
       style="stroke-width:0.755906;stroke-dasharray:none" />
    <path
       d="m 842,794 c 8.82076,-1.48511 -14.95268,9.92347 -11,9 -10.37379,3.55401 -10.57823,-2.24389 -1,-5 3.9178,-1.41418 7.72677,-3.47172 12,-4 z"
       id="path65"
       style="stroke-width:0.755906;stroke-dasharray:none" />
    <path
       d="m 369,794 c 9.24646,-2.46135 19.62174,1.04052 28,4 -9.28605,8.22018 -21.96066,0.65567 -33,1 -11.85392,-1.69876 -0.70862,-5.5115 5,-5 z"
       id="path66"
       style="stroke-width:0.755906;stroke-dasharray:none" />
    <path
       d="m 443,790 c 7.06148,-1.65581 16.93852,-1.65581 24,0 -8.74257,2.74661 -21.27926,8.74601 -30,2 1.48558,-2.55063 3.49674,-2.00977 6,-2 z"
       id="path67"
       style="stroke-width:0.755906;stroke-dasharray:none" />
    <path
       d="m 812,788 c 6.74742,-4.24068 17.076,2.98911 5,4 -7.43542,0.50752 -14.44578,3.39646 -21,1 4.15895,-4.10531 10.37701,-4.41133 16,-5 z"
       id="path68"
       style="stroke-width:0.755906;stroke-dasharray:none" />
    <path
       d="m 324,788 c 9.33104,-2.3534 20.28034,0.15068 28,5 -6.50255,4.94393 -12.53134,4.76723 -20,2 -7.49718,-2.54725 -16.51716,-1.41813 -24,-4 4.83417,-1.94166 10.22468,-3.4117 16,-3 z"
       id="path69"
       style="stroke-width:0.755906;stroke-dasharray:none" />
    <path
       d="m 578,786 c 3.52224,1.20106 -3.82149,13.0073 -8,17 -2.34729,5.23481 -20.43889,11.07048 -11,4 8.70505,-4.23673 13.18504,-13.83686 19,-21 z"
       id="path70"
       style="stroke-width:0.755906;stroke-dasharray:none" />
    <path
       d="m 188,786 c 8.17481,1.14972 -15.13742,11.18174 -11,10 -10.84292,5.75819 -10.3655,1.41711 -1,-5 4.08774,-1.3887 7.70571,-4.09792 12,-5 z"
       id="path71"
       style="stroke-width:0.755906;stroke-dasharray:none" />
    <path
       d="m 502,785 c 7.8428,1.19511 -12.07499,8.46044 -11,8 -3.63439,2.01591 -20.5715,3.87438 -11,-2 7.19232,-2.24424 14.91591,-3.52027 22,-6 z"
       id="path72"
       style="stroke-width:0.755906;stroke-dasharray:none" />
    <path
       d="m 254,785 c 10.00648,-3.36187 -1.30293,10.23157 -8,6 -6.73452,-1.16069 -13.61397,2.21145 -19,1 7.38837,-5.86831 17.03655,-7.31811 27,-7 z"
       id="path73"
       style="stroke-width:0.755906;stroke-dasharray:none" />
    <path
       d="m 747,783 c 4.37394,-0.77144 17.39438,8.21076 17,4 -9.94856,2.08215 -21.4307,-3.24355 -32,0 -6.36414,-2.30431 8.6421,-4.57288 13,-4 h 1 z"
       id="path74"
       style="stroke-width:0.755906;stroke-dasharray:none" />
    <path
       d="m 400,783 c 9.39294,-3.2823 19.16338,1.2037 27,5 -12.119,6.41121 -26.12494,0.11354 -38,-3 3.17673,-1.45357 7.18059,-2.09394 11,-2 z"
       id="path75"
       style="stroke-width:0.755906;stroke-dasharray:none" />
    <path
       d="m 279,783 c 8.45475,-1.6074 21.59042,-2.28874 28,2 -7.63385,10.00077 -20.64509,0.42513 -30,3 -10.70856,1.58666 -10.45357,-3.12573 -1,-5 1,0 2,0 3,0 z"
       id="path76"
       style="stroke-width:0.755906;stroke-dasharray:none" />
    <path
       d="m 165,783 c 11.05259,-1.42237 -18.02262,15.42126 -12,10 3.70839,-4.06506 7.64122,-7.51765 12,-10 z"
       id="path77"
       style="stroke-width:0.755906;stroke-dasharray:none" />
    <path
       d="m 686,781 c 7.37267,2.70178 -8.7172,7.944 0,0 z"
       id="path78"
       style="stroke-width:0.755906;stroke-dasharray:none" />
    <path
       d="m 779,780 c 4.69431,-1.35282 17.75914,-2.79761 18,2 -9.67368,-0.33195 -19.56699,4.07782 -29,1 3.33168,-1.59136 6.91284,-3.27869 11,-3 z"
       id="path79"
       style="stroke-width:0.755906;stroke-dasharray:none" />
    <path
       d="m 599,779 c 8.90532,2.89337 19.35973,10.38958 31,10 12.85825,3.69189 27.32004,1.43385 40,-1 4.76561,6.8694 -9.01447,9.03327 -13,14 -9.46671,4.75889 -19.68723,7.69791 -31,8 14.79605,2.98308 31.88409,5.72856 43,-7 2.47339,-6.188 14.20335,-12.65486 13,-5 -10.15058,19.54729 -31.17293,26.98873 -53,25 -13.72186,-2.43047 -32.68503,-6.11974 -35,-23 -0.56843,-7.95774 0.64487,-15.08279 5,-21 z"
       id="path80"
       style="stroke-width:0.755906;stroke-dasharray:none" />
    <path
       d="m 419,779 c 6.73024,-1.65494 16.26976,-1.65494 23,0 -6.61517,1.52415 -16.70115,4.11546 -23,0 z"
       id="path81"
       style="stroke-width:0.755906;stroke-dasharray:none" />
    <path
       d="m 555,776 c 7.26001,-0.18728 -16.61259,17.74135 -8,7 3.08666,-0.75434 5.37158,-5.04055 8,-7 z"
       id="path82"
       style="stroke-width:0.755906;stroke-dasharray:none" />
    <path
       d="m 912,775 c 4.75989,0.53339 -4.22113,15.75479 -9,15 2.73565,-5.06902 6.77354,-9.70403 9,-15 z"
       id="path83"
       style="stroke-width:0.755906;stroke-dasharray:none" />
    <path
       d="m 350,775 c 12.05296,-2.95245 23.34173,4.65553 35,6 -11.00496,4.86157 -23.3048,5.93019 -34,0 -8.03323,-0.57288 -12.39979,-5.79824 -1,-6 z"
       id="path84"
       style="stroke-width:0.755906;stroke-dasharray:none" />
    <path
       d="m 893,773 c 4.32209,1.84552 -6.56662,12.78037 -11,17 -10.90007,1.19363 9.72805,-14.55658 11,-17 z"
       id="path85"
       style="stroke-width:0.755906;stroke-dasharray:none" />
    <path
       d="m 872,773 c 5.04576,2.10176 -8.49388,11.84871 -13,14 -9.48786,-1.71721 13.31536,-15.91299 10,-13 1.4714,0.80474 1.5286,-1.80474 3,-1 z"
       id="path86"
       style="stroke-width:0.755906;stroke-dasharray:none" />
    <path
       d="m 229,773 c 10.5776,-3.62374 -1.48741,11.14794 -8,7 -7.61015,-1.0454 -14.76346,4.04059 -21,3 8.43038,-5.98769 18.45925,-9.08827 29,-10 z"
       id="path87"
       style="stroke-width:0.755906;stroke-dasharray:none" />
    <path
       d="m 849,772 c 11.58191,-4.10025 -1.52744,8.68426 -7,8 -3.48052,2.46171 -20.48685,5.24807 -11,-1 5.37523,-3.60792 11.45181,-6.2286 18,-7 z"
       id="path88"
       style="stroke-width:0.755906;stroke-dasharray:none" />
    <path
       d="m 482,772 c 7.16343,1.28708 -18.69045,9.12446 -13,7 -12.41662,1.83273 -1.22936,-4.54329 5,-5 3.10953,0.45393 5.30566,-1.50682 8,-2 z"
       id="path89"
       style="stroke-width:0.755906;stroke-dasharray:none" />
    <path
       d="m 372,768 c 8.42322,-0.54807 18.36638,3.73112 27,6 -8.93205,4.72833 -21.2738,0.73434 -27,-6 z"
       id="path90"
       style="stroke-width:0.755906;stroke-dasharray:none" />
    <path
       d="m 310,768 c 10.96169,-3.37583 22.06519,1.56868 32,4 -10.52564,3.25856 -22.19781,8.73338 -33,3 -6.80678,-1.18769 -14.00135,-0.24351 -20,-1 6.22337,-3.65508 13.2045,-6.15373 21,-6 z"
       id="path91"
       style="stroke-width:0.755906;stroke-dasharray:none" />
    <path
       d="m 264,768 c 4.69431,-1.35282 17.75914,-2.79761 18,2 -10.86986,7.47594 -26.41576,3.66294 -39,7 1.28654,-4.9006 14.49908,-8.68627 21,-9 z"
       id="path92"
       style="stroke-width:0.755906;stroke-dasharray:none" />
    <path
       d="m 821,767 c 8.37736,-3.79101 14.1979,1.76286 3,4 -6.80074,2.75818 -15.46156,6.35107 -23,4 5.75061,-4.42116 13.18279,-6.10479 20,-8 z"
       id="path93"
       style="stroke-width:0.755906;stroke-dasharray:none" />
    <path
       d="m 539,767 c 5.60834,1.8001 -5.7464,12.97797 -11,14 -3.31868,4.71438 -20.36933,6.33711 -9,1 6.9929,-4.15666 14.00615,-8.45064 20,-15 z"
       id="path94"
       style="stroke-width:0.755906;stroke-dasharray:none" />
    <path
       d="m 513,763 c 6.24307,-0.23654 -8.22476,9.47032 -13,9 -0.71861,-3.08485 10.0611,-6.496 13,-9 z"
       id="path95"
       style="stroke-width:0.755906;stroke-dasharray:none" />
    <path
       d="m 214,762 c 12.37916,-3.6326 0.47282,5.03914 -5,7 -10.54158,1.83593 -20.68575,9.94491 -31,9 11.45051,-6.67796 22.96667,-13.15752 36,-16 z"
       id="path96"
       style="stroke-width:0.755906;stroke-dasharray:none" />
    <path
       d="m 930,761 c 5.744,-0.46776 -1.98935,17.69285 -5,13 1.90034,-4.14634 4.76816,-8.17807 5,-13 z"
       id="path97"
       style="stroke-width:0.755906;stroke-dasharray:none" />
    <path
       d="m 322,758 c 9.98766,-1.81575 20.65693,3.34569 31,4 11.38616,2.10386 -0.67361,5.26668 -7,4 -8.50221,-1.33089 -16.85879,-3.41676 -24,-8 z"
       id="path98"
       style="stroke-width:0.755906;stroke-dasharray:none" />
    <path
       d="m 281,755 c 12.9457,-2.70449 26.98342,0.72305 38,6 -10.16175,1.54396 -21.20105,2.71972 -31,0 -8.0555,-1.20631 -19.60112,2.1357 -28,0 6.18575,-3.86396 13.30269,-5.77991 21,-6 z"
       id="path99"
       style="stroke-width:0.755906;stroke-dasharray:none" />
    <path
       d="m 251,755 c 12.17932,-4.06989 1.04342,6.43802 -5,7 -5.47934,2.48854 -13.57357,3.67019 -19,3 6.99019,-5.34154 15.72453,-7.72801 24,-10 z"
       id="path100"
       style="stroke-width:0.755906;stroke-dasharray:none" />
    <path
       d="m 851,749 c 12.45095,-4.30504 0.47736,7.21978 -5,9 -3.20157,2.38016 -18.07251,5.11192 -15,1 6.50052,-3.66788 13.21555,-7.02796 20,-10 z"
       id="path101"
       style="stroke-width:0.755906;stroke-dasharray:none" />
    <path
       d="m 582,749 c 4.21687,0.75333 1.36172,13.03398 -1,17 1.45206,5.95791 -17.35446,18.16501 -9,8 4.21464,-7.96826 7.20945,-16.45467 10,-25 z"
       id="path102"
       style="stroke-width:0.755906;stroke-dasharray:none" />
    <path
       d="m 879,747 c 6.29008,-0.55601 -6.58999,12.73176 -11,15 -3.55724,4.26836 -20.30719,6.30358 -10,-2 6.10723,-6.55772 13.06451,-10.86706 21,-13 z"
       id="path103"
       style="stroke-width:0.755906;stroke-dasharray:none" />
    <path
       d="m 239,742 c 6.57885,-1.71851 15.66541,3.46174 23,0 -1.15997,6.16385 -16.42802,4.74346 -22,2 l -1,-1 z"
       id="path104"
       style="stroke-width:0.755906;stroke-dasharray:none" />
    <path
       d="m 603,741 c 6.89277,-0.5477 13.49338,8.10577 22,7 14.96857,3.93278 33.34295,2.09579 48,-1 1.1885,6.4137 3.42291,14.06584 5,19 -6.96263,-0.46112 -14.42193,4.4922 -11,12 2.68372,8.91248 -13.66484,6.26435 -20,8 -17.93433,0.49385 -38.6505,-3.55627 -45,-22 -2.75523,-7.30441 0.0816,-15.92742 1,-23 z"
       id="path105"
       style="stroke-width:0.755906;stroke-dasharray:none" />
    <path
       d="m 172,741 c 5.77053,-2.38262 17.25628,8.83891 5,3 -1.89313,-0.28815 -3.63021,-1.44473 -5,-3 z"
       id="path106"
       style="stroke-width:0.755906;stroke-dasharray:none" />
    <path
       d="m 901,738 c 4.3801,1.31891 -2.3466,13.04539 -6,17 -3.9346,6.83276 -17.20396,12.00218 -10,1 3.75413,-7.27202 9.5503,-12.39573 16,-18 z"
       id="path107"
       style="stroke-width:0.755906;stroke-dasharray:none" />
    <path
       d="m 917,737 c 4.78085,1.04177 -0.9732,12.4096 -2,17 -3.84219,9.9575 -12.30082,8.79708 -5,-1 2.83229,-5.14091 5.88797,-10.16458 7,-16 z"
       id="path108"
       style="stroke-width:0.755906;stroke-dasharray:none" />
    <path
       d="m 695,734 c 4.96879,0.86424 -0.63898,11.5544 1,17 -1.89308,9.48219 -4.97565,18.47168 -14,25 -6.30117,-7.6711 -3.03431,-12.15403 5,-14 6.06856,-8.01566 -5.5735,-21.21451 6,-26 l 1,-1 z"
       id="path109"
       style="stroke-width:0.755906;stroke-dasharray:none" />
    <path
       d="m 335,732 c 9.0158,-1.18815 -15.14202,4.78458 -11,5 -5.21334,2.07111 -19.42843,-3.06733 -8,-4 6.69204,0.49068 12.72444,-0.52098 19,-1 z"
       id="path110"
       style="stroke-width:0.755906;stroke-dasharray:none" />
    <path
       d="m 198,730 c 7.86684,-0.99286 16.54547,4.49868 26,3 -1.04968,4.25955 -13.34121,0.95915 -19,2 -1.93679,-1.83464 -6.80237,-1.20977 -7,-5 z"
       id="path111"
       style="stroke-width:0.755906;stroke-dasharray:none" />
    <path
       d="m 377,729 c 10.9284,-1.59506 -13.04323,5.88418 -9,5 -6.84678,1.97396 -17.11558,-3.81131 -5,-3 4.45495,-1.16717 9.17595,-1.81948 14,-2 z"
       id="path112"
       style="stroke-width:0.755906;stroke-dasharray:none" />
    <path
       d="m 560,728 c 4.74206,0.86041 0.27821,12.28467 0,17 -2.97837,6.74722 -10.40056,15.22791 -18,13 11.80595,-6.82277 12.60351,-19.70544 18,-30 z"
       id="path113"
       style="stroke-width:0.755906;stroke-dasharray:none" />
    <path
       d="m 286,728 c 11.40251,-4.02736 5.05431,4.60473 -3,4 -3.70683,3.17797 -19.05176,2.49818 -14,-3 5.89615,0.17959 10.85581,-1.74225 17,-1 z"
       id="path114"
       style="stroke-width:0.755906;stroke-dasharray:none" />
    <path
       d="m 880,725 c 6.00494,-0.36745 -4.89915,12.35627 -9,16 -3.96037,5.12116 -19.72174,2.81411 -8,-2 6.05005,-3.77238 11.77761,-8.22649 17,-14 z"
       id="path115"
       style="stroke-width:0.755906;stroke-dasharray:none" />
    <path
       d="m 536,723 c 5.01232,1.25872 -0.36988,12.94947 -3,17 -8.46924,11.85476 -5.49033,-0.12987 0,-6 1.11731,-3.58059 3.59849,-6.71003 3,-11 z"
       id="path116"
       style="stroke-width:0.755906;stroke-dasharray:none" />
    <path
       d="m 929,722 c 5.34067,1.71025 3.39627,16.33008 -1,21 -1.07368,-5.79168 2.33399,-13.57472 1,-21 z"
       id="path117"
       style="stroke-width:0.755906;stroke-dasharray:none" />
    <path
       d="m 414,722 c 10.7667,-1.90399 -4.5486,4.19333 -9,4 -10.33593,-0.98772 6.26754,-3.8909 9,-4 z"
       id="path118"
       style="stroke-width:0.755906;stroke-dasharray:none" />
    <path
       d="m 142,721 c 6.74768,0.48164 15.13458,13.18499 3,4 -0.74336,-1.3861 -3.43883,-2.15353 -3,-4 z"
       id="path119"
       style="stroke-width:0.755906;stroke-dasharray:none" />
    <path
       d="m 223,718 c 7.91215,-0.14322 19.50769,-0.76127 28,1 -8.6218,3.23816 -20.50436,6.56951 -28,-1 z"
       id="path120"
       style="stroke-width:0.755906;stroke-dasharray:none" />
    <path
       d="m 901,713 c 4.53494,0.97476 1.1148,13.27391 -2,17 -1.63862,5.01341 -15.65713,14.81843 -15,8 3.17268,-9.34399 11.63266,-16.57029 17,-25 z"
       id="path121"
       style="stroke-width:0.755906;stroke-dasharray:none" />
    <path
       d="m 316,708 c 5.3219,-3.06238 19.03035,-0.0319 7,3 -10.39542,5.43214 -26.48996,8.16803 -36,-1 9.06821,-1.69713 19.58441,-1.12669 29,-2 z"
       id="path122"
       style="stroke-width:0.755906;stroke-dasharray:none" />
    <path
       d="m 361,707 c 5.26959,2.03788 -12.22747,6.93379 -12,7 -3.36829,2.77989 -20.25222,0.49451 -12,-3 7.88738,-1.47027 16.12005,-2.49223 24,-4 z"
       id="path123"
       style="stroke-width:0.755906;stroke-dasharray:none" />
    <path
       d="m 584,705 c 5.15945,-0.95839 4.5831,10.75666 5,16 -0.43402,8.73832 -7.7866,20.7686 -16,22 9.63373,-9.72362 8.2991,-23.99049 10,-37 z"
       id="path124"
       style="stroke-width:0.755906;stroke-dasharray:none" />
    <path
       d="m 247,704 c 9.12426,-0.50984 20.84255,2.49973 31,0 10.99916,0.35828 -13.2082,6.98168 -9,7 -8.45027,0.35895 -16.54344,-0.14354 -22,-7 z"
       id="path125"
       style="stroke-width:0.755906;stroke-dasharray:none" />
    <path
       d="m 157,703 c 5.74787,-1.53662 12.63478,5.95272 15,7 -5.65309,-0.39634 -10.8827,-2.92985 -15,-7 z"
       id="path126"
       style="stroke-width:0.755906;stroke-dasharray:none" />
    <path
       d="m 911,702 c 7.87069,1.46864 4.78318,15.95957 2,22 -6.28781,11.40783 -6.91768,-6.65301 -5,-12 1.30789,-3.21415 1.92347,-6.71737 3,-10 z"
       id="path127"
       style="stroke-width:0.755906;stroke-dasharray:none" />
    <path
       d="m 397,702 c 6.54464,0.0749 -8.5747,6.34454 -13,6 -11.73304,3.75689 -2.1563,-5.95808 5,-4 2.75978,-0.32408 5.42414,-1.25037 8,-2 z"
       id="path128"
       style="stroke-width:0.755906;stroke-dasharray:none" />
    <path
       d="m 185,702 c 7.35461,-1.36481 15.19269,4.54288 24,3 -1.62113,4.80068 -16.04386,3.75169 -21,0 -1,-1 -2,-2 -3,-3 z"
       id="path129"
       style="stroke-width:0.755906;stroke-dasharray:none" />
    <path
       d="m 885,697 c 4.3186,1.16432 -0.7473,13.43475 -5,17 -10.17004,9.8514 -0.67806,-5.36606 1,-10 2.14215,-1.92993 3.17733,-4.53074 4,-7 z"
       id="path130"
       style="stroke-width:0.755906;stroke-dasharray:none" />
    <path
       d="m 115,696 c 1.32266,0.93913 18.83494,12.54377 10,10 -4.10779,-1.09139 -8.90917,-5.89567 -10,-10 z"
       id="path131"
       style="stroke-width:0.755906;stroke-dasharray:none" />
    <path
       d="m 672,695 c 6.38216,1.85424 1.28239,18.1994 11,21 1.38092,9.82187 -10.63251,4.23694 -11,14 1.60724,6.20949 2.19213,15.32059 -7,14 -17.13649,3.97479 -37.92967,2.6974 -52,-7 -12.31735,-9.96333 -12.38106,-27.31272 -10,-42 20.43177,7.93951 48.39281,6.19377 69,0 z"
       id="path132"
       style="stroke-width:0.755906;stroke-dasharray:none" />
    <path
       d="m 435,693 c 6.67339,-0.80552 -9.02209,8.64533 -13,5 4.21702,-1.83203 8.431,-4.05459 13,-5 z"
       id="path133"
       style="stroke-width:0.755906;stroke-dasharray:none" />
    <path
       d="m 291,692 c 6.74629,-1.13496 18.99035,-3.43715 23,3 -9.1279,6.39239 -22.33087,1.71639 -32,0 2.28107,-2.54474 5.58505,-3.16962 9,-3 z"
       id="path134"
       style="stroke-width:0.755906;stroke-dasharray:none" />
    <path
       d="m 556,690 c 5.06289,0.8449 2.88625,11.72211 3,17 -0.79043,4.37984 -12.50726,19.79144 -8,9 2.91618,-8.21147 3.54485,-17.19417 5,-26 z"
       id="path135"
       style="stroke-width:0.755906;stroke-dasharray:none" />
    <path
       d="m 333,690 c 4.20431,-1.27867 17.29144,4.56927 17,1 -8.3033,5.09307 -21.87327,9.30507 -31,3 1.87955,-3.74178 9.70236,-3.59684 14,-4 z"
       id="path136"
       style="stroke-width:0.755906;stroke-dasharray:none" />
    <path
       d="m 210,690 c 8.88479,-0.22552 20.20424,2.11512 30,3 -0.88149,3.44234 -11.76023,2.17764 -17,3 -4.26403,-2.05108 -9.50722,-2.02426 -13,-6 z"
       id="path137"
       style="stroke-width:0.755906;stroke-dasharray:none" />
    <path
       d="m 921,689 c 5.65989,-0.55592 4.99092,11.94496 5,18 -4.27533,4.60757 -5.41059,-9.25869 -5,-14 0,-1.33333 0,-2.66667 0,-4 z"
       id="path138"
       style="stroke-width:0.755906;stroke-dasharray:none" />
    <path
       d="m 247,688 c 10.73499,-2.34563 23.60203,-1.19016 33,3 -9.8361,6.00074 -23.5874,1.2138 -33,-3 z"
       id="path139"
       style="stroke-width:0.755906;stroke-dasharray:none" />
    <path
       d="m 382,687 c 10.89476,-1.73945 -13.08841,5.68676 -9,5 -4.11856,0.0372 -18.00859,4.48087 -15,0 5.82564,-5.4754 16.11734,-4.19313 24,-5 z"
       id="path140"
       style="stroke-width:0.755906;stroke-dasharray:none" />
    <path
       d="m 898,682 c 6.49784,1.62776 4.19466,16.38492 1,22 -4.72741,9.23439 -10.22101,9.76581 -6,-1 -0.53693,-8.11328 -0.26163,-15.25716 5,-21 z"
       id="path141"
       style="stroke-width:0.755906;stroke-dasharray:none" />
    <path
       d="m 692,681 c 5.87746,-1.22262 4.26625,10.88107 5,16 2.38259,12.91142 1.7505,29.55445 -10,37 -1.40972,-6.65137 -5.49876,-12.16731 -2,-19 10.71271,-3.44453 3.1196,-17.31 2,-25 -1.45084,-4.37803 4.54197,-5.46603 5,-9 z"
       id="path142"
       style="stroke-width:0.755906;stroke-dasharray:none" />
    <path
       d="m 410,679 c 7.52738,1.59424 -11.72252,7.50352 -11,7 -12.24178,2.05888 2.15235,-5.29737 7,-6 1.62796,0.28344 2.07974,-1.78506 4,-1 z"
       id="path143"
       style="stroke-width:0.755906;stroke-dasharray:none" />
    <path
       d="m 130,676 c 5.64444,1.44677 12.3731,8.60523 19,11 -6.10224,2.38323 -15.77124,-5.37421 -19,-11 z"
       id="path144"
       style="stroke-width:0.755906;stroke-dasharray:none" />
    <path
       d="m 215,675 c 10.0768,-1.68978 21.41764,2.1769 31,5 -11.87989,4.39957 -24.27286,0.099 -35,-4 0.70831,-1.78542 2.6628,-0.7057 4,-1 z"
       id="path145"
       style="stroke-width:0.755906;stroke-dasharray:none" />
    <path
       d="m 176,674 c 7.59781,1.01064 16.28466,7.78311 26,7 3.50621,3.44494 -18.54547,-0.10699 -15,1 -4.3202,-1.44484 -7.66268,-4.08936 -11,-8 z"
       id="path146"
       style="stroke-width:0.755906;stroke-dasharray:none" />
    <path
       d="m 152,674 c 5.05146,1.92859 12.30114,6.74295 19,8 -1.18666,6.34029 -17.75322,-2.31506 -19,-8 z"
       id="path147"
       style="stroke-width:0.755906;stroke-dasharray:none" />
    <path
       d="m 904,673 c 8.23721,0.16894 13.11315,17.95661 5,24 -2.27445,-7.48025 -4.45016,-15.80649 -5,-24 z"
       id="path148"
       style="stroke-width:0.755906;stroke-dasharray:none" />
    <path
       d="m 876,668 c 6.06556,1.57975 6.51387,16.28224 2,22 -0.90129,-6.81252 -2.98042,-15.19542 -3,-21 z"
       id="path149"
       style="stroke-width:0.755906;stroke-dasharray:none" />
    <path
       d="m 848,668 c 6.83785,-1.29671 4.82471,18.77628 2,5 0.22505,-1.92411 -2.22505,-3.07589 -2,-5 z"
       id="path150"
       style="stroke-width:0.755906;stroke-dasharray:none" />
    <path
       d="m 575,663 c 6.05784,-0.95078 7.06858,10.59331 8,16 1.01203,7.17045 -2.93528,17.08379 -9,18 4.62869,-10.51142 5.16719,-23.11101 1,-34 z"
       id="path151"
       style="stroke-width:0.755906;stroke-dasharray:none" />
    <path
       d="m 113,663 c 4.96537,1.36763 8.41655,17.21755 0,4 0,-1.33333 0,-2.66667 0,-4 z"
       id="path152"
       style="stroke-width:0.755906;stroke-dasharray:none" />
    <path
       d="m 196,660 c 6.67631,0.54535 17.00676,4.41538 22,10 -7.41757,1.43668 -17.86173,-2.69243 -22,-10 z"
       id="path153"
       style="stroke-width:0.755906;stroke-dasharray:none" />
    <path
       d="m 878,651 c 10.30536,-0.35191 21.99217,16.80968 15,27 -4.44121,-9.27395 -7.25383,-19.00006 -15,-27 z"
       id="path154"
       style="stroke-width:0.755906;stroke-dasharray:none" />
    <path
       d="m 548,651 c 4.48506,1.12671 6.88068,13.28246 5,19 -2.06126,11.14248 -4.90577,5.77785 -3,-3 -1.60342,-4.66478 -1.26528,-10.89821 -2,-16 z"
       id="path155"
       style="stroke-width:0.755906;stroke-dasharray:none" />
    <path
       d="m 172,650 c 3.78219,2.66694 18.75954,13.92049 17,11 -6.83057,3.32568 -15.23754,-4.71727 -17,-11 z"
       id="path156"
       style="stroke-width:0.755906;stroke-dasharray:none" />
    <path
       d="m 851,649 c 4.9643,-2.24934 12.20921,18.98946 5,10 -0.46089,-3.8478 -3.60989,-6.55944 -5,-10 z"
       id="path157"
       style="stroke-width:0.755906;stroke-dasharray:none" />
    <path
       d="m 887,647 c 6.8538,0.17303 16.08612,9.54337 18,17 -7.30345,1.6458 -10.88098,-13.27161 -18,-17 z"
       id="path158"
       style="stroke-width:0.755906;stroke-dasharray:none" />
    <path
       d="m 664,647 c 4.47661,1.55967 3.27736,13.82629 7,19 12.3623,4.36915 -3.24886,8.05921 1,16 3.52862,8.23351 -2.8323,11.28733 -10,12 -19.52799,3.36181 -43.86867,4.49494 -59,-9 -7.00906,-10.36308 -12.14036,-21.50396 -14,-34 11.87896,1.69179 28.00044,6.36364 42,3 11.77842,-0.4475 22.83335,-2.66137 33,-7 z"
       id="path159"
       style="stroke-width:0.755906;stroke-dasharray:none" />
    <path
       d="m 152,647 c 3.64234,1.63874 13.28492,10.95833 14,12 -6.63954,0.0538 -13.47179,-5.26185 -14,-12 z"
       id="path160"
       style="stroke-width:0.755906;stroke-dasharray:none" />
    <path
       d="m 131,647 c 1.35363,1.0755 18.92156,11.37911 8,8 -3.81039,-0.16563 -7.83267,-4.19808 -8,-8 z"
       id="path161"
       style="stroke-width:0.755906;stroke-dasharray:none" />
    <path
       d="m 823,642 c 6.85092,-2.37144 9.82907,13.45033 0,0 z"
       id="path162"
       style="stroke-width:0.755906;stroke-dasharray:none" />
    <path
       d="m 198,642 c 3.18097,-0.64627 14.94568,18.29204 4,9 -3.2459,-2.26165 -2.64784,-5.9627 -4,-9 z"
       id="path163"
       style="stroke-width:0.755906;stroke-dasharray:none" />
    <path
       d="m 177,640 c 5.70157,1.61846 12.4911,8.99497 19,12 -2.16674,7.3853 -17.77101,-6.74492 -19,-12 z"
       id="path164"
       style="stroke-width:0.755906;stroke-dasharray:none" />
    <path
       d="m 116,633 c 5.98893,1.29298 1.56777,13.67791 0,1 z"
       id="path165"
       style="stroke-width:0.755906;stroke-dasharray:none" />
    <path
       d="m 855,630 c 8.92866,-2.4228 21.39997,4.7021 24,14 -7.80754,0.32548 -17.33729,-8.29191 -24,-14 z"
       id="path166"
       style="stroke-width:0.755906;stroke-dasharray:none" />
    <path
       d="m 684,628 c 4.83467,1.57177 5.47962,13.16784 8,19 1.94105,11.4023 4.74026,26.7559 -6,34 -2.35084,-7.80181 -10.14727,-10.73749 -2,-18 -0.26586,-7.79612 -6.27533,-18.59879 -5,-27 2.55619,-2.2713 3.53955,-5.31259 5,-8 z"
       id="path167"
       style="stroke-width:0.755906;stroke-dasharray:none" />
    <path
       d="m 228,627 c 3.30094,-2.57391 19.57337,0.37169 13,2 -5.34326,-1.0191 -17.2581,2.22833 -18,-2 1.66667,0 3.33333,0 5,0 z"
       id="path168"
       style="stroke-width:0.755906;stroke-dasharray:none" />
    <path
       d="m 564,626 c 5.5136,-0.45542 7.96781,10.90348 8,17 1.94745,5.25159 -8.30956,19.73935 -6,9 3.20249,-8.50187 -0.52703,-18.1169 -2,-26 z"
       id="path169"
       style="stroke-width:0.755906;stroke-dasharray:none" />
    <path
       d="m 190,622 c 5.76863,1.04542 0.11253,13.73677 0,1 z"
       id="path170"
       style="stroke-width:0.755906;stroke-dasharray:none" />
    <path
       d="m 154,622 c 2.82255,2.03456 6.33615,12.94895 14,14 -6.54233,2.94496 -16.13962,-6.32409 -14,-14 z"
       id="path171"
       style="stroke-width:0.755906;stroke-dasharray:none" />
    <path
       d="m 175,621 c 2.74774,-1.98148 15.69655,15.71207 8,12 -4.04985,-2.55649 -9.05726,-6.42845 -8,-12 z"
       id="path172"
       style="stroke-width:0.755906;stroke-dasharray:none" />
    <path
       d="m 827,617 c 8.48222,-3.42278 22.06474,1.31669 24,9 -8.31562,-2.03749 -16.04368,-6.07402 -24,-9 z"
       id="path173"
       style="stroke-width:0.755906;stroke-dasharray:none" />
    <path
       d="m 535,617 c 6.20336,1.59335 9.61315,14.81751 7,22 -1.83314,-7.53333 -3.36486,-15.19442 -7,-22 z"
       id="path174"
       style="stroke-width:0.755906;stroke-dasharray:none" />
    <path
       d="m 696,615 c 4.83467,1.57177 5.47962,13.16784 8,19 3.95908,8.09507 2.43597,19.94984 9,26 30.02785,7.57574 59.12375,17.40142 85,35 15.70854,11.7165 36.3868,30.64084 26,51 -15.07006,16.01631 -35.55697,18.95519 -56,22 -17.92661,3.24811 -38.49675,2.55535 -56,-1 -5.75089,19.65547 -10.975,39.52914 -22,57 0.28697,-9.95224 8.92372,-19.99619 10,-31 6.9622,-19.77302 10.50504,-40.96238 12,-63 2.85404,-22.66065 -1.0472,-45.4353 -4,-67 -3.88205,-15.8536 -8.12741,-31.5567 -13,-47 z"
       id="path175"
       style="stroke-width:0.755906;stroke-dasharray:none" />
    <path
       d="m 245,615 c 8.29449,-1.62274 18.98048,-0.36663 27,2 -8.32188,2.38407 -19.14891,-0.0151 -27,-2 z"
       id="path176"
       style="stroke-width:0.755906;stroke-dasharray:none" />
    <path
       d="m 140,615 c 1.17454,-0.54747 9.05251,19.5544 1,10 -2.59869,-2.48916 -2.54699,-7.02113 -1,-10 z"
       id="path177"
       style="stroke-width:0.755906;stroke-dasharray:none" />
    <path
       d="m 328,612 c 19.12401,-2.8256 39.53109,-0.0798 58,2 27.793,4.67132 53.69226,13.91451 78,27 8.93408,2.73951 10.87063,8.40543 0,9 -23.57043,8.84181 -48.03494,15.52513 -73,21 -22.50656,4.996 -45.71663,8.2936 -70,9 -28.01795,0.2051 -55.35883,-1.2244 -78,-14 -15.84047,-13.04904 4.01757,-31.5076 17,-36 19.79576,-10.51676 41.60608,-16.16997 65,-18 1,0 2,0 3,0 z"
       id="path178"
       style="stroke-width:0.755906;stroke-dasharray:none" />
    <path
       d="m 269,606 c 7.22924,-2.09366 15.73715,1.25613 24,0 3.86219,5.68914 -18.8064,1.69852 -15,2 -3.03553,-0.37946 -6.40347,-0.60336 -9,-2 z"
       id="path179"
       style="stroke-width:0.755906;stroke-dasharray:none" />
    <path
       d="m 802,605 c 7.02995,-0.67563 17.77649,1.92879 22,9 -6.53477,0.005 -15.91844,-4.65321 -22,-9 z"
       id="path180"
       style="stroke-width:0.755906;stroke-dasharray:none" />
    <path
       d="m 300,600 c 8.60703,-0.86736 19.55536,1.15971 28,4 -8.64797,2.3904 -20.25296,-0.87913 -28,-4 z"
       id="path181"
       style="stroke-width:0.755906;stroke-dasharray:none" />
    <path
       d="m 132,599 c 3.24595,-0.73797 0.42093,14.25051 -1,15 -1.22795,-4.68635 -1.98737,-10.83832 1,-15 z"
       id="path182"
       style="stroke-width:0.755906;stroke-dasharray:none" />
    <path
       d="m 332,598 c 8.88332,-1.54799 18.5165,3.6794 28,4 -1.03237,5.18031 -11.88818,-0.68488 -17,0 -3.35168,-1.88017 -7.77725,-1.74567 -11,-4 z"
       id="path183"
       style="stroke-width:0.755906;stroke-dasharray:none" />
    <path
       d="m 772,595 c 7.32012,-1.13097 16.42552,2.02848 23,6 -7.11504,2.33274 -16.6829,-2.98675 -23,-6 z"
       id="path184"
       style="stroke-width:0.755906;stroke-dasharray:none" />
    <path
       d="m 178,592 c 3.98117,0.32646 -4.5724,11.76847 0,17 -6.8138,2.20318 -4.79248,-14.27296 0,-17 z"
       id="path185"
       style="stroke-width:0.755906;stroke-dasharray:none" />
    <path
       d="m 544,589 c 7.75875,-0.0679 10.5339,12.59343 13,19 0.87178,7.19481 -4.1733,16.63431 -5,5 0.32201,-9.11884 -3.41219,-16.92656 -8,-24 z"
       id="path186"
       style="stroke-width:0.755906;stroke-dasharray:none" />
    <path
       d="m 502,589 c 5.80519,2.03297 8.21338,13.8296 12,20 9.18775,21.40345 16.54895,43.56348 16,69 1.46378,11.51697 -1.38816,24.80056 -4,36 -7.19727,21.80981 -28.41153,41.29895 -50,48 -12.75442,4.67301 -28.37005,7.76101 -42,7 -2.65183,-0.48473 -18.71531,1.60438 -15,-2 13.38814,-1.53434 27.42415,-1.50461 40,-5 23.16673,-5.49187 47.49945,-20.75974 58,-44 7.46511,-15.15018 9.17388,-31.53666 9,-49 -2.29629,-18.84377 -6.69482,-36.81677 -13,-54 -3.38047,-8.77627 -7.12301,-17.43207 -11,-26 z"
       id="path187"
       style="stroke-width:0.755906;stroke-dasharray:none" />
    <path
       d="m 522,588 c 4.92658,0.60005 9.32348,11.86466 8,17 -3.68068,-5.22035 -4.60479,-11.63207 -8,-17 z"
       id="path188"
       style="stroke-width:0.755906;stroke-dasharray:none" />
    <path
       d="m 153,587 c 4.78385,-1.83051 -1.67368,18.96531 -3,11 -0.49974,-4.36033 0.47241,-7.87616 3,-11 z"
       id="path189"
       style="stroke-width:0.755906;stroke-dasharray:none" />
    <path
       d="m 747,585 c 4.90512,-1.11531 17.76828,11.2668 17,7 -6.44867,-0.31098 -11.56918,-4.20132 -17,-7 z"
       id="path190"
       style="stroke-width:0.755906;stroke-dasharray:none" />
    <path
       d="m 664,585 c 7.86123,2.61297 11.17495,15.40182 15,23 -5.79415,2.12948 -13.72876,9.77033 -18,7 0.47692,7.05004 -0.34896,11.80387 1,19 7.15784,10.38066 -7.71593,12.4373 -15,14 -23.28801,4.68664 -51.12497,2.5749 -66,-17 -3.2745,-6.22635 -4.82117,-15.26536 -6,-21 18.73758,6.3818 41.0184,1.71502 59,-3 10.87518,-4.03513 26.60006,-8.97563 30,-22 z"
       id="path191"
       style="stroke-width:0.755906;stroke-dasharray:none" />
    <path
       d="m 725,575 c 6.32448,-3.92505 17.16949,9.23668 5,3 -1.37036,-1.58335 -3.62964,-1.41665 -5,-3 z"
       id="path192"
       style="stroke-width:0.755906;stroke-dasharray:none" />
    <path
       d="m 208,571 c 7.25302,0.58268 -9.18971,8.64317 -10,14 -4.27389,11.3842 -4.24045,-6.50408 3,-9 2.10101,-2.23683 4.70779,-3.20352 7,-5 z"
       id="path193"
       style="stroke-width:0.755906;stroke-dasharray:none" />
    <path
       d="m 178,569 c 6.50283,-0.65183 -14.66881,18.32647 -10,15 -0.15033,-6.2519 4.80698,-11.88842 10,-15 z"
       id="path194"
       style="stroke-width:0.755906;stroke-dasharray:none" />
    <path
       d="m 151,568 c 5.21767,-1.34567 -5.68665,19.73458 -5,9 -0.013,-3.60823 2.91929,-6.23875 5,-9 z"
       id="path195"
       style="stroke-width:0.755906;stroke-dasharray:none" />
    <path
       d="m 239,561 c 12.87884,-2.09257 -14.88036,8.85862 0,0 z"
       id="path196"
       style="stroke-width:0.755906;stroke-dasharray:none" />
    <path
       d="m 698,558 c 3.72541,-3.12214 19.62116,7.67784 12,7 -4.03471,-2.22513 -8.20577,-4.21457 -12,-7 z"
       id="path197"
       style="stroke-width:0.755906;stroke-dasharray:none" />
    <path
       d="m 525,556 c 5.7898,-0.0113 11.6656,10.82001 13,17 1.34012,7.93028 -5.75941,14.85082 -4,3 -1.34703,-7.6286 -4.05047,-13.81147 -9,-20 z"
       id="path198"
       style="stroke-width:0.755906;stroke-dasharray:none" />
    <path
       d="m 503,555 c 6.34386,-1.68181 14.52722,19.14688 5,7 0.0974,-2.86735 -5.09078,-4.12591 -5,-7 z"
       id="path199"
       style="stroke-width:0.755906;stroke-dasharray:none" />
    <path
       d="m 202,554 c 9.49301,-4.9052 -9.12497,15.61405 -9,7 2.77385,-2.82757 5.55261,-5.80755 9,-7 z"
       id="path200"
       style="stroke-width:0.755906;stroke-dasharray:none" />
    <path
       d="m 178,551 c 9.15954,-1.53382 -9.00266,7.87668 -10,13 -7.53447,5.81795 3.07432,-10.66959 8,-13 h 1 z"
       id="path201"
       style="stroke-width:0.755906;stroke-dasharray:none" />
    <path
       d="m 278,549 c 9.1508,-0.88628 -14.49488,7.36379 -11,6 -5.57338,-1.46129 9.0567,-6.61337 11,-6 z"
       id="path202"
       style="stroke-width:0.755906;stroke-dasharray:none" />
    <path
       d="m 641,547 c 7.98231,0.4297 13.44348,12.83751 18,19 6.80017,13.41638 -2.30785,29.58265 -16,33 -13.43026,7.59442 -29.61148,8.54745 -46,9 -13.54445,-2.27438 -30.44913,-5.72964 -35,-21 -2.24914,-4.64723 -14.59963,-16.3323 -3,-13 18.44319,3.04022 37.2141,-1.7237 54,-6 10.08844,-4.88357 22.52569,-9.41779 28,-21 z"
       id="path203"
       style="stroke-width:0.755906;stroke-dasharray:none" />
    <path
       d="m 302,547 c 8.99473,-3.44644 11.79304,2.02636 1,2 -3.13383,1.05382 -6.33954,-2.35276 -1,-2 z"
       id="path204"
       style="stroke-width:0.755906;stroke-dasharray:none" />
    <path
       d="m 372,546 c 6.31388,-4.40933 17.08334,4.70024 5,1 -1.62227,-0.36617 -4.0354,0.90122 -5,-1 z"
       id="path205"
       style="stroke-width:0.755906;stroke-dasharray:none" />
    <path
       d="m 232,546 c 8.93481,-1.42129 -13.95635,11.91105 -11,9 -1.20399,-3.86414 7.55194,-8.20404 11,-9 z"
       id="path206"
       style="stroke-width:0.755906;stroke-dasharray:none" />
    <path
       d="m 332,544 c 4.20431,-1.27867 17.29144,4.56927 17,1 -4.90546,-1.42307 -17.38715,2.59825 -17,-1 z"
       id="path207"
       style="stroke-width:0.755906;stroke-dasharray:none" />
    <path
       d="m 180,542 c 8.96265,-1.66167 -17.14313,13.31821 -5,2 1.92411,0.22505 3.07589,-2.22505 5,-2 z"
       id="path208"
       style="stroke-width:0.755906;stroke-dasharray:none" />
    <path
       d="m 264,534 c 9.00595,-1.11898 -13.85789,12.34543 -11,9 -5.41168,-1.96767 8.76974,-9.5104 11,-9 z"
       id="path209"
       style="stroke-width:0.755906;stroke-dasharray:none" />
    <path
       d="m 209,533 c 8.89189,-1.38912 -8.50596,6.58506 -11,11 -8.5981,12.08092 -5.57746,-3.00121 2,-7 2.84404,-1.56538 5.59614,-3.82958 9,-4 z"
       id="path210"
       style="stroke-width:0.755906;stroke-dasharray:none" />
    <path
       d="m 507,530 c 6.65596,-0.22667 12.7536,12.04745 9,19 -2.87085,-6.38772 -5.16492,-12.99385 -9,-19 z"
       id="path211"
       style="stroke-width:0.755906;stroke-dasharray:none" />
    <path
       d="m 298,526 c 11.76961,-3.99606 -2.19476,6.60046 -7,3 2.14014,-1.25999 4.30601,-3.13519 7,-3 z"
       id="path212"
       style="stroke-width:0.755906;stroke-dasharray:none" />
    <path
       d="m 485,525 c 5.10237,-3.58188 16.71902,17.33199 9,10 -2.63457,-3.52054 -5.53345,-6.81196 -9,-10 z"
       id="path213"
       style="stroke-width:0.755906;stroke-dasharray:none" />
    <path
       d="m 372,523 c 11.79566,-2.87637 1.53256,3.1445 -5,3 -10.15682,5.43897 -1.39646,-4.45481 5,-3 z"
       id="path214"
       style="stroke-width:0.755906;stroke-dasharray:none" />
    <path
       d="m 237,523 c 12.01469,-2.82857 -2.65222,5.04889 -7,7 -4.81185,2.49219 -15.93801,17.76134 -11,5 4.31954,-6.13919 10.68132,-11.01728 18,-12 z"
       id="path215"
       style="stroke-width:0.755906;stroke-dasharray:none" />
    <path
       d="m 211,523 c 12.40864,-3.06102 0.41671,3.85796 -5,6 -11.66308,3.6361 1.34545,-6.77657 5,-6 z"
       id="path216"
       style="stroke-width:0.755906;stroke-dasharray:none" />
    <path
       d="m 687,522 c 3.65647,1.22975 3.16979,12.55871 7,17 -4.81081,0.0874 -7.68483,-11.34772 -7,-17 z"
       id="path217"
       style="stroke-width:0.755906;stroke-dasharray:none" />
    <path
       d="m 336,521 c 10.82395,-2.09323 -12.7295,7.5509 -9,6 -2.14943,-2.90555 6.30126,-6.48371 9,-6 z"
       id="path218"
       style="stroke-width:0.755906;stroke-dasharray:none" />
    <path
       d="m 404,517 c 7.71091,-3.3023 14.57046,1.31749 3,2 -3.84898,1.20447 -10.48286,-2.01014 -3,-2 z"
       id="path219"
       style="stroke-width:0.755906;stroke-dasharray:none" />
    <path
       d="m 263,517 c 6.05175,-3.64976 17.48048,1.45035 5,2 -8.56087,1.68845 -15.42599,8.41332 -20,16 -5.49903,-6.62965 8.59132,-17.50453 15,-18 z"
       id="path220"
       style="stroke-width:0.755906;stroke-dasharray:none" />
    <path
       d="m 243,512 c 12.10096,-2.2933 1.23379,4.31774 -5,5 -9.46604,5.66251 -12.47811,0.97045 -2,-4 2.5808,0.0773 4.09488,-1.72781 7,-1 z"
       id="path221"
       style="stroke-width:0.755906;stroke-dasharray:none" />
    <path
       d="m 374,511 c 5.22616,-3.4379 22.33845,1.07187 8,1 -4.31595,0.61451 -20.47975,5.14537 -11,-1 1,0 2,0 3,0 z"
       id="path222"
       style="stroke-width:0.755906;stroke-dasharray:none" />
    <path
       d="m 617,510 c 7.6479,0.69251 14.51719,12.67078 19,19 7.24114,12.9459 -3.17521,28.3002 -16,32 -21.04604,10.40373 -51.58526,11.58466 -72,-1 -8.56122,-5.24541 -14.74586,-15.96008 -18,-23 23.01945,3.77272 45.07628,-3.01798 65,-10 7.54596,-4.5863 16.89871,-8.88696 22,-17 z"
       id="path223"
       style="stroke-width:0.755906;stroke-dasharray:none" />
    <path
       d="m 296,509 c 4.03954,-2.50562 20.16521,-0.83447 9,2 -10.99636,0.5137 -19.30459,7.5171 -27,16 -5.60906,-6.25143 12.88692,-17.53344 18,-18 z"
       id="path224"
       style="stroke-width:0.755906;stroke-dasharray:none" />
    <path
       d="m 322,507 c 11.90058,-4.24919 4.28448,4.97458 -3,6 -8.2204,11.92554 -8.99017,0.16589 0,-4 1.06413,-0.51184 1.4714,-2.60948 3,-2 z"
       id="path225"
       style="stroke-width:0.755906;stroke-dasharray:none" />
    <path
       d="m 355,506 c 11.79491,-3.05071 4.22263,2.51631 -3,4 -9.70472,6.76483 -11.33986,-1.34253 -1,-4 1.33333,0 2.66667,0 4,0 z"
       id="path226"
       style="stroke-width:0.755906;stroke-dasharray:none" />
    <path
       d="m 272,505 c 10.30152,-4.10102 8.68454,3.81314 -1,3 -9.39436,5.95334 -11.57015,-0.45301 -1,-3 h 1 z"
       id="path227"
       style="stroke-width:0.755906;stroke-dasharray:none" />
    <path
       d="m 387,504 c 4.37035,-2.77657 19.48948,4.23869 7,2 -1.68496,-0.48658 -9.95045,1.39388 -7,-2 z"
       id="path228"
       style="stroke-width:0.755906;stroke-dasharray:none" />
    <path
       d="m 484,501 c 5.31206,-3.67122 16.1093,17.55183 9,10 -2.63457,-3.52054 -5.53345,-6.81196 -9,-10 z"
       id="path229"
       style="stroke-width:0.755906;stroke-dasharray:none" />
    <path
       d="m 296,501 c 7.47558,-3.73887 14.95243,1.99551 3,2 -6.43545,6.70326 -15.39027,2.959 -3,-2 z"
       id="path230"
       style="stroke-width:0.755906;stroke-dasharray:none" />
    <path
       d="m 739,499 c 18.47774,-2.5473 38.78824,-0.82913 56,3 10.84934,1.01692 8.07345,6.4187 -1,2 -13.94954,-0.73407 -29.92733,-2.86133 -42,-2 -9.25571,-0.63214 -21.20359,0.64003 -31,2 -0.067,-3.22812 13.23881,-4.93842 18,-5 z"
       id="path231"
       style="stroke-width:0.755906;stroke-dasharray:none" />
    <path
       d="m 364,499 c 8.80048,-3.91357 12.13788,2.79839 1,2 -6.22874,1.27422 -10.09966,-2.79246 -1,-2 z"
       id="path232"
       style="stroke-width:0.755906;stroke-dasharray:none" />
    <path
       d="m 336,496 c 10.12725,-1.23193 6.42007,3.6602 -3,2 -9.04861,4.58162 -11.91941,-1.34532 -1,-2 1.33333,0 2.66667,0 4,0 z"
       id="path233"
       style="stroke-width:0.755906;stroke-dasharray:none" />
    <path
       d="m 594,480 c 6.8379,-0.0283 12.85285,11.19587 16,17 8.8308,12.22832 -6.13902,23.84776 -17,27 -16.32042,7.28323 -37.00482,8.38066 -56,6 -12.83734,-2.93757 -25.74513,-11.4519 -32,-24 10.7311,1.71444 25.0598,0.74222 36,-3 18.7127,-5.13346 37.80963,-9.389 53,-23 z"
       id="path234"
       style="stroke-width:0.755906;stroke-dasharray:none" />
    <path
       d="m 549,464 c 6.34926,-1.27663 8.79358,13.34715 17,9 6.73146,9.70579 15.29851,-3.74673 21,-5 7.86239,12.9303 -11.60878,22.10649 -21,25 -18.94407,7.58317 -44.9256,10.20202 -65,3 -10.36221,-4.82775 -18.34252,-15.96487 -25,-25 8.2834,0.78123 18.29239,5.74514 29,4 15.87781,-0.29318 30.128,-5.82574 44,-11 z"
       id="path235"
       style="stroke-width:0.755906;stroke-dasharray:none" />
    <path
       d="m 567,449 c 9.51329,-0.76305 11.31648,13.34908 1,13 -3.43212,-4.80534 -7.25505,-8.36476 -1,-13 z"
       id="path236"
       style="stroke-width:0.755906;stroke-dasharray:none" />
    <path
       d="m 528,435 c 7.41426,-1.98064 9.65477,10.93566 15,15 4.65647,6.33313 10.34927,13.26019 -1,15 -18.40145,6.01759 -41.72665,7.06505 -60,0 -13.85421,-4.02036 -26.40974,-14.43891 -35,-27 8.38493,0.53099 18.67554,4.83936 29,4 17.59422,3.1333 36.40312,-2.02493 52,-7 z"
       id="path237"
       style="stroke-width:0.755906;stroke-dasharray:none" />
    <path
       d="m 412,425 c 6.63188,-0.26928 7.04284,14.52457 15,17 3.11339,7.13848 -12.60246,-4.84431 -13,-10 0.1353,-2.6443 -1.6046,-4.54988 -2,-7 z"
       id="path238"
       style="stroke-width:0.755906;stroke-dasharray:none" />
    <path
       d="m 546,423 c 7.57335,1.75301 17.6542,12.94428 18,22 -2.88485,12.17254 -8.53665,-2.78305 -13,-7 -0.57654,-5.18739 -12.05329,-10.68238 -5,-15 z"
       id="path239"
       style="stroke-width:0.755906;stroke-dasharray:none" />
    <path
       d="m 390,413 c 4.36019,1.51642 9.87297,14.57899 11,15 -6.25073,-2.51838 -10.327,-8.48779 -11,-15 z"
       id="path240"
       style="stroke-width:0.755906;stroke-dasharray:none" />
    <path
       d="m 423,401 c 10.69778,0.58673 21.34391,9.80812 34,9 16.16447,3.07608 33.0852,-0.73288 48,-4 4.7945,1.0616 7.60799,16.61118 17,12 0.16844,5.56366 13.07916,14.76317 2,16 -18.27637,7.38244 -43.1412,6.34131 -62,1 -15.9292,-6.66977 -31.06769,-17.54015 -39,-34 z"
       id="path241"
       style="stroke-width:0.755906;stroke-dasharray:none" />
    <path
       d="m 523,394 c 7.38736,3.30323 16.87278,14.17683 19,23 -0.52063,11.33622 -7.09914,-6.71599 -13,-6 -8.97484,2.77695 -7.89933,-15.11094 -9,-14 1,-1 2,-2 3,-3 z"
       id="path242"
       style="stroke-width:0.755906;stroke-dasharray:none" />
    <path
       d="m 369,385 c 4.63044,1.30624 1.27786,11.63598 4,17 5.37358,6.90466 9.45281,16.28362 -1,6 -5.08964,-6.84482 -6.34426,-14.88623 -3,-23 z"
       id="path243"
       style="stroke-width:0.755906;stroke-dasharray:none" />
    <path
       d="m 530,383 c 10.21731,3.01782 22.02943,16.53205 24,28 -3.78144,9.11375 -11.72909,-14.55143 -9,-11 -3.49813,-6.26349 -11.55504,-10.72416 -15,-17 z"
       id="path244"
       style="stroke-width:0.755906;stroke-dasharray:none" />
    <path
       d="m 391,380 c 2.32383,0.79888 0.61192,12.70353 5,17 10.22419,10.48241 -3.73605,5.60449 -7,-2 0.56786,-5.00324 -1.54354,-11.27306 2,-15 z"
       id="path245"
       style="stroke-width:0.755906;stroke-dasharray:none" />
    <path
       d="m 506,366 c 5.24251,2.17193 11.50501,12.34534 14,19 2.4292,8.38621 -5.62835,14.176 -8,3 -2.48447,-7.25716 -14.63777,-9.55363 -9,-19 1,-1 2,-2 3,-3 z"
       id="path246"
       style="stroke-width:0.755906;stroke-dasharray:none" />
    <path
       d="m 404,365 c 6.78527,-0.13381 13.91609,7.51528 21,10 12.75637,5.94519 29.05213,3.34556 44,4 6.08454,-0.67564 13.19456,-3.98659 19,-2 -1.07743,10.14165 9.85928,7.29468 11,15 3.72571,6.5628 8.91086,13.27871 -2,14 -22.01749,3.23113 -46.57022,3.11718 -65,-8 -13.95975,-5.41353 -23.14367,-20.25248 -28,-33 z"
       id="path247"
       style="stroke-width:0.755906;stroke-dasharray:none" />
    <path
       d="m 534,362 c 7.51414,2.40989 13.21015,13.89685 15,22 -1.18919,11.61974 -4.05292,4.57132 -6,-3 -2.49367,-6.52771 -6.50672,-12.47307 -9,-19 z"
       id="path248"
       style="stroke-width:0.755906;stroke-dasharray:none" />
    <path
       d="m 382,357 c 4.89655,2.519 8.43515,14.28078 16,19 2.91203,7.68929 -12.65143,-3.70452 -13,-9 -0.82028,-3.37668 -2.68828,-6.42147 -3,-10 z"
       id="path249"
       style="stroke-width:0.755906;stroke-dasharray:none" />
    <path
       d="m 512,353 c 6.20585,2.21141 16.41935,13.23439 14,21 -4.73965,6.49662 -5.80799,-9.80218 -10,-13 -0.8526,-2.68903 -3.60965,-5.08938 -4,-8 z"
       id="path250"
       style="stroke-width:0.755906;stroke-dasharray:none" />
    <path
       d="m 353,347 c 6.7003,1.78708 -2.63773,13.17596 -1,20 -1.02538,7.73747 4.69954,14.77148 4,21 -12.72687,-10.14611 -13.00501,-29.42386 -3,-41 z"
       id="path251"
       style="stroke-width:0.755906;stroke-dasharray:none" />
    <path
       d="m 375,346 c 4.55446,0.87572 -2.49783,11.4242 -1,17 -2.10476,5.74529 -4.17327,17.61847 0,17 -11.02128,-9.15966 -6.73069,-23.74662 1,-33 z"
       id="path252"
       style="stroke-width:0.755906;stroke-dasharray:none" />
    <path
       d="m 520,335 c 8.58866,3.1347 12.30199,16.44309 11,27 -4.27122,3.8192 -6.2434,-13.9922 -6,-13 -1.9611,-4.49178 -3.68808,-9.24757 -5,-14 z"
       id="path253"
       style="stroke-width:0.755906;stroke-dasharray:none" />
    <path
       d="m 393,329 c 7.67909,3.65839 17.308,10.89477 27,13 19.12719,7.17577 43.98745,7.57621 65,4 6.10531,-3.48199 14.28951,-8.15089 17,2 5.12426,3.26843 4.05437,17.9681 0,15 1.39744,-9.43329 -7.08737,-10.44361 -13,-12 1.25796,6.36025 -2.49234,14.16192 -1,22 -14.21915,5.22644 -33.08511,3.17604 -48,1 -17.85127,-4.24177 -37.46672,-14.47744 -45,-33 -1.16799,-3.79787 -2.45992,-7.54036 -2,-12 z"
       id="path254"
       style="stroke-width:0.755906;stroke-dasharray:none" />
    <path
       d="m 374,317 c 3.88194,1.1467 2.15369,12.96983 7,17 6.79085,7.05534 7.83067,15.74233 -2,5 -4.6217,-5.91895 -8.18317,-14.21931 -5,-22 z"
       id="path255"
       style="stroke-width:0.755906;stroke-dasharray:none" />
    <path
       d="m 311,313 c 4.55334,2.17714 7.12717,13.55493 7,21 -0.98114,8.83822 -7.08211,-15.03454 -7,-11 0,-3.33333 0,-6.66667 0,-10 z"
       id="path256"
       style="stroke-width:0.755906;stroke-dasharray:none" />
    <path
       d="m 339,310 c 3.34267,0.56746 2.29472,13.57519 1,19 -5.52922,12.86521 -1.39003,27.494 0,41 -5.58933,-2.17117 -7.26481,-14.32466 -10,-21 -0.82311,-14.74058 0.38596,-28.12531 9,-39 z"
       id="path257"
       style="stroke-width:0.755906;stroke-dasharray:none" />
    <path
       d="m 531,309 c 9.57214,2.37011 12.26314,18.08218 8,27 -0.0536,11.3729 -9.10171,5.58801 -5,-3 1.86104,-7.73461 1.89275,-17.80674 -3,-24 z"
       id="path258"
       style="stroke-width:0.755906;stroke-dasharray:none" />
    <path
       d="m 506,305 c 5.91323,1.26978 8.33527,12.25023 9,19 0.18459,5.06526 -8.72133,18.45964 -7,7 4.31096,-8.97645 0.32417,-17.40009 -2,-26 z"
       id="path259"
       style="stroke-width:0.755906;stroke-dasharray:none" />
    <path
       d="m 611,300 c 11.3471,2.60071 23.55419,11.54374 38,10 8.21766,-4.33622 14.92414,-5.21804 5,4 -12.0354,9.05139 -30.88741,4.46985 -40,-6 -1.62779,-2.57376 -8.20524,-5.17974 -3,-8 z"
       id="path260"
       style="stroke-width:0.755906;stroke-dasharray:none" />
    <path
       d="m 367,300 c 7.23845,1.21875 -1.56218,12.62432 -4,17 -5.17942,10.08881 -2.27958,24.99532 -2,35 -13.44879,-13.85892 -7.83256,-35.6892 5,-48 -0.78506,-1.92026 1.28344,-2.37204 1,-4 z"
       id="path261"
       style="stroke-width:0.755906;stroke-dasharray:none" />
    <path
       d="m 655,296 c 7.10425,-1.00857 -1.56229,13.46136 -8,11 -13.31987,0.95999 -0.56252,-6.29098 4,-7 1.33333,-1.33333 2.66667,-2.66667 4,-4 z"
       id="path262"
       style="stroke-width:0.755906;stroke-dasharray:none" />
    <path
       d="m 389,292 c 6.56022,2.6251 13.69693,12.25664 22,14 16.36686,9.88556 35.31096,13.54911 56,13 8.19034,-2.97555 10.02452,14.08584 12,8 2.93737,-5.54535 2.4813,-16.50396 11,-12 5.22105,7.89529 9.05781,23.39762 -4,27 -16.6243,7.52126 -38.93861,3.62632 -56,0 -21.19309,-4.89129 -43.20849,-23.37088 -41,-48 v -1 z"
       id="path263"
       style="stroke-width:0.755906;stroke-dasharray:none" />
    <path
       d="m 369,282 c 5.47958,-0.85462 2.78022,12.11451 7,16 5.53072,7.09274 3.74573,16.63567 -3,5 -6.26141,-5.92313 -4.23971,-13.11371 -4,-21 z"
       id="path264"
       style="stroke-width:0.755906;stroke-dasharray:none" />
    <path
       d="m 541,281 c 4.11667,4.64543 8.58067,5.87343 6,12 0.33351,6.66356 -0.86445,14.16644 -5,18 -3.36699,-6.44477 4.40129,-16.7665 0,-25 0.7021,-2.2056 -1.7021,-2.7944 -1,-5 z"
       id="path265"
       style="stroke-width:0.755906;stroke-dasharray:none" />
    <path
       d="m 638,280 c 4.69322,0.9526 8.02361,10.19763 4,16 0.94851,6.73866 -14.11099,9.79972 -12,2 4.06363,-4.32263 -4.26798,-18.74662 2,-15 3.0079,6.06094 6.77109,15.82385 6,3 0,-2 0,-4 0,-6 z"
       id="path266"
       style="stroke-width:0.755906;stroke-dasharray:none" />
    <path
       d="m 595,279 c 7.71217,-2.42545 10.59665,10.67886 14,16 -5.36123,9.37421 -8.86309,-7.55777 -13,-11 -0.27995,-1.74074 -1.6002,-2.85279 -1,-5 z"
       id="path267"
       style="stroke-width:0.755906;stroke-dasharray:none" />
    <path
       d="m 306,277 c 3.38394,0.9577 2.92168,12.13916 2,17 -2.13885,3.24509 -2.12208,19.57124 -5,13 -3.20439,-10.15603 -2.79646,-21.19792 3,-30 z"
       id="path268"
       style="stroke-width:0.755906;stroke-dasharray:none" />
    <path
       d="m 333,269 c 1.78626,0.18823 3.66656,12.77835 0,17 -4.56412,10.9616 -7.38154,22.6467 -11,34 -9.60079,-16.87217 -1.07638,-37.98676 11,-51 z"
       id="path269"
       style="stroke-width:0.755906;stroke-dasharray:none" />
    <path
       d="m 360,266 c 4.66054,2.4573 3.64781,11.49085 -3,16 -4.85558,8.33178 -9.71439,19.2116 -5,29 -8.30162,-0.01 -9.55855,-15.55688 -7,-23 2.34827,-8.38927 8.37171,-15.37774 15,-22 z"
       id="path270"
       style="stroke-width:0.755906;stroke-dasharray:none" />
    <path
       d="m 554,260 c 4.45065,1.43543 1.40897,14.48268 -1,19 -6.44806,16.05724 2.73468,-27.44663 0,-11 1.3091,-2.40025 1.02857,-5.0176 1,-8 z"
       id="path271"
       style="stroke-width:0.755906;stroke-dasharray:none" />
    <path
       d="m 613,257 c 4.36827,1.39821 4.62949,12.88844 8,18 2.73976,2.76734 5.37092,19.83407 0,13 -2.64688,-6.04407 -1.98975,-13.73019 -7,-18 -0.62215,-4.24067 -1.41911,-8.27846 -1,-13 z"
       id="path272"
       style="stroke-width:0.755906;stroke-dasharray:none" />
    <path
       d="m 390,257 c 5.16712,1.70522 10.0741,13.51906 18,15 15.18675,9.43477 30.50461,18.55301 49,20 7.77482,1.37186 10.56027,14.12979 16,14 8.71971,-3.60457 3.68918,-16.36884 13,-17 7.67531,10.17665 1.92676,26.24728 -12,26 -14.75541,3.70574 -29.53557,-0.62038 -44,-3 -21.77735,-5.90179 -43.71735,-26.48365 -40,-52 0,-1 0,-2 0,-3 z"
       id="path273"
       style="stroke-width:0.755906;stroke-dasharray:none" />
    <path
       d="m 582,256 c 8.2043,-2.57751 23.4038,16.60984 10,19 -4.39771,-5.75037 -10.3189,-11.34072 -10,-19 z"
       id="path274"
       style="stroke-width:0.755906;stroke-dasharray:none" />
    <path
       d="m 534,256 c 4.41818,0.90204 -0.40211,12.62756 -2,17 -2.49137,7.86195 -11.16706,11.38711 -9,21 -1.93271,9.27029 -9.91307,10.70197 -5,0 3.30569,-8.52133 -2.50754,-17.76177 -2,-25 5.20824,3.0076 4.6864,20.21634 9,9 4.25671,-6.77717 8.34673,-13.74123 9,-22 z"
       id="path275"
       style="stroke-width:0.755906;stroke-dasharray:none" />
    <path
       d="m 514,254 c 4.24295,1.30949 -3.98101,12.29184 -6,17 -7.69045,6.29492 -3.495,14.67111 -3,23 -2.68185,5.85827 -5.28252,16.70937 -11,18 3.7658,-9.79771 5.97705,-21.97402 6,-32 -4.80163,-4.9699 2.68925,-6.15494 6,-12 3.02045,-4.52727 5.27258,-9.36934 8,-14 z"
       id="path276"
       style="stroke-width:0.755906;stroke-dasharray:none" />
    <path
       d="m 372,248 c 3.83568,1.04177 2.80371,12.4096 6,17 9.45999,10.21428 -4.02217,8.00226 -6,-1 -2.0395,-5.44381 -1.32853,-10.56129 0,-16 z"
       id="path277"
       style="stroke-width:0.755906;stroke-dasharray:none" />
    <path
       d="m 300,237 c 4.70955,0.94998 0.96816,12.9215 -1,17 -1.99571,7.68195 -0.39077,18.3768 -5,24 -5.33863,-13.67387 -0.76235,-29.7278 6,-41 z"
       id="path278"
       style="stroke-width:0.755906;stroke-dasharray:none" />
    <path
       d="m 360,236 c 6.90245,1.60186 -6.32787,11.3768 -7,17 -3.48725,5.41333 -2.66306,17.64743 -8,19 -8.80587,-13.27065 3.29492,-29.15239 15,-36 z"
       id="path279"
       style="stroke-width:0.755906;stroke-dasharray:none" />
    <path
       d="m 329,233 c 2.56339,5.71498 9.98325,2.03416 3,11 -6.5948,12.08696 -13.0479,24.23261 -18,37 -7.17124,-9.92219 -1.39569,-24.27725 4,-33 3.0873,-5.25193 7.44447,-9.9463 11,-15 z"
       id="path280"
       style="stroke-width:0.755906;stroke-dasharray:none" />
    <path
       d="m 401,223 c 3.8434,1.51313 2.91413,13.55052 10,17 14.51389,12.11639 30.60201,20.43223 47,28 6.52559,6.19852 12.72254,17.61501 21,8 4.03214,-4.80594 3.63293,-18.60881 9,-7 5.04307,12.95497 -7.64566,22.02539 -20,20 -24.03393,0.12929 -44.56182,-8.20573 -62,-24 -9.89247,-10.82419 -9.90837,-28.6835 -5,-42 z"
       id="path281"
       style="stroke-width:0.755906;stroke-dasharray:none" />
    <path
       d="m 634,221 c 5.04464,1.92638 6.06049,13.89366 9,20 4.57534,14.50924 7.45837,29.71944 15,43 -5.5918,-2.23707 -10.80135,-13.03397 -13,-20 -3.94829,-14.21608 -6.39894,-29.05668 -11,-43 z"
       id="path282"
       style="stroke-width:0.755906;stroke-dasharray:none" />
    <path
       d="m 377,220 c 3.80017,0.83724 0.87795,12.21185 5,17 10.08112,-8.53217 1.11818,9.57523 -1,4 -8.12808,5.65867 -3.77354,-5.86219 -6,-12 -0.67777,-3.65396 0.8635,-6.10941 2,-9 z"
       id="path283"
       style="stroke-width:0.755906;stroke-dasharray:none" />
    <path
       d="m 566,218 c 7.11826,-1.24573 13.89397,10.74407 18,16 3.9408,6.34636 9.5536,14.16955 9,21 -10.48877,-1.21513 -18.42357,-8.10007 -22,-18 -5.98177,-6.05335 -8.54455,-10.98528 -5,-19 z"
       id="path284"
       style="stroke-width:0.755906;stroke-dasharray:none" />
    <path
       d="m 615,214 c 6.7507,2.44247 9.80855,14.75724 13,22 0.64519,7.13369 2.33655,15.99641 0,23 -3.60344,-14.16426 -5.45353,-29.05478 -12,-42 0.80474,-1.4714 -1.80474,-1.5286 -1,-3 z"
       id="path285"
       style="stroke-width:0.755906;stroke-dasharray:none" />
    <path
       d="m 413,208 c 4.20408,1.61161 7.55847,13.37398 15,16 16.8721,11.78018 29.7084,33.30364 52,32 8.44318,-1.17717 9.9291,-11.25 16,-15 4.29748,9.80342 -7.66523,21.37672 -19,20 -20.86486,0.11164 -39.46908,-5.23437 -55,-18 -9.14974,-9.15813 -14.24075,-22.46643 -9,-35 z"
       id="path286"
       style="stroke-width:0.755906;stroke-dasharray:none" />
    <path
       d="m 697,205 c 9.85936,-4.97036 9.05447,4.41464 4,10 -3.02618,6.34708 -7.91841,13.48401 -13,18 0.15635,-8.5977 6.95685,-18.80541 9,-28 z"
       id="path287"
       style="stroke-width:0.755906;stroke-dasharray:none" />
    <path
       d="m 739,204 c 9.85936,-4.97036 9.05447,4.41464 4,10 -2.92397,7.16169 -6.51589,19.0331 -14,21 3.48902,-10.32391 8.99159,-19.63155 10,-31 z"
       id="path288"
       style="stroke-width:0.755906;stroke-dasharray:none" />
    <path
       d="m 305,203 c 4.06068,0.94826 -2.01533,12.19938 -3,17 -1.91666,3.49697 -8.16869,20.06853 -10,11 0.35347,-10.98051 5.69473,-19.90022 13,-28 z"
       id="path289"
       style="stroke-width:0.755906;stroke-dasharray:none" />
    <path
       d="m 335,201 c 9.58826,-1.5913 -7.31202,9.73526 -10,14 -6.26018,8.67328 -11.17844,17.9024 -14,28 -5.21706,-14.10337 3.50189,-31.67053 17,-38 2.07206,-1.8555 4.9332,-2.14709 7,-4 z"
       id="path290"
       style="stroke-width:0.755906;stroke-dasharray:none" />
    <path
       d="m 366,198 c 4.56773,1.39822 -11.6317,8.5718 -12,15 -3.52615,8.29065 1.42848,18.43371 2,25 -9.7275,2.63361 -9.38919,-13.31972 -9,-21 1.95338,-9.28038 10.30896,-16.32333 19,-19 z"
       id="path291"
       style="stroke-width:0.755906;stroke-dasharray:none" />
    <path
       d="m 577,194 c 5.07601,-2.39072 7.96996,18.09486 9,11 -0.6277,-12.38731 7.16671,-1.57219 6,5 4.00245,17.99898 3.70339,37.77971 12,54 4.62115,11.04658 8.37435,21.59621 18,30 7.29562,10.62797 -3.84693,7.17689 -9,1 -2.8817,-10.57519 -12.23841,-16.68594 -13,-28 -6.8845,-8.43167 -2.73084,-19.80607 -9,-29 -6.90653,-11.46274 -10.34035,-24.36393 -12,-38 -1.72647,-1.55751 -0.65469,-4.20413 -2,-6 z"
       id="path292"
       style="stroke-width:0.755906;stroke-dasharray:none" />
    <path
       d="m 749,192 c 11.59366,-6.5444 7.20708,10.13993 2,2 l -1,-1 z"
       id="path293"
       style="stroke-width:0.755906;stroke-dasharray:none" />
    <path
       d="m 540,191 c 8.97233,0.61184 18.56972,11.15313 25,19 1.97138,6.5929 -6.96506,17.16818 -11,6 -5.56907,-7.47475 -18.22798,-14.94369 -14,-25 z"
       id="path294"
       style="stroke-width:0.755906;stroke-dasharray:none" />
    <path
       d="m 392,191 c 4.73507,-2.05774 -5.32585,10.98218 0,16 -1.51925,9.99659 -7.12977,0.31608 -6,-7 1.54932,-3.2572 2.48298,-6.53425 6,-9 z"
       id="path295"
       style="stroke-width:0.755906;stroke-dasharray:none" />
    <path
       d="m 425,188 c 3.95038,1.23069 3.33818,12.78438 8,17 17.78776,16.14555 35.87731,31.56253 61,30 -1.58281,4.59775 -14.30073,0.79001 -20,1 -20.04132,-2.14631 -39.5384,-14.58662 -50,-33 -1.22795,-4.68635 -1.98737,-10.83832 1,-15 z"
       id="path296"
       style="stroke-width:0.755906;stroke-dasharray:none" />
    <path
       d="m 553,181 c 6.24094,2.34889 10.99301,13.81523 16,20 2.00563,4.78316 2.78243,18.37825 7,17 -12.92045,-10.44048 -18.39629,-23.1241 -23,-37 z"
       id="path297"
       style="stroke-width:0.755906;stroke-dasharray:none" />
    <path
       d="m 466,181 c 7.53696,3.51657 16.05982,12.96913 26,14 8.97764,1.86983 11.72629,7.46671 1,3 -10.48407,-1.72703 -21.94639,-6.57858 -27,-17 z"
       id="path298"
       style="stroke-width:0.755906;stroke-dasharray:none" />
    <path
       d="m 439,174 c 5.9096,2.46659 9.08942,14.63318 16,20 9.97211,14.6473 27.3526,17.29459 42,23 -16.01942,1.32732 -32.31408,-5.54995 -44,-18 -5.48412,-7.98188 -10.59681,-16.15584 -14,-25 z"
       id="path299"
       style="stroke-width:0.755906;stroke-dasharray:none" />
    <path
       d="m 319,174 c 5.71814,-0.66458 -9.61063,9.72111 -11,15 -4.2492,12.19188 -6.06935,-0.69733 -1,-6 3.67739,-3.76693 7.34642,-7.63122 12,-9 z"
       id="path300"
       style="stroke-width:0.755906;stroke-dasharray:none" />
    <path
       d="m 376,172 c 9.62361,-1.01694 -10.01147,4.34931 -9,11 -1.64583,12.92187 -9.61237,-0.0767 -1,-5 2.83753,-3.07912 5.98016,-5.78583 10,-6 z"
       id="path301"
       style="stroke-width:0.755906;stroke-dasharray:none" />
    <path
       d="m 346,172 c 11.15877,-1.67306 -6.58415,4.26892 -9,9 -4.2634,2.51574 -9.16636,20.02266 -11,11 2.04474,-9.4477 11.08437,-17.26233 20,-20 z"
       id="path302"
       style="stroke-width:0.755906;stroke-dasharray:none" />
    <path
       d="m 748,170 c 8.22491,-4.09098 22.44476,2.25782 15,12 -3.63857,6.62586 -17.67771,4.76282 -22,1 4.45013,-3.77344 -0.29374,-14.36735 7,-13 z"
       id="path303"
       style="stroke-width:0.755906;stroke-dasharray:none" />
    <path
       d="m 526,167 c 13.39714,-0.67209 22.49427,16.57676 29,27 -3.87337,4.10585 -13.57286,-14.14438 -18,-6 -4.53253,-6.54025 -9.85694,-13.07405 -11,-21 z"
       id="path304"
       style="stroke-width:0.755906;stroke-dasharray:none" />
    <path
       d="m 722,163 c 12.32725,-5.61373 26.46976,15.12172 12,23 -10.65615,-0.66497 -17.22397,8.54018 -27,10 -9.63467,1.44631 -24.67809,-3.08857 -19,-15 6.9119,-6.52413 15.99559,-1.16599 23,1 6.65256,-2.35317 16.08105,-12.17375 11,-19 z"
       id="path305"
       style="stroke-width:0.755906;stroke-dasharray:none" />
    <path
       d="m 677,162 c 8.10184,-3.06614 22.35,5.27578 21,14 -7.48903,-1.25087 -17.11086,3.86975 -13,12 -9.31245,2.92695 -24.3904,-2.18316 -21,-15 2.11646,-4.62025 7.04103,-11.44843 13,-11 z"
       id="path306"
       style="stroke-width:0.755906;stroke-dasharray:none" />
    <path
       d="m 499,162 c 7.79722,-10.58076 16.34872,30.29057 13,13 -4.71393,-2.81391 -9.88022,-8.55143 -13,-13 z"
       id="path307"
       style="stroke-width:0.755906;stroke-dasharray:none" />
    <path
       d="m 514,161 c 10.97722,-0.13052 11.17814,15.94126 17,23 7.992,11.45141 -2.73411,6.59018 -8,-1 -4.76732,-6.33703 -9.27058,-13.60077 -9,-22 z"
       id="path308"
       style="stroke-width:0.755906;stroke-dasharray:none" />
    <path
       d="m 649,159 c 4.05192,-1.34923 18.90529,-1.52836 14,5 -4.80296,5.60552 3.12741,21.71609 -9,19 -8.2862,-2.05812 -24.6209,1.64854 -22,-12 0.0656,-9.7279 9.08878,-11.23103 17,-12 z"
       id="path309"
       style="stroke-width:0.755906;stroke-dasharray:none" />
    <path
       d="m 330,154 c 6.12352,-0.9122 -10.76567,18.50487 -6,7 2.22373,-2.27252 3.24043,-4.92762 6,-7 z"
       id="path310"
       style="stroke-width:0.755906;stroke-dasharray:none" />
    <path
       d="m 750,153 c 6.68595,-2.19325 18.31235,12.07015 13,17 -6.77753,-2.38147 -12.03254,-4.29326 -11,-13 -2.27614,-0.66667 0.27614,-3.33333 -2,-4 z"
       id="path311"
       style="stroke-width:0.755906;stroke-dasharray:none" />
    <path
       d="m 684,152 c 6.29969,-2.18768 11.38129,7.02876 19,5 6.89698,3.05107 11.47324,14.77657 4,19 -7.21516,1.43392 -4.82776,-12.3721 -14,-13 -0.48695,-5.86564 -1.40153,-7.25359 -7,-2 -5.28008,0.36606 -0.61963,-8.38906 -2,-9 z"
       id="path312"
       style="stroke-width:0.755906;stroke-dasharray:none" />
    <path
       d="m 388,149 c 8.99666,-1.0998 -8.4077,5.06326 -11,9 -5.36041,-1.73197 8.81818,-9.46787 11,-9 z"
       id="path313"
       style="stroke-width:0.755906;stroke-dasharray:none" />
    <path
       d="m 723,146 c 9.99341,-1.63239 24.76749,2.48154 26,15 5.18904,9.08105 -9.69617,9.87533 -13,3 -7.27182,-5.37725 -19.47097,-2.16263 -24,-10 -10.66507,0.11306 7.43471,-10.46352 11,-8 z"
       id="path314"
       style="stroke-width:0.755906;stroke-dasharray:none" />
    <path
       d="m 673,144 c 6.64215,0.47367 -0.0645,15.6339 -7,11 3.53196,-3.12742 6.08794,-6.81808 7,-11 z"
       id="path315"
       style="stroke-width:0.755906;stroke-dasharray:none" />
    <path
       d="m 617,142 c 5.8695,-0.014 10.92306,11.5575 17,15 -2.35353,3.37088 -6.86246,10.65723 -5,18 -4.73761,7.58936 -17.2877,3.22453 -24,1 -6.34347,-12.30954 -1.59896,-28.96546 12,-34 z"
       id="path316"
       style="stroke-width:0.755906;stroke-dasharray:none" />
    <path
       d="m 572,142 c 6.364,-0.71081 5.32396,12.19557 11,16 2.38425,8.82695 15.9023,13.04109 18,19 -12.6189,-2.83918 -26.03639,-3.75038 -36,-13 -2.88373,-7.46598 1.40303,-16.73588 7,-22 z"
       id="path317"
       style="stroke-width:0.755906;stroke-dasharray:none" />
    <path
       d="m 361,142 c 10.83363,-2.10518 -12.82354,7.32983 -9,6 -11.42725,5.13796 5.16849,-8.28886 9,-6 z"
       id="path318"
       style="stroke-width:0.755906;stroke-dasharray:none" />
    <path
       d="m 499,136 c 9.57779,3.40127 19.22414,15.15682 30,19 3.07842,3.04453 19.88843,11.84536 10,11 -15.86546,-2.96235 -32.90564,-14.67338 -40,-30 z"
       id="path319"
       style="stroke-width:0.755906;stroke-dasharray:none" />
    <path
       d="m 701,134 c 10.92784,-2.54267 26.60968,-2.01256 31,10 -10.83244,2.12838 -23.48819,-0.14508 -31,10 -11.28898,2.26286 -3.68376,-12.7402 -12,-12 -1.43272,-4.06726 8.16584,-8.47721 12,-8 z"
       id="path320"
       style="stroke-width:0.755906;stroke-dasharray:none" />
    <path
       d="m 723,132 c 12.43186,-3.9296 23.59009,7.82928 31,17 -6.72061,-0.8752 -18.88485,-0.71419 -21,-10 -2.66323,-4.35851 -6.85199,-3.9937 -10,-7 z"
       id="path321"
       style="stroke-width:0.755906;stroke-dasharray:none" />
    <path
       d="m 656,132 c 10.79386,-3.02727 3.22617,16.34764 -2,3 2.09763,-0.40728 -0.0976,-2.59272 2,-3 z"
       id="path322"
       style="stroke-width:0.755906;stroke-dasharray:none" />
    <path
       d="m 593,131 c 7.45031,-1.55823 18.43555,0.63136 23,7 -10.74935,7.34801 -15.918,17.88146 -17,30 -11.26905,-5.06183 -27.61503,-22.01082 -16,-34 3.29628,-0.91896 6.16886,-3.37631 10,-3 z"
       id="path323"
       style="stroke-width:0.755906;stroke-dasharray:none" />
    <path
       d="m 534,129 c 7.82096,-0.0704 8.35039,13.75385 16,18 6.23629,4.48664 14.79191,9.67794 9,18 -10.44246,-5.77712 -24.65635,-8.93643 -31,-20 -0.46146,-6.3242 1.50262,-11.75664 6,-16 z"
       id="path324"
       style="stroke-width:0.755906;stroke-dasharray:none" />
    <path
       d="m 641,125 c 10.22237,-3.03917 -4.73339,6.40208 -1,13 2.99639,12.98693 23.11129,12.71449 27,0 3.61538,12.42304 -16.09097,18.94439 -24,10 -7.44221,-6.28949 -10.70581,-15.08607 -2,-23 z"
       id="path325"
       style="stroke-width:0.755906;stroke-dasharray:none" />
    <path
       d="m 468,125 c 10.03119,-2.38912 17.58453,10.11502 26,15 4.32401,6.18932 13.28142,12.70314 14,19 -16.47779,-3.64127 -32.04697,-15.51266 -41,-31 -0.80474,-1.4714 1.80474,-1.5286 1,-3 z"
       id="path326"
       style="stroke-width:0.755906;stroke-dasharray:none" />
    <path
       d="m 629,124 c 7.07273,-1.2575 -1.15805,11.66637 3,16 0.46446,4.27798 11.38727,18.84144 2,13 -7.72731,-7.07219 -13.12885,-20.36632 -5,-29 z"
       id="path327"
       style="stroke-width:0.755906;stroke-dasharray:none" />
    <path
       d="m 687,112 c 13.06086,-3.42704 28.71337,2.40592 35,14 0.73398,9.33598 -10.58161,2.44991 -16,5 -11.89379,4.73886 -18.59318,-8.7133 -28,-13 -9.63435,-4.71907 6.80562,-4.52551 9,-6 z"
       id="path328"
       style="stroke-width:0.755906;stroke-dasharray:none" />
    <path
       d="m 700,110 c 13.49673,-1.50929 28.71555,7.02737 35,20 -8.57012,4.90386 -10.35836,-4.50577 -13,-10 -6.44137,-5.65475 -14.73837,-6.39259 -22,-10 z"
       id="path329"
       style="stroke-width:0.755906;stroke-dasharray:none" />
    <path
       d="m 610,109 c 6.96967,-1.4415 12.8966,8.40136 20,10 -1.0755,3.81254 -12.78717,18.29009 -11,16 -6.67744,-5.57929 -22.93788,-6.18397 -17,-19 1.62144,-3.20361 4.72744,-5.79886 8,-7 z"
       id="path330"
       style="stroke-width:0.755906;stroke-dasharray:none" />
    <path
       d="m 470,106 c 8.62008,-2.48114 17.78633,6.27285 23,13 0.0985,5.56287 7.8111,18.3708 -2,11 -7.66047,-5.3387 -24.86359,-11.06692 -22,-23 z"
       id="path331"
       style="stroke-width:0.755906;stroke-dasharray:none" />
    <path
       d="m 650,105 c 8.76278,2.75626 19.29612,9.79041 28,16 3.44878,4.53792 17.84424,8.919 14,13 -7.77794,5.74181 -19.94171,6.17656 -25,-4 -9.40875,-8.09407 -19.53427,-14.4577 -30,-20 3.6573,-2.99861 8.09163,-5.04931 13,-5 z"
       id="path332"
       style="stroke-width:0.755906;stroke-dasharray:none" />
    <path
       d="m 506,105 c 7.58945,1.70606 15.81266,10.41059 24,14 8.00734,5.77437 -7.81444,13.37512 -5,22 -0.35242,11.29081 -13.36567,-1.99845 -18,-5 -8.62806,-6.17385 -15.37851,-16.54598 -7,-25 2,-2 4,-4 6,-6 z"
       id="path333"
       style="stroke-width:0.755906;stroke-dasharray:none" />
    <path
       d="m 411,104 c 7.75275,1.093 17.50378,5.96589 25,11 5.03188,4.96843 16.75312,11.62803 19,12 -4.31123,-5.02069 -15.5094,-13.0167 -11,-18 6.8701,3.87655 16.06056,5.80549 21,12 -7.43871,4.43358 7.36337,17.78779 -3,14 -17.1514,-8.18678 -33.77432,-17.6494 -55,-16 -15.80426,-3.01679 -32.25285,1.13611 -47,4 -11.87419,4.9143 -1.52753,-3.47032 5,-4 16.55933,-6.25521 36.45527,-5.27342 55,-4 -4.11227,-2.47695 -18.08227,-6.80085 -14,-11 1.66667,0 3.33333,0 5,0 z"
       id="path334"
       style="stroke-width:0.755906;stroke-dasharray:none" />
    <path
       d="m 449,103 c 4.45416,-1.12783 16.00871,-2.20245 16,4 2.78841,12.41241 -5.75304,1.93928 -12,1 -1.88571,-1.54679 -11.71177,-2.01169 -4,-5 z"
       id="path335"
       style="stroke-width:0.755906;stroke-dasharray:none" />
    <path
       d="m 543,101 c 5.70457,-0.999 12.24027,9.93777 17,14 2.87006,7.97708 10.83548,13.40346 18,17 -6.40133,6.05926 -13.67493,9.2637 -18,17 -16.24727,-8.33824 -32.03393,-31.73913 -17,-48 z"
       id="path336"
       style="stroke-width:0.755906;stroke-dasharray:none" />
    <path
       d="m 426,101 c 3.8299,-1.061304 17.62039,-3.251779 16,2 -3.08581,8.9247 -9.02216,3.14336 -16,1 -2.14979,-1.19735 -5.24946,-3.13984 0,-3 z"
       id="path337"
       style="stroke-width:0.755906;stroke-dasharray:none" />
    <path
       d="m 488,97 c 5.29188,-2.538748 22.92128,1.761661 12,9 -3.68889,8.99702 -13.19705,-0.15728 -19,-3 0.69444,-2.17212 4.23805,-6.527715 7,-6 z"
       id="path338"
       style="stroke-width:0.755906;stroke-dasharray:none" />
    <path
       d="m 637,92 c 15.75377,-3.204204 31.17855,3.20261 45,8 3.41635,1.87434 19.82832,7.91459 11,9 -11.49933,1.01524 -24.77318,7.13556 -34,-3 -7.21169,-4.93422 -14.61048,-9.510029 -22,-14 z"
       id="path339"
       style="stroke-width:0.755906;stroke-dasharray:none" />
    <path
       d="m 588,92 c 9.91238,-5.534547 20.00062,7.682394 20,15 -5.88897,4.49381 -14.21275,10.89689 -10,19 -13.72893,3.3446 -33.49019,-1.12239 -36,-17 0.58225,-10.759485 17.49026,-15.887835 26,-17 z"
       id="path340"
       style="stroke-width:0.755906;stroke-dasharray:none" />
    <path
       d="m 510,92 c 9.26349,-2.654743 18.20633,4.177023 27,6 -1.92561,6.55941 -3.8862,13.10433 -5,20 -8.65094,-6.77812 -20.6477,-11.84695 -26,-22 1.41028,-1.06175 1.43151,-4.407609 4,-4 z"
       id="path341"
       style="stroke-width:0.755906;stroke-dasharray:none" />
    <path
       d="m 465,90 c 4.65008,-3.346522 20.05379,1.035592 10,6 2.67845,9.73329 -8.05274,0.601303 -14,3 -9.3032,-3.785252 -1.67281,-8.018708 4,-9 z"
       id="path342"
       style="stroke-width:0.755906;stroke-dasharray:none" />
    <path
       d="m 444,90 c 7.34166,-3.879883 16.38757,0.983386 6,6 -6.88221,-0.931013 -16.79017,3.27247 -21,0 4.71299,-2.557724 9.30448,-5.855636 15,-6 z"
       id="path343"
       style="stroke-width:0.755906;stroke-dasharray:none" />
    <path
       d="m 604,89 c 7.423,-1.040133 17.2667,0.482713 25,2 -2.76293,3.700642 10.31199,7.508197 15,9 6.6191,4.78354 -10.26559,3.05992 -13,8 -12.93497,5.55431 -21.50424,-10.450362 -27,-19 z"
       id="path344"
       style="stroke-width:0.755906;stroke-dasharray:none" />
    <path
       d="m 484,84 c 6.04768,-0.245191 14.8758,1.139307 21,4 -3.08302,7.477053 -6.69527,6.390947 -15,5 -7.37979,2.042172 -13.283,-3.147908 -6,-9 z"
       id="path345"
       style="stroke-width:0.755906;stroke-dasharray:none" />
    <path
       d="m 553,80 c 8.23036,-1.914868 16.23707,5.440837 24,8 -1.74073,5.865619 -15.11836,7.261348 -18,16 -6.50126,3.65719 -10.936,-9.247603 -12,-15 -0.54815,-3.791912 2.57671,-7.854415 6,-9 z"
       id="path346"
       style="stroke-width:0.755906;stroke-dasharray:none" />
    <path
       d="m 522,79 c 7.70641,-2.173787 18.17677,1.246932 23,7 2.45544,8.047787 -3.28599,13.393907 -10,8 -7.19267,-2.221895 -16.41898,-3.241007 -22,-7 2.956,-2.801485 5.62125,-6.218334 9,-8 z"
       id="path347"
       style="stroke-width:0.755906;stroke-dasharray:none" />
    <path
       d="m 478,79 c 7.9075,-3.018055 -5.1965,8.907351 -10,7 -13.71398,0.441661 7.75833,-7.550681 10,-7 z"
       id="path348"
       style="stroke-width:0.755906;stroke-dasharray:none" />
    <path
       d="m 494,77 c 7.39292,-1.65659 17.60708,-1.65659 25,0 -5.94396,5.339229 -13.12458,10.95278 -21,6 -5.4525,0.08669 -16.31254,-3.325974 -4,-6 z"
       id="path349"
       style="stroke-width:0.755906;stroke-dasharray:none" />
    <path
       d="m 573,76 c 12.59435,-1.814664 26.03488,2.975571 38,6 -0.84745,4.73591 -11.31212,-1.98541 -17,0 -6.35705,-1.284344 -16.69237,-3.834846 -5,0 11.16593,1.823388 5.83337,7.474757 -3,5 -9.28387,0.207148 -17.46397,-5.945178 -24,-10 2.71353,-2.178764 7.56975,-0.4446 11,-1 z"
       id="path350"
       style="stroke-width:0.755906;stroke-dasharray:none" />
    <path
       d="m 537,72 c 6.39924,-1.653961 15.60076,-1.653961 22,0 -7.1224,2.424691 -10.97274,11.174938 -19,6 -3.30377,-2.207701 -20.49276,-1.205869 -11,-5 2.78893,-0.248394 4.76649,-1.599393 8,-1 z"
       id="path351"
       style="stroke-width:0.755906;stroke-dasharray:none" />
  </g>
</svg>
