<?xml version="1.0" encoding="UTF-8" standalone="no"?>
<svg
   version="1.1"
   width="64.932999mm"
   height="65.932999mm"
   viewBox="0 0 245.41654 249.19608"
   id="svg13"
   sodipodi:docname="haende_herz_final.svg"
   inkscape:version="1.4.2 (f4327f4, 2025-05-13)"
   xmlns:inkscape="http://www.inkscape.org/namespaces/inkscape"
   xmlns:sodipodi="http://sodipodi.sourceforge.net/DTD/sodipodi-0.dtd"
   xmlns="http://www.w3.org/2000/svg"
   xmlns:svg="http://www.w3.org/2000/svg">
  <defs
     id="defs13" />
  <sodipodi:namedview
     id="namedview13"
     pagecolor="#ffffff"
     bordercolor="#000000"
     borderopacity="0.25"
     inkscape:showpageshadow="2"
     inkscape:pageopacity="0.0"
     inkscape:pagecheckerboard="0"
     inkscape:deskcolor="#d1d1d1"
     inkscape:document-units="mm"
     showgrid="false"
     inkscape:zoom="1.1865248"
     inkscape:cx="557.08907"
     inkscape:cy="500.20025"
     inkscape:window-width="2560"
     inkscape:window-height="1417"
     inkscape:window-x="-8"
     inkscape:window-y="-8"
     inkscape:window-maximized="1"
     inkscape:current-layer="g13" />
  <g
     fill="none"
     stroke="#ff0000"
     stroke-width="0.1mm"
     stroke-linejoin="round"
     stroke-linecap="round"
     id="g13">
    <path
       d="m 61.371076,6.8010606 c -4.281636,0.56792 -8.532728,1.21613 -12.497584,2.616707 -9.875644,2.9258834 -18.583884,8.9202944 -26.19686,17.7936074 -6.422264,7.623741 -10.878477,16.134131 -13.6992746,25.382061 -2.00416,7.62654 -3.676859,15.40256 -3.364734,24.0737 -0.143499,7.89111 0.470138,15.44076 2.163043,22.50368 0.573743,3.673634 1.827346,7.514804 2.6437196,10.728504 2.292103,6.96201 4.601288,13.91632 7.931159,20.41032 3.590882,7.9711 7.989134,15.5781 12.737923,23.02702 7.382162,11.30125 16.333559,21.8948 25.956521,32.18549 7.767424,7.45936 15.469294,15.09103 23.55314,21.71867 7.99082,6.66778 16.13395,12.93524 24.514491,18.57862 5.16644,3.42197 10.37252,6.73974 15.62198,9.94349 6.60388,-4.0957 13.33731,-7.85087 19.70773,-12.5602 8.81303,-5.78502 17.15192,-12.81634 25.47585,-19.88697 10.63857,-9.27434 21.13984,-19.80437 30.76328,-31.13881 7.29713,-8.67073 13.8265,-17.68771 19.22705,-27.21375 4.59094,-8.10951 8.84395,-16.37141 12.01691,-25.12039 1.69549,-4.3219 2.96671,-8.2051 4.08575,-12.82187 1.84726,-5.90173 2.84312,-12.187434 3.60507,-18.578624 0.73498,-5.67806 0.45698,-11.48273 0.48068,-17.27026 -0.55412,-4.61089 -1.01451,-9.26406 -2.16304,-13.60688 -1.67347,-7.45158 -4.27119,-14.48634 -8.1715,-20.93366 C 220.9298,28.153837 213.3785,19.742171 205.33363,15.174523 199.0757,11.195046 192.16416,8.9335476 184.90489,7.5860726 c -5.70687,-1.016264 -12.08066,-1.042851 -17.78502,0 -7.59253,1.277685 -14.69421,3.8455724 -21.14976,8.1117914 -9.39417,5.484276 -18.00924,15.186542 -24.27416,24.858722 -1.28718,2.55229 -2.83285,-2.09212 -3.84541,-3.14005 -5.02582,-6.84653 -10.59434,-13.239599 -17.064,-18.316952 C 94.081009,14.073664 86.867919,10.381881 78.915759,8.6327556 73.410936,7.1091966 67.526674,6.6152906 61.371076,6.8010606 Z"
       id="path1"
       style="stroke-width:0.56693;stroke-dasharray:none" />
    <path
       d="m 104.87228,164.85017 c 4.84366,-1.71868 8.71469,3.62769 10.09421,7.85012 1.41135,1.41691 1.28985,4.1279 -0.96136,2.35504 -3.51891,-2.50925 -6.86076,-5.48392 -10.33454,-8.1118 -0.10795,-0.8543 0.42457,-1.90245 1.20169,-2.09336 z"
       id="path2"
       style="stroke-width:0.56693;stroke-dasharray:none" />
    <path
       d="m 133.23219,164.5885 c 2.02176,-0.68069 4.80055,-0.13807 6.00845,1.57002 -4.26634,2.7015 -8.07922,6.59491 -12.49758,8.89681 -2.17803,1.14639 -2.32086,-0.83528 -1.68237,-2.61671 1.16713,-3.94126 4.72968,-6.73821 8.1715,-7.85012 z"
       id="path3"
       style="stroke-width:0.56693;stroke-dasharray:none" />
    <path
       d="m 66.898854,161.18678 c 5.061874,-0.98925 10.037975,0.53335 14.660625,1.57002 5.38787,1.05934 10.15149,3.75951 15.38164,5.23342 4.481631,1.87395 8.812021,4.1454 12.497591,8.11179 2.79821,2.97341 8.5365,4.56773 11.05555,0.26167 1.23366,-0.10096 2.09718,3.0653 4.08575,2.61671 5.19276,0.15597 8.11108,-4.58143 12.25725,-7.06511 3.86281,-2.75163 8.25653,-4.10773 12.73792,-5.23342 1.23064,0.0564 2.29558,-1.01639 4.08575,-0.78501 1.36345,-0.84557 4.23538,-1.00486 6.24879,-1.57002 5.36886,-0.69256 11.39534,-1.32293 16.82367,-0.26167 4.72985,1.19155 9.15028,3.19643 13.45894,5.49508 -1.00008,2.82757 -4.66127,5.40349 -6.72947,8.11179 -8.36379,8.95704 -17.13513,16.84283 -25.95652,24.59705 -7.07084,5.86125 -14.23859,11.46776 -21.63043,16.48525 -4.9569,3.37715 -9.92178,6.73332 -15.14131,9.42015 -7.28578,-4.30068 -14.37496,-9.11812 -21.390091,-14.13022 -8.47808,-6.50597 -16.85882,-13.26779 -24.99517,-20.67199 -8.348019,-7.66942 -16.606086,-15.93959 -24.274157,-24.85871 -2.232407,-1.96477 0.207506,-2.38957 1.922706,-2.61671 5.202571,-0.94441 9.633424,-3.96144 14.900966,-4.71007 z"
       id="path4"
       style="stroke-width:0.56693;stroke-dasharray:none" />
    <path
       d="m 176.97373,113.03937 c 2.60794,-0.29132 2.32158,3.93057 2.64372,6.01843 0.0925,5.84431 -4.53975,10.24302 -8.89251,12.82186 0.20537,-2.21438 2.82549,-4.26952 3.1244,-6.80344 1.42758,-3.6637 3.31475,-7.12014 3.12439,-11.51351 l 0.24034,-0.26167 z"
       id="path5"
       style="stroke-width:0.56693;stroke-dasharray:none" />
    <path
       d="m 68.340882,108.06763 c 0.81615,0.48023 0.857592,2.90244 0.961353,4.4484 -0.411093,2.31953 0.997012,4.81988 -0.240338,6.80344 -2.156747,-3.2465 -4.038162,-7.95807 -0.721015,-11.25184 z"
       id="path6"
       style="stroke-width:0.56693;stroke-dasharray:none" />
    <path
       d="m 80.838469,91.059026 c 1.33787,-0.49086 4.68065,-0.80106 3.12439,1.57002 -2.93036,5.35438 -6.63814,10.929734 -11.536228,14.915234 -1.627512,-4.31914 3.284818,-6.67747 4.806768,-9.943484 1.58259,-2.01071 2.47102,-4.33119 3.60507,-6.54177 z"
       id="path7"
       style="stroke-width:0.56693;stroke-dasharray:none" />
    <path
       d="m 157.02566,89.227336 c 1.679,0.0988 3.11619,3.08852 5.04711,3.40171 1.96599,0.73969 3.15764,2.04373 3.12439,4.44841 1.38108,5.090084 5.36423,9.006694 8.41184,13.345204 1.06278,6.41238 -1.9695,11.8899 -4.56643,17.0086 -2.64186,4.02322 -5.54054,9.29585 -10.33454,10.20516 -5.86934,2.49516 -12.29763,3.52111 -18.2657,5.75675 -6.41944,2.88265 -13.31296,5.99909 -17.78502,12.82187 -1.11953,1.15671 -2.33472,5.37864 -3.36474,2.09336 -4.37394,-6.64314 -10.70573,-11.76564 -17.06401,-14.91523 -6.759101,-2.83661 -13.730381,-5.11551 -20.428741,-8.11179 -3.74703,-2.00126 -7.59162,-6.30293 -9.13285,-10.46683 0.144936,-4.53005 -0.285425,-8.91313 0.240339,-13.08353 5.484561,-3.85716 9.859741,-10.19996 13.218601,-15.961924 0.59942,-1.82059 1.32404,-3.26108 3.36473,-2.35503 3.82218,0.50262 7.13443,-1.66345 10.0942,1.30835 2.325501,1.20032 4.808441,1.98678 7.450491,2.35504 1.96406,5.383064 6.13741,11.716344 12.49758,10.728504 1.92954,-0.96113 3.91887,-2.66515 6.00846,-1.04669 4.14865,0.87553 5.76753,-4.89844 9.85386,-4.18673 4.57545,-1.57068 7.97719,-5.757964 10.81522,-9.420144 1.35552,-1.98171 3.15984,-1.38843 5.52777,-2.09337 1.87178,-0.35011 3.52568,-1.19751 5.28744,-1.83169 z"
       id="path8"
       style="stroke-width:0.56693;stroke-dasharray:none" />
    <path
       d="m 151.25755,84.255586 c 1.65835,-1.62052 5.1887,2.11504 2.16304,2.35504 -2.50564,1.39466 -5.54724,1.38054 -8.41183,1.83169 -2.09453,3.45043 -4.74727,6.7576 -7.93116,9.15848 0.69406,-3.18667 3.58594,-6.3079 4.08575,-9.94349 0.69676,-1.88927 3.46228,-0.85611 5.0471,-1.57002 1.74825,-0.43827 3.45123,-0.99323 5.0471,-1.8317 z"
       id="path9"
       style="stroke-width:0.56693;stroke-dasharray:none" />
    <path
       d="m 92.615039,84.255586 c 1.759,-0.2549 3.4936,1.82486 5.28744,2.35504 2.04103,1.78364 5.226591,1.55763 7.210141,2.87838 0.29287,1.94281 1.20508,4.96219 -1.44203,3.14004 -2.16371,-0.77386 -4.085871,-2.39813 -5.768111,-3.92506 -3.46765,0.53115 -7.49975,1.90584 -11.05556,0.52335 1.09105,-1.78247 4.00762,-2.80402 5.28744,-4.71008 h 0.24034 z"
       id="path10"
       style="stroke-width:0.56693;stroke-dasharray:none" />
    <path
       d="m 80.838469,52.070096 c 1.49154,-0.64076 4.6659,-0.37434 4.80676,1.30835 -6.16824,2.52443 -11.67983,6.77489 -17.304347,10.7285 -4.168083,3.2426 -9.208378,4.19258 -13.218598,7.85012 4.033271,-1.65687 8.68031,-1.70044 12.497584,-3.92506 4.969381,-2.24036 9.301251,-6.15642 14.179951,-8.63513 4.33819,-2.67833 8.78588,-5.06881 14.17995,-4.97175 5.926731,2.66739 10.057091,9.10609 15.141311,14.13022 2.26643,3.58683 5.80008,6.60217 7.45048,10.46683 -1.51687,-0.98383 -3.35973,-4.08694 -5.28744,-5.75676 -5.0688,-5.08039 -10.90785,-8.13618 -16.823671,-10.99017 -3.99172,-2.01323 -8.10998,0.82012 -11.77657,2.09337 -7.22474,3.97391 -14.11057,8.83867 -21.630436,12.03685 -2.750937,1.69092 -6.016702,2.95713 -8.411836,4.97174 2.380199,-0.86872 5.452925,-1.18997 7.690821,-2.35503 3.704993,-0.682 7.621621,-3.07548 11.295894,-4.71007 5.050977,-2.39596 9.844897,-5.46758 14.900967,-7.85013 2.71817,-1.03988 6.06984,-2.14389 8.65217,0 4.370621,2.0785 8.458571,4.90001 12.497591,7.85013 2.92167,3.33804 6.71866,6.6582 7.93116,10.99017 1.54158,3.34442 1.13521,7.56733 1.9227,11.25184 0.15507,1.8569 0.74324,4.070114 0.48068,5.756754 -2.74083,-2.859294 -3.81578,-7.304754 -2.64372,-11.251844 -2.06338,4.02323 -1.89557,9.587964 1.68237,12.821864 -3.35758,1.49252 -6.26962,-2.86672 -7.93116,-5.756754 -1.68489,-3.63489 -3.07834,-7.40122 -3.1244,-11.77518 1.06011,-1.12025 1.96925,-4.869 0,-2.09337 -3.71523,2.94797 -8.224151,-0.26972 -11.536231,-2.35503 -2.00129,-1.23749 -3.16649,-2.92171 -3.84541,-5.23342 -0.36493,1.52059 -0.13825,4.17386 -2.16305,4.97175 -4.84299,4.57614 -10.42869,7.20008 -17.064005,7.0651 -0.700985,0.17162 2.529315,2.3404 3.605075,2.87838 -2.57572,5.36153 -7.437,9.699564 -11.055558,14.391894 -0.536992,2.40702 -1.744761,3.0762 -2.163044,0.26167 0.01836,-1.169 -0.346961,-5.17328 -0.721014,-2.35504 -1.682098,4.69876 0.223397,9.62274 1.682367,13.86855 2.268643,4.95148 4.855677,9.75938 8.411836,14.13022 -1.898794,-0.32696 -3.97204,-2.45927 -5.768116,-3.92506 -3.857247,-3.32076 -6.615642,-7.32111 -9.13285,-11.51351 0.337814,2.82408 2.139202,5.8167 3.84541,8.37346 3.749206,5.57812 8.932706,9.0886 14.179949,12.03685 5.86144,2.8287 11.86405,5.28633 18.02536,7.32678 7.347001,2.01907 13.872341,6.19783 19.467401,12.82187 2.52209,3.02301 4.81114,6.15114 5.0471,10.20515 -0.71304,1.70455 0.56454,6.45486 -1.44203,7.06511 -1.80471,-4.69736 -4.98726,-10.6468 -10.33454,-10.99017 -2.12418,0.30935 -4.23909,0.86625 -4.80677,3.40172 -2.354931,-1.5576 -6.542981,-1.14487 -6.969801,-4.97174 -1.15978,-2.63589 -0.26487,-5.97171 1.20169,-8.11179 -2.6612,2.42502 -3.197,6.51325 -2.16305,9.94348 -2.43676,-0.21882 -4.05963,-4.02918 -3.84541,-6.80343 0.65818,-1.07399 2.04894,-2.93136 2.64372,-3.92506 -2.40951,1.63154 -4.3767,4.52143 -3.36473,7.32678 1.23231,2.74583 -1.22201,1.2648 -2.64372,0.78501 -5.97654,-2.23455 -12.00682,-4.32783 -18.986715,-3.92506 -3.555863,0.36911 -7.60639,1.62841 -11.055555,3.14005 -3.599554,1.48234 -7.473409,2.24368 -11.295894,3.14004 C 38.8137,154.7864 32.882357,145.83986 28.20441,136.32806 c -4.074655,-6.9194 -7.172992,-14.27909 -10.094203,-21.71867 -0.447891,-1.84893 -2.12026,-3.78963 0.240338,-4.97174 2.220256,-2.1386 4.252347,-4.77178 7.210145,-4.97174 2.875812,-1.50708 6.180214,-1.38871 8.424494,-4.32435 6.540628,-4.817744 10.757361,-11.935254 16.811013,-17.917664 -5.417549,2.4769 -9.799056,8.21092 -13.458937,13.3452 -2.546789,2.99568 -5.286752,6.176604 -8.892512,6.541774 -1.451299,0.45794 -3.115126,1.71993 -4.566425,1.30835 7.950148,-8.120764 13.429075,-17.355994 20.428744,-25.905404 2.617345,-4.02788 6.932991,-4.96446 9.853864,-8.11179 2.881217,-1.31027 6.258432,-3.56187 9.13285,-5.75675 4.256555,-3.1194 8.28089,-7.16014 12.737918,-10.20516 1.54382,-0.68971 3.06751,-1.39546 4.80677,-1.57002 z"
       id="path11"
       style="stroke-width:0.56693;stroke-dasharray:none" />
    <path
       d="m 158.94837,51.808426 c 4.47096,-0.54413 8.34568,2.80204 12.01691,5.23341 4.45915,3.82202 8.75264,8.07945 13.45893,11.25184 5.96311,4.09535 12.01397,7.96004 17.78503,12.56019 5.55985,6.75541 8.55677,14.66665 13.45894,21.718674 1.10678,2.40229 3.50123,4.78697 4.08574,7.06511 -3.32713,-1.28624 -6.94102,-1.84539 -9.85386,-4.18673 -4.97353,-4.51004 -7.13007,-10.564624 -12.25725,-14.915234 -2.36166,-1.7158 -4.74928,-3.3634 -7.45048,-4.18673 4.66569,3.57515 9.02743,8.42692 12.73792,13.08353 2.57548,2.530224 5.2058,5.164254 7.69082,8.111794 3.74532,1.62256 7.86329,2.26558 11.2959,4.71008 1.46195,1.51049 2.03755,3.18278 0.72101,4.97174 -3.09403,8.15285 -6.76107,16.04728 -11.29589,23.55036 -4.38888,7.92143 -9.60762,15.4686 -15.38164,22.76535 -1.1799,1.8092 -2.4607,3.29789 -4.32609,1.8317 -5.80511,-1.94505 -11.07949,-5.28509 -17.54469,-5.49508 -3.56596,-0.97967 -7.31763,-0.0319 -11.05555,0 -3.62151,0.74179 -7.19322,1.61451 -10.81522,2.35503 0.53951,-2.54603 0.20481,-6.36526 -1.9227,-8.11179 -1.8869,-2.81323 0.55948,1.06849 0.72101,2.35504 1.1654,2.54316 -0.0534,6.67763 -3.1244,7.58845 -0.70105,-1.92599 0.31202,-5.18691 -1.20169,-7.06511 -0.46128,-1.62151 -2.68635,-4.55606 -1.20169,-1.30836 1.5491,2.3977 2.10606,7.69558 -0.72101,9.15848 -1.35806,-0.22689 -4.3815,2.50127 -5.76812,-0.26167 -4.08844,-2.85361 -9.13756,-0.37528 -12.49758,2.6167 -1.62133,1.37592 -2.25664,3.61969 -3.36474,4.97175 -0.95079,-3.15525 -1.60915,-7.14142 0.48068,-9.94349 2.16312,-5.80371 7.44971,-10.20269 12.49758,-12.56019 4.88741,-3.566 10.81522,-4.39731 16.343,-6.2801 3.13733,0.0771 6.28378,-2.06608 9.61353,-2.35504 5.0052,-1.65897 10.10988,-3.0565 14.42029,-6.54176 2.47962,-2.00672 5.34857,-4.67795 6.24879,-7.85012 -3.87037,6.15002 -10.0459,9.11808 -16.10266,10.72849 0.69624,-1.60852 3.84605,-2.18437 5.28744,-3.92506 4.92199,-2.94483 9.62456,-8.49618 9.85386,-14.91523 0.0358,-3.50254 -0.61105,-6.69717 -2.88405,-9.15847 -0.6925,1.47936 -2.82942,-2.58122 -4.08575,-3.40172 -2.85623,-3.26355 -5.75788,-6.506624 -6.48913,-10.728504 1.30112,-0.85364 3.85188,-1.69592 4.32608,-2.61671 -4.73725,-0.11921 -8.63816,-2.43674 -12.25724,-5.49508 -2.0885,-2.06155 -3.98728,-4.77335 -5.52778,-7.32678 0.13746,-1.64974 -0.15927,-4.84209 -0.96135,-5.49508 0.38967,5.52512 -4.87871,8.18875 -9.13285,8.37346 -2.49936,1.01049 -6.01216,0.29918 -7.69082,-0.78501 1.2513,1.71185 1.8996,3.77036 0.72101,5.75675 -2.09844,5.55782 -5.48151,11.43816 -10.57488,14.915234 -2.52781,1.5127 -0.0473,-1.76305 0,-3.140054 0.78092,-3.15792 0.78169,-6.66769 0.72102,-10.20515 -0.75279,3.96802 -1.28887,8.03378 -3.1244,11.513514 -0.98825,-2.848004 0.85471,-6.200034 1.20169,-9.158484 1.74347,-4.22523 0.76712,-9.67705 4.32609,-13.08353 4.08784,-5.70655 10.35828,-7.23794 15.62198,-10.46683 3.4174,-1.83601 7.70892,-3.93422 11.77657,-2.35504 6.44203,3.09816 11.78696,9.08007 17.78502,13.34521 2.99409,1.81056 6.59908,4.44077 9.61353,4.71007 -5.99337,-4.96929 -11.70052,-10.03797 -17.30435,-15.70024 -4.13525,-2.98 -8.17101,-6.22152 -13.2186,-6.80344 -4.54588,1.16673 -9.08701,2.34596 -12.97826,5.23341 -4.4807,2.78224 -9.6907,4.4701 -13.2186,9.15848 0.1909,-3.16735 4.06928,-5.46263 6.2488,-7.58845 4.82572,-4.29573 9.24261,-8.95951 14.42029,-12.56019 5.38095,-0.5866 10.02883,2.98438 14.66062,5.23341 6.52075,3.92917 12.7165,8.71262 19.46739,12.03685 3.59425,2.36853 7.64654,3.53309 11.2959,5.75676 -5.40843,-5.30661 -11.58323,-8.59883 -17.30435,-13.08354 -6.70261,-4.59125 -13.2877,-9.49141 -20.66908,-12.29852 -1.64564,-0.67454 1.86558,-1.57432 2.40338,-1.30835 z"
       id="path12"
       style="stroke-width:0.56693;stroke-dasharray:none" />
    <path
       d="m 61.371076,13.604499 c 4.421797,-0.702327 9.213294,-0.106513 13.458933,0.523341 6.64358,1.579026 13.0762,3.712521 18.74638,7.850121 5.64425,3.561446 10.824291,8.718505 15.381641,14.130215 4.59015,5.45703 8.23672,11.33959 11.77657,17.27027 5.18893,-8.89927 11.409,-17.65292 19.22706,-25.120388 5.91837,-5.30194 12.17163,-9.723626 19.22705,-12.036852 5.95932,-2.352059 12.55597,-3.028893 19.46739,-2.878378 4.43412,0.588259 8.89576,1.104203 12.97826,2.616707 8.75679,2.72932 16.57057,7.937339 23.3128,15.961911 5.64137,6.76355 9.3505,14.39849 12.01691,22.50368 1.89568,6.19267 2.98766,12.74778 3.36473,19.6253 0.21835,7.11869 -0.2513,13.9271 -1.44203,20.41032 -0.80761,5.44726 -2.1246,10.664814 -3.84541,15.700244 -6.42534,-8.24531 -10.50932,-17.546544 -16.10265,-26.167074 -2.37267,-4.51584 -6.25347,-8.07637 -10.33454,-10.46683 -8.2154,-5.06073 -16.18608,-10.76468 -23.55314,-18.05527 -4.43967,-2.77545 -8.52058,-6.49389 -13.69928,-7.32678 -4.04246,-0.43694 -7.2685,1.2721 -10.33454,3.40171 -5.87592,-0.0914 -9.34848,6.13446 -13.93961,9.42015 -4.50015,4.72154 -11.24217,8.26197 -12.49759,15.1769 -0.8765,2.27493 -0.88647,5.55888 -0.24034,7.58845 -0.32293,3.19622 -0.71391,6.36176 -1.9227,9.15848 -1.87777,-3.70673 0.60613,-7.62684 0,-11.77519 -0.5669,-6.96742 -6.76767,-11.39409 -10.33454,-17.00859 -4.22007,-3.95792 -8.32446,-9.7599 -13.218601,-12.5602 -2.81222,-1.63023 -6.08066,-0.68616 -9.13285,-0.26167 -3.65857,-3.76692 -9.86851,-4.09914 -13.93961,-1.04668 -7.648787,3.906 -14.044027,11.10695 -21.630438,15.1769 -4.796878,3.49969 -10.695514,5.89652 -13.939613,11.77518 -7.394835,10.17018 -15.201266,20.51432 -24.514492,29.568794 -1.990456,-5.22659 -2.871206,-10.953644 -3.605073,-16.746924 -0.963095,-6.52592 -0.859159,-13.87333 -0.480676,-20.67199 0.868241,-5.73268 1.596991,-11.52828 3.605072,-16.74692 3.005734,-9.48969 8.401994,-17.9013 15.862319,-25.382061 6.165969,-5.616795 12.849345,-9.873586 20.428743,-11.775181 3.114244,-1.037208 6.377188,-1.744046 9.853865,-1.831695 z"
       id="path13"
       style="stroke-width:0.56693;stroke-dasharray:none" />
  </g>
</svg>
