<?xml version="1.0" encoding="UTF-8" standalone="no"?>
<svg
   version="1.1"
   width="70.932999mm"
   height="93.932999mm"
   viewBox="0 0 709.3299 939.3299"
   id="svg24"
   sodipodi:docname="Lebensbaum_blatt_final.svg"
   inkscape:version="1.4.2 (f4327f4, 2025-05-13)"
   xmlns:inkscape="http://www.inkscape.org/namespaces/inkscape"
   xmlns:sodipodi="http://sodipodi.sourceforge.net/DTD/sodipodi-0.dtd"
   xmlns="http://www.w3.org/2000/svg"
   xmlns:svg="http://www.w3.org/2000/svg">
  <defs
     id="defs24" />
  <sodipodi:namedview
     id="namedview24"
     pagecolor="#ffffff"
     bordercolor="#000000"
     borderopacity="0.25"
     inkscape:showpageshadow="2"
     inkscape:pageopacity="0.0"
     inkscape:pagecheckerboard="0"
     inkscape:deskcolor="#d1d1d1"
     inkscape:document-units="mm"
     showgrid="false"
     inkscape:zoom="0.59326242"
     inkscape:cx="155.91751"
     inkscape:cy="653.16795"
     inkscape:window-width="2544"
     inkscape:window-height="1401"
     inkscape:window-x="338"
     inkscape:window-y="190"
     inkscape:window-maximized="0"
     inkscape:current-layer="svg24" />
  <g
     fill="none"
     stroke="#ff0000"
     stroke-width="0.1mm"
     stroke-linejoin="round"
     stroke-linecap="round"
     id="g24"
     style="stroke-width:1.5;stroke-dasharray:none"
     transform="matrix(0.88005168,0,0,0.92512466,-105.89355,-1.8413964)">
    <path
       d="m 510,36 c -34.44038,36.374742 -71.81161,65.67376 -110,93 -31.47904,22.8435 -63.11829,45.3002 -93,72 -31.9147,26.82034 -59.61101,59.3955 -82,92 -16.36591,24.5486 -30.04607,50.20968 -41,77 -7.81298,21.72044 -15.5997,43.45177 -19,67 -3.93903,17.86349 -5.63535,36.65595 -6,56 -0.78192,27.15231 1.60761,52.99096 6,78 4.60924,21.90941 10.5295,43.27577 18,64 12.01563,29.23617 25.76846,57.75276 45,84 20.91626,31.16294 47.26668,60.07499 76,88 24.8308,22.21322 50.06969,43.44123 76,63 35.9678,27.66353 71.67808,55.94876 105,90 8.43772,8.84719 16.30792,21.03027 27,27 16.98557,-15.22839 31.36487,-34.06734 49,-50 29.16453,-25.21227 58.9957,-48.81512 89,-72 35.07197,-26.6073 68.87498,-56.27813 101,-90 24.57826,-27.32257 46.63805,-55.68833 64,-86 12.40333,-23.14258 23.65941,-46.76036 31,-72 6.48887,-18.91188 11.29369,-38.52133 14,-59 5.06732,-25.12 3.94554,-52.80361 4,-80 -1.91164,-14.0366 -2.97002,-28.42663 -6,-42 -4.65387,-25.4432 -12.36434,-49.62032 -22,-73 -11.49384,-28.11896 -26.70764,-54.69707 -45,-80 -26.02073,-36.52104 -60.52391,-71.70387 -96,-101 -29.82063,-24.70918 -61.31379,-45.38052 -92,-68 -28.62415,-20.217017 -56.04625,-43.336057 -82,-70 -2.31285,-2.258828 -6.58994,-8.672178 -11,-8 z"
       id="path1"
       style="stroke-width:1.5;stroke-dasharray:none" />
    <path
       d="m 515,858 c 6.63886,2.08997 10.24273,13.81977 15,20 7.13789,12.53199 5.2914,28.76983 1,42 -0.52166,13.07394 -11.08796,21.98725 -19,32 -9.2009,-10.90291 -9.85106,-25.34765 -10,-40 3.30313,-17.62198 13.50529,-32.3863 12,-52 l 1,-1 z"
       id="path2"
       style="stroke-width:1.5;stroke-dasharray:none" />
    <path
       d="m 541,825 c 7.03878,2.40469 12.81938,13.67478 16,21 3.48688,12.31186 -1.84721,27.84683 4,40 5.54465,9.84621 3.39144,-5.41775 3,-10 -0.15301,-10.95903 -0.99503,-23.63399 3,-34 10.56413,10.63807 19.8341,21.8122 17,38 -3.5818,15.64898 -22.204,21.0639 -32,33 -4.59912,3.28057 -15.97254,16.11711 -12,3 3.72892,-15.72376 2.59531,-34.09637 -4,-48 -6.103,-14.85063 3.61607,-28.70527 5,-43 z"
       id="path3"
       style="stroke-width:1.5;stroke-dasharray:none" />
    <path
       d="m 490,818 c 5.23002,-0.64307 3.60812,12.07562 8,16 9.3123,15.04969 12.66859,37.0343 3,53 -5.48642,13.7582 -5.95178,30.35736 -4,46 -3.22285,7.03101 -11.84391,-9.16821 -17,-12 -10.55853,-9.45891 -22.82338,-18.559 -32,-29 -1.28981,-15.46726 3.80326,-28.29063 14,-39 3.69788,8.57286 1.29223,19.67388 8,27 6.05336,7.95421 9.10455,17.15196 13,26 5.25986,-15.5391 -10.25269,-26.13908 -10,-41 -2.46915,-12.31476 1.06246,-25.79198 7,-36 2.83444,-3.90657 6.27724,-7.44832 10,-11 z"
       id="path4"
       style="stroke-width:1.5;stroke-dasharray:none" />
    <path
       d="m 639,804 c 6.41743,2.91014 18.55803,10.04339 21,19 -1.75067,7.11256 -11.45952,15.97107 -18,15 -5.53696,-9.50687 -4.40653,-22.87195 -3,-34 z"
       id="path5"
       style="stroke-width:1.5;stroke-dasharray:none" />
    <path
       d="m 570,797 c 10.02716,3.14535 20.88733,16.71197 28,26 5.66534,12.41476 10.8116,25.04454 20,36 -6.81199,7.85108 -16.67644,14.44432 -25,21 -1.2931,-11.04035 -1.83331,-22.39257 -9,-31 -9.54945,-13.64415 -15.82332,-28.64509 -14,-47 0,-1.66667 0,-3.33333 0,-5 z"
       id="path6"
       style="stroke-width:1.5;stroke-dasharray:none" />
    <path
       d="m 435,787 c 7.08142,-2.90449 0.0926,10.35612 1,15 1.58051,20.19714 -3.17716,37.76892 -16,52 -1.60155,7.15907 -7.73762,15.7443 -14,6 -7.35891,-9.03231 -19.20298,-13.79854 -25,-22 0.85879,-14.18567 9.06396,-26.31591 21,-35 3.79136,11.61502 5.24647,24.19774 11,35 4.02691,-1.83237 1.0683,-13.92443 -1,-19 -2.72755,-9.13018 -1.34718,-20.77577 9,-24 4.51865,-2.98523 9.16232,-5.80489 14,-8 z"
       id="path7"
       style="stroke-width:1.5;stroke-dasharray:none" />
    <path
       d="m 515,778 c 7.04801,2.13083 9.17388,14.64334 14,21 7.90706,15.98007 5.90016,37.69762 -2,53 -14.42434,-13.92746 -24.23194,-33.13177 -18,-53 2.64022,-6.74706 3.927,-14.02112 6,-21 z"
       id="path8"
       style="stroke-width:1.5;stroke-dasharray:none" />
    <path
       d="m 406,748 c 5.93012,0.88179 1.75172,13.92162 3,20 -3.56304,11.23731 -4.31108,25.30262 -17,31 -10.88951,9.11277 -15.41032,20.86354 -19,33 -7.99041,-5.21842 -15.48895,-11.62431 -23,-18 21.02724,-14.68761 18.54798,-42.92238 41,-57 4.55829,-3.94754 10.08233,-5.91082 15,-9 z"
       id="path9"
       style="stroke-width:1.5;stroke-dasharray:none" />
    <path
       d="m 485,747 c 5.87788,1.62634 7.71458,13.16919 9,20 5.56191,19.38443 -7.54577,34.7036 -20,48 -7.98292,11.73093 -10.72458,25.63287 -22,36 -9.13582,9.48215 -8.77543,22.89776 -14,34 -7.17674,-4.94993 -23.5241,-13.81642 -14,-24 9.52765,-12.20547 17.88727,-24.89475 18,-41 3.38303,-19.71715 7.87638,-38.97439 25,-53 6.06849,-6.62832 14.02645,-12.51277 18,-20 z"
       id="path10"
       style="stroke-width:1.5;stroke-dasharray:none" />
    <path
       d="m 564,746 c 10.997,2.65978 23.47045,10.30686 35,15 19.74698,9.31728 34.00961,29.28121 32,52 -1.17507,11.84375 2.09727,21.84533 5,32 -5.83125,8.55276 -13.24784,11.20217 -19,1 -9.82773,-11.69065 -8.16728,-28.13985 -20,-39 -8.64248,-10.30793 -21.80315,-18.80802 -25,-32 -3.89066,-9.09788 -6.58893,-18.89206 -8,-29 z"
       id="path11"
       style="stroke-width:1.5;stroke-dasharray:none" />
    <path
       d="m 685,737 c 6.77712,0.0771 13.59442,8.52137 22,8 8.35116,3.99484 21.43532,5.91036 24,17 -8.02956,6.23615 -15.50897,19.22422 -24,21 -7.25926,-11.08787 -19.93464,-19.93231 -20,-34 -1.73496,-3.37108 -0.90294,-8.28301 -2,-12 z"
       id="path12"
       style="stroke-width:1.5;stroke-dasharray:none" />
    <path
       d="m 340,734 c 10.34926,-4.84848 4.05938,6.74171 3,12 -2.90829,14.53857 -13.32584,31.0547 -29,35 -5.84155,-4.66107 -17.69822,-12.04846 -6,-18 10.2003,-11.0803 14.20362,-28.40318 32,-29 z"
       id="path13"
       style="stroke-width:1.5;stroke-dasharray:none" />
    <path
       d="m 296,732 c 7.68006,-1.87994 18.2714,-2.12344 24,4 -9.14699,9.00383 -12.15288,23.17976 -25,28 -5.73846,-7.51032 -18.22974,-14.5813 -16,-24 5.44167,-3.02301 10.51032,-7.53272 17,-8 z"
       id="path14"
       style="stroke-width:1.5;stroke-dasharray:none" />
    <path
       d="m 735,705 c 12.68434,-2.70758 26.95575,-0.56607 38,4 -3.08024,6.93561 -8.76238,19.19345 -18,13 -11.29035,-2.62411 -23.93258,-5.52518 -31,-16 2.71353,-2.17876 7.56975,-0.4446 11,-1 z"
       id="path15"
       style="stroke-width:1.5;stroke-dasharray:none" />
    <path
       d="m 416,700 c 9.91955,-4.00082 12.33691,1.5697 4,8 -9.3398,14.11414 -19.32785,30.08995 -35,39 -16.78249,10.65565 -20.89226,28.95655 -27,45 -5.06156,5.5406 -13.29721,22.93663 -21,11 -5.22445,-5.2586 -21.82535,-12.51252 -10,-20 15.09133,-11.2559 24.58401,-26.4477 29,-43 6.64532,-16.99332 22.5126,-30.90647 40,-35 6.12931,-2.64053 12.86036,-4.82781 20,-5 z"
       id="path16"
       style="stroke-width:1.5;stroke-dasharray:none" />
    <path
       d="m 589,699 c 10.55124,-1.39625 22.81625,1.60712 34,2 17.31539,4.32201 35.90908,8.98377 47,26 8.89742,14.07599 6.60897,32.78532 20,45 4.8707,7.28785 18.38723,17.68918 6,24 -8.51229,8.17744 -16.86039,16.75125 -27,21 -12.72354,-11.11714 -25.36291,-21.87015 -31,-37 -4.76757,-10.39611 -16.26919,-18.00288 -22,-28 18.31407,-4.40164 38.95336,6.4128 45,24 4.87767,6.22239 7.4384,18.50608 17,19 -4.70311,-10.5135 -9.93146,-20.80944 -13,-32 -12.34784,-21.12656 -37.62971,-21.48131 -55,-35 -10.50313,-7.00033 -15.88473,-18.62451 -23,-28 l 1,-1 z"
       id="path17"
       style="stroke-width:1.5;stroke-dasharray:none" />
    <path
       d="m 277,699 c 12.84782,-3.1105 26.18435,1.28692 38,4 -11.44553,17.08865 -31.75271,18.75209 -47,29 -6.2393,-7.00255 -15.32775,-15.06829 -16,-23 7.74192,-4.57431 16.33807,-7.64454 25,-10 z"
       id="path18"
       style="stroke-width:1.5;stroke-dasharray:none" />
    <path
       d="m 511,698 c 3.45864,1.67294 5.64645,12.38416 10,17 14.29149,18.57943 33.38121,35.17137 35,59 3.78525,14.51298 0.96889,31.76043 3,47 2.78964,7.12408 2.99501,17.40271 -4,6 -20.39591,-19.5223 -15.52983,-49.50846 -36,-69 -9.41529,-11.78134 -17.21995,-25.87894 -13,-42 1.61328,-6.0132 1.88304,-12.60596 5,-18 z"
       id="path19"
       style="stroke-width:1.5;stroke-dasharray:none" />
    <path
       d="m 358,692 c 7.72456,-1.65729 18.27544,-1.65729 26,0 -10.21916,7.55594 -23.48864,14.94704 -32,27 -11.76191,8.28978 -28.20494,11.17737 -42,6 -2.42928,-4.29516 11.59628,-8.03232 15,-14 9.39487,-10.33975 19.22634,-19.21247 33,-19 z"
       id="path20"
       style="stroke-width:1.5;stroke-dasharray:none" />
    <path
       d="m 665,691 c 19.84974,-4.96447 36.0079,8.08708 49,23 11.92883,9.86218 27.29816,11.41826 41,17 -0.0278,7.20166 -10.86491,13.53448 -16,20 -13.28502,-16.02594 -33.83499,-14.51275 -49,-26 -11.62921,-11.08624 -20.84136,-24.48864 -35,-30 0.93203,-3.26271 6.66339,-4.05291 10,-4 z"
       id="path21"
       style="stroke-width:1.5;stroke-dasharray:none" />
    <path
       d="m 480,682 c 3.85692,0.58379 -1.52645,11.45149 0,17 -0.16738,24.6014 -9.82607,45.27137 -29,62 -10.83364,10.0111 -22.66634,17.61026 -35,24 -1.72547,-10.15034 5.01888,-20.34206 3,-32 -1.80069,-23.31249 14.27577,-42.94301 34,-53 9.13286,-5.68566 18.35543,-11.15967 27,-18 z"
       id="path22"
       style="stroke-width:1.5;stroke-dasharray:none" />
    <path
       d="m 531,677 c 7.90455,2.58309 16.76239,11.31305 26,14 19.88769,11.26526 28.73223,34.65468 48,48 10.82418,6.49761 1.12671,9.63076 -6,5 -20.65101,-7.97999 -43.70072,-15.77032 -57,-37 -4.09419,-9.75778 -9.71804,-19.10484 -11,-30 z"
       id="path23"
       style="stroke-width:1.5;stroke-dasharray:none" />
    <path
       d="m 511,72 c 8.42419,2.44858 16.57581,14.215618 25,20 31.01578,27.5142 64.34855,49.43466 97,73 36.70514,25.88343 71.9344,55.32996 105,90 22.437,25.85249 43.2989,52.35741 59,81 14.26312,25.64837 24.88988,52.80297 33,81 5.04905,21.28933 9.99509,42.62132 10,66 2.76443,15.49518 -0.0766,32.2423 0,48 -2.50325,16.06769 -3.84271,32.61743 -8,48 -5.50292,24.70099 -13.82637,48.23368 -24,71 -7.9399,16.91051 -16.00232,33.77028 -28,49 -15.09829,3.16389 -29.03887,-4.91899 -45,-3 -27.11378,3.12681 -42.78541,-21.37018 -70,-18 -14.07157,3.08507 -28.77635,7.76638 -44,5 -20.54856,-5.87092 -42.02423,-9.5036 -59,-24 -19.64506,-17.64786 -24.02379,-41.61925 -25,-67 -3.11918,-17.98481 0.47702,-36.80406 5,-53 6.93142,-19.91317 19.77718,-42.25809 41,-51 16.64152,-5.98975 40.31021,-6.87854 54,6 5.52221,15.4829 -10.59966,30.39139 -1,45 4.64185,10.17002 18.81519,17.98206 26,21 2.99305,-15.57088 3.39044,-33.50335 -9,-45 -3.48101,-4.10446 -13.0924,-15.64187 -6,-17 15.52385,6.73531 29.36449,17.53426 45,24 13.41752,11.31809 0.0958,33.71192 16,44 8.74161,6.29047 18.57819,9.93745 27,17 0.5963,-20.39573 -0.24711,-41.5833 -19,-53 -4.49202,-1.55522 -19.30944,-11.77878 -8,-11 14.87415,1.2662 30.61948,6.16859 38,21 13.82884,15.51667 35.47955,17.12114 55,13 -9.87351,-12.38105 -16.17981,-32.03078 -34,-35 -15.92735,-6.21093 -33.9871,4.19537 -50,-2 -13.26564,-2.35868 -28.08727,-0.96089 -39,-9 10.10234,-5.24692 22.84887,-4.76737 33,0 17.63392,4.41164 33.20361,-3.54531 46,-14 12.08505,-2.4064 -2.78842,-6.93041 -7,-11 -15.1623,-14.13224 -45.42017,-12.59852 -55,8 -11.98491,15.22611 -35.26979,9.20738 -48,0 -1.20706,-8.11113 11.0963,-1.22906 16,-2 17.57346,1.49314 30.33018,-14.18741 32,-30 5.0546,-8.26536 -8.08248,1.28704 -13,0 -14.99549,0.27998 -26.71028,8.80677 -36,21 -9.04229,6.57034 -16.34188,-6.53793 -26,-5 -5.82035,-1.55178 -18.75304,-0.42018 -7,-6 22.75791,-7.58445 43.9329,-18.99041 69,-21 22.93844,-1.81789 42.73459,3.95039 62,11 18.72369,2.92745 23.07749,25.68382 39,34 13.95977,9.76604 31.01204,2.90405 48,4 -9.3304,-13.44999 -14.56032,-32.51835 -32,-39 -16.02233,-6.16778 -34.92112,3.107 -51,-4 -6.73596,-1.36131 -13.44455,-2.78869 -19,-7 12.36346,-4.47956 27.02043,-3.42208 41,-4 15.73553,4.49559 31.09816,-2.82242 40,-16 4.85013,-5.99749 16.76365,-11.83844 4,-13 -12.03182,-2.4396 -25.71687,-5.40837 -36,3 -10.28425,7.79375 -19.10747,25.1562 -34,20 10.33971,-10.18466 14.33287,-26.77506 30,-29 21.23147,-11.00877 20.18529,-41.17993 10,-59 -6.76819,13.09852 -25.56259,17.75325 -29,33 -6.92907,15.05619 3.06703,38.51197 -15,48 -14.49308,9.29813 -36.73446,10.81911 -53,4 7.35578,-11.01053 16.88661,-21.76654 30,-24 12.2414,-3.73316 22.39173,-14.77856 23,-28 1.42653,-6.00312 4.47547,-14.97439 5,-19 -13.78212,6.13496 -33.47099,1.51189 -42,18 -8.77277,10.21832 -7.54773,24.57786 -11,37 -3.96704,4.44739 -12.14607,16.55086 -17,12 8.76642,-21.26832 7.93492,-46.51224 21,-66 8.15325,-15.13405 25.83615,-15.45201 41,-13 18.20964,0.21623 32.93914,-13.9227 39,-30 5.83852,-7.15891 -9.44166,-2.42749 -13,-6 -13.99525,-2.50891 -29.11357,-1.84244 -38,11 -6.82037,8.05363 -9.27232,19.98678 -21,22 -7.51782,8.05661 -9.17114,1.63889 -8,-7 1.6954,-18.68452 26.3814,-18.30262 33,-34 6.05661,-10.01005 8.83046,-21.37987 11,-33 -19.87438,-2.10662 -39.00098,3.89938 -49,21 -6.4182,12.22575 -0.72101,26.0883 0,39 -0.0453,14.02862 -3.10289,26.8095 -10,38 -9.87942,-11.23875 4.0913,-25.00364 -1,-38 -2.53045,-16.18717 -19.10074,-27.31781 -34,-30 1.07778,17.07235 -2.31687,35.99724 11,48 14.20803,7.83342 22.80027,22.23449 20,39 -3.74467,21.52683 -16.56917,44.01808 -38,53 -18.74657,6.47375 -37.25909,13.51256 -56,20 0.73504,-10.30797 7.88636,-21.54597 14,-31 11.70407,-13.07146 24.95467,-22.40928 41,-25 13.45258,-4.50178 20.52726,-18.7257 19,-33 4.38586,-9.48675 -17.07934,0.98648 -13,0 -14.26777,1.39257 -23.94619,14.27408 -25,28 -4.2984,5.55377 -12.09603,13.37486 -18,14 0.45639,-8.35009 6.23231,-17.9874 6,-28 8.63554,-13.08757 29.06502,-21.28763 27,-40 0.10748,-8.45865 -2.38314,-16.82948 0,-25 -13.9827,5.91158 -31.92502,13.38088 -37,30 -6.94115,11.15126 -0.4769,23.8853 4,34 -0.22491,16.64457 -5.72738,31.10311 -15,44 -5.68884,10.13933 -8.51554,0.28997 -7,-7 1.4308,-13.63674 13.19208,-24.97813 8,-40 -1.79787,-7.63601 -7.53839,-13.63892 -10,-21 -9.78047,11.10578 -20.02437,24.11433 -15,40 8.08081,10.83827 12.96211,23.00182 11,38 -3.77275,22.82205 -22.55874,39.42542 -39,57 -7.59727,-3.12082 -4.46249,-15.45276 -6,-23 -0.93052,-24.56948 -3.79425,-52.22396 5,-74 11.57654,-30.29793 39.29172,-56.3247 66,-77 15.33652,-11.32563 29.57375,-25.3052 46,-34 15.0764,-4.95362 31.21652,-7.3392 46,-13 13.21001,-8.04512 18.97749,-23.5936 19,-39 -15.11814,2.58474 -34.55143,4.91845 -40,22 -3.70427,9.406 -7.49896,23.32298 -21,22 -8.59661,5.9277 -11.39768,0.72661 -6,-7 3.64576,-15.06868 25.35602,-17.9233 27,-34 4.49338,-10.60193 -1.47694,-21.59735 -1,-33 -17.56345,5.50563 -35.28049,21.25096 -33,42 1.22287,13.81851 3.89034,29.86797 -9,39 -4.21215,5.8608 -11.96911,14.47335 -18,15 5.40987,-16.24009 4.45249,-35.71447 2,-53 1.56059,-13.39115 20.60305,-19.54107 22,-33 5.70609,-11.82483 1.85931,-28.56294 0,-40 -17.3135,9.07179 -39.91099,23.56254 -37,47 4.58527,15.95284 12.8138,30.39658 11,49 -7.66217,-1.71533 -7.01274,-15.06081 -10,-22 -4.55783,-14.43016 -18.79707,-25.3295 -34,-26 3.78019,16.48424 2.12894,37.83993 19,47 11.46723,0.0755 25.42034,9.97563 20,23 -4.41085,17.25071 -21.73135,28.43902 -35,40 -5.35304,-15.76329 8.14053,-29.29951 3,-45 -3.34153,-12.05459 -10.86513,-23.9108 -19,-33 -7.61529,13.25333 -15.63764,29.47644 -9,45 5.26159,10.50112 21.00205,16.66175 17,31 -6.5757,16.3612 -21.86934,29.11131 -32,44 -7.61872,-14.53458 -4.09669,-33.68381 -5,-51 0.98047,-22.25073 7.70328,-42.12291 12,-63 3.49831,-20.75718 10.43564,-41.443 29,-55 12.01776,-6.51575 31.81883,-10.54382 33,-28 2.339,-7.27996 5.55527,-18.05134 3,-25 -15.02948,4.18331 -33.54712,10.73687 -38,28 -4.62118,7.85708 -0.0785,19.50994 -8,26 -5.59243,-12.2395 -2.32584,-26.77263 3,-38 7.03032,-14.24917 0.16202,-30.21645 -3,-44 0.54618,-11.97484 -6.42924,-5.41722 -12,1 -15.87737,14.22307 -15.46463,40.75645 -2,56 9.5732,13.56173 7.00625,34.08314 -2,47 -1.12273,11.03661 -6.74745,6.67079 -7,-2 -3.88916,-16.17426 5.15998,-35.51065 -6,-49 -3.14183,-5.33152 -14.29503,-19.33996 -12,-17 -8.53548,12.44169 -17.36938,32.37781 -5,46 13.67906,11.44811 25.39392,26.01837 20,44 -2.23198,8.47398 -2.41585,19.30075 -9,25 -15.53172,-16.37535 -24.79967,-35.34524 -30,-56 -3.89199,-14.10509 -2.69221,-29.28344 -1,-44 -0.005,-12.40897 11.77136,-18.57034 21,-24 16.70606,-13.91661 13.52029,-38.79354 4,-55 -2.92013,-2.20873 -9.73681,11.9349 -16,14 -13.53658,10.34398 -20.01935,27.18061 -14,43 2.80256,12.45353 -1.60919,25.17931 -6,36 -7.1439,-9.0074 0.87838,-24.29683 -7,-33 -5.05194,-9.37928 -16.73967,-18.56776 -26,-19 -0.71219,17.62015 0.29415,37.77495 18,45 18.30692,12.23726 16.30842,35.17095 21,54 -0.78444,4.98712 -14.67621,-2.07858 -14,-8 3.99086,-15.92851 -7.76202,-30.36295 -20,-40 -7.15236,-2.74911 -15.24361,-12.16401 -20,-15 -11.89468,15.68232 -9.29202,43.68931 10,53 18.57854,11.39577 41.06855,16.70203 55,37 11.27203,15.5973 14.1333,34.67846 14,55 -0.40702,9.49161 -3.72142,12.14401 -8,2 -11.88086,-7.4595 -4.25661,-22.99828 -10,-33 -4.47597,-18.05751 -22.51486,-29.99874 -39,-35 -7.90156,-7.25659 -6.72215,4.41458 -5,10 -0.50269,19.478 10.49655,38.57879 29,45 16.72177,9.90495 24.66737,27.82846 26,46 4.32959,19.28933 1.44078,41.33337 -2,60 -1.61724,11.18829 -9.81079,-5.99223 -14,-9 -6.95535,-9.72707 -25.54919,-20.78332 -14,-33 6.15075,-8.05194 15.67672,-14.70581 14,-26 0.44563,-3.85628 2.12628,-17.63513 -5,-14 -14.55822,6.25559 -29.41841,22.19482 -22,39 2.48468,11.26402 -10.4528,-3.03165 -10,-8 -5.24934,-16.5014 8.72042,-28.19777 6,-45 -1.38176,-14.77339 -13.11133,-28.67661 -27,-34 -4.64548,17.68186 -8.27643,41.64987 6,56 5.52857,6.49223 11.11095,15.29483 8,24 -14.64484,-10.35157 -29.22224,-25.60743 -34,-42 -6.26066,-14.97319 -7.54883,-40.24386 11,-47 11.9591,-9.40949 7.53597,-29.38678 11,-40 -18.13295,1.05946 -33.20051,20.73409 -27,39 4.28116,8.08158 -3.97053,15.23066 -6,4 -4.83318,-16.54666 -5.30179,-38.2759 8,-51 8.99186,-11.51531 8.4021,-28.46194 2,-41 -1.9131,-3.55524 -6.02026,-19.37133 -9,-12 -10.29489,12.88573 -19.89958,28.17997 -15,46 3.36874,10.61958 11.00542,23.16315 5,35 -7.94996,-3.89159 -5.85153,-16.85191 -13,-23 -8.41436,-13.20425 -22.70991,-18.04286 -38,-17 3.74145,14.36578 6.57013,32.70473 23,39 8.73116,5.00687 22.13902,1.94116 27,14 6.7108,9.28204 7.33758,23.33624 5,35 -11.24397,-11.51506 -27.58893,-17.45868 -33,-33 -12.28305,-18.22293 -34.66696,-23.97927 -55,-19 -7.9325,1.9332 -15.93184,3.30354 -5,10 8.62002,14.85845 20.6465,32.22885 41,29 18.49281,-1.96097 34.33338,2.48111 46,17 9.84372,10.07454 13.72755,22.61776 18,35 -6.43639,2.2892 -16.86897,-1.4456 -16,-10 -6.26576,-13.63322 -19.93265,-25.54081 -36,-24 -3.08773,0.54366 -17.17672,-1.94531 -16,2 10.99373,11.76693 11.97333,33.71016 31,36 11.87139,2.97715 25.25689,2.29892 36,8 27.67248,10.53637 50.32954,37.96271 71,61 12.63675,18.46992 23.3743,37.72651 22,62 -5.12452,7.68374 -11.64577,-9.66284 -18,-11 -14.40807,-15.59273 -37.16398,-20.67034 -46,-41 -11.77491,-14.32392 -3.41239,-38.45622 -22,-49 -9.4479,-6.8043 -20.86836,-8.8464 -31,-14 -1.17171,17.65581 1.23543,39.21061 20,44 11.91294,3.70912 24.61019,11.51356 27,25 -5.24742,9.28645 -15.45229,-2.05392 -23,-2 -10.04111,-3.42431 -22.13056,-6.43448 -27,-18 -15.23711,-17.27843 -14.87018,-41.02027 -26,-60 -7.35575,-14.2143 -28.7428,-19.99718 -28,-38 -4.12067,-13.1027 -16.50294,-23.88231 -30,-26 -4.9562,-0.96551 -15.46288,-9.61192 -13,1 0.80301,14.61492 6.94466,32.30537 23,36 15.03417,4.56049 28.63595,12.57905 40,26 3.64594,3.11469 11.37217,18.27136 4,13 -6.56202,-5.15998 -16.85909,-10.49137 -23,-11 -3.71464,17.52594 4.66428,38.28219 22,44 7.93089,3.51488 21.30686,10.04955 20,20 -21.07976,-0.62198 -37.02879,-13.63067 -52,-29 -9.63579,-11.27506 -13.08552,-25.11246 -14,-40 -4.29719,-17.59298 -21.80005,-31.67586 -40,-32 -6.74508,-3.86677 -12.36417,-3.74831 -10,6 2.35762,16.30341 12.2582,35.20279 30,39 7.49113,1.7189 18.60958,2.59832 19,13 1.66618,4.0288 11.92801,17.26428 2,14 -14.68653,-4.54465 -18.49388,-24.85102 -35,-26 -15.37397,-4.53438 -28.9449,4.01201 -43,6 10.63097,14.52358 24.24731,29.33718 44,26 12.01033,-4.82436 25.55666,-6.31378 37,1 3.93485,1.02433 19.80031,11.38273 9,11 -13.46221,-0.0696 -28.02016,7.30283 -40,-1 -16.52114,-7.23086 -39.11739,-5.87627 -51,10 -8.25307,6.31841 -17.6045,14.11986 -17,13 13.03146,10.38173 32.93898,18.24289 49,9 14.92132,-7.05188 25.5955,-24.35725 44,-23 15.874,-2.83448 33.42206,-0.84 45,10 8.23927,6.22035 -22.33101,1.09479 -14,3 -14.56997,-8.00427 -37.95623,-9.86187 -48,7 -3.16658,5.58541 -10.02321,13.44811 -10,18 19.60457,1.45989 42.48359,3.5858 54,-15 9.99109,-9.26415 25.65762,-4.82658 39,-6 7.7198,2.45467 17.8516,2.69111 23,9 -12.49226,5.1686 -25.74824,8.49342 -41,7 -16.27845,2.52302 -29.90769,11.4418 -47,12 13.18981,12.13465 29.41837,26.329 48,19 16.11257,-3.18342 15.11916,-28.29133 33,-29 19.70867,-3.9109 44.31448,-3.771 57,13 -11.89392,6.11709 -23.80868,-3.67336 -37,-1 -18.20186,1.88969 -30.11134,20.33038 -35,36 11.30635,0.88188 22.80032,5.63146 34,1 14.61594,-0.9978 21.95554,-16.06103 31,-26 16.9921,-3.67597 32.4944,8.42905 42,22 9.38861,13.65358 15.95606,28.47573 16,46 -7.15789,0.0518 -13.69675,-10.0557 -21,-13 -18.12903,-11.32167 -37.92579,-18.61706 -61,-18 -9.22874,-2.1125 -19.73913,1.26803 -30,0 -18.87855,3.95184 -35.98851,-5.28503 -51,-14 -17.86504,-13.26863 -40.40515,-15.25064 -56,-34 -15.55363,-10.71183 -40.51915,-11.5047 -55,2 -6.41301,3.02657 -16.45461,10.98428 -16,10 12.77594,10.89794 27.14515,17.94942 44,19 10.33128,-0.45267 18.43621,-6.28024 27,-11 6.26186,-1.78365 15.65191,0.2817 20,4 -11.93869,3.34328 -24.00086,6.38846 -35,12 -17.04161,1.90236 -35.67987,13.11607 -40,31 -3.72408,9.42393 -3.37589,20.53466 -7,30 14.67044,-5.95079 33.50782,-7.6612 42,-24 7.55785,-12.09966 5.68861,-32.62875 23,-37 16.07242,-8.27834 36.37672,-2.65535 50,7 11.37492,3.14856 -0.11383,8.713 -7,7 -12.96078,-2.53497 -28.31906,-6.23528 -38,6 -7.26996,8.8732 -12.6482,22.25742 -17,30 18.8746,3.63125 39.36796,0.12684 50,-17 5.30371,-10.77084 15.61337,-16.26504 28,-14 6.3046,2.33602 19.34287,-2.14164 20,7 -12.17834,11.86929 -27.94398,15.07806 -43,20 -13.76539,9.41237 -13.80276,26.53217 -20,40 4.95784,2.56686 11.92983,-4.90648 19,-3 17.37834,-2.11647 36.40751,-16.64972 36,-36 5.73211,-13.60221 21.64833,-18.8883 35,-21 23.66793,-3.70486 46.44797,3.07506 65,15 19.89545,14.2807 34.67265,35.12588 36,59 1.50944,27.90721 -10.18023,51.7221 -32,69 -17.49185,11.6153 -41.50735,13.00728 -63,9 -18.15735,-2.36752 -36.34562,0.008 -51,9 -10.75119,4.90162 -22.79781,10.2575 -35,6 -14.77427,-5.17561 -30.23165,0.25157 -43,6 -7.68836,2.92801 -17.86653,3.59537 -21,-6 -16.16614,-23.60766 -26.75876,-49.52395 -36,-76 -7.57937,-22.54107 -14.01359,-45.55647 -17,-70 -3.25894,-20.39765 -3.22979,-42.15727 -3,-64 2.11822,-14.6177 2.52198,-29.94555 6,-44 4.78088,-25.19533 13.14377,-48.90695 23,-72 12.97539,-28.39091 29.16817,-55.44912 49,-81 26.07549,-34.27532 60.38858,-65.8601 94,-92 29.13994,-22.93829 59.42841,-43.1038 89,-65 23.18191,-17.33683 45.68113,-36.600379 68,-56 z"
       id="path24"
       style="stroke-width:1.5;stroke-dasharray:none" />
  </g>
</svg>
