<?xml version="1.0" encoding="UTF-8" standalone="no"?>
<svg
   version="1.1"
   width="102.933mm"
   height="147.933mm"
   viewBox="0 0 686.2183 986.21755"
   id="svg21"
   sodipodi:docname="lion_leaf_design (1).svg"
   inkscape:version="1.4.2 (f4327f4, 2025-05-13)"
   xmlns:inkscape="http://www.inkscape.org/namespaces/inkscape"
   xmlns:sodipodi="http://sodipodi.sourceforge.net/DTD/sodipodi-0.dtd"
   xmlns="http://www.w3.org/2000/svg"
   xmlns:svg="http://www.w3.org/2000/svg">
  <defs
     id="defs21" />
  <sodipodi:namedview
     id="namedview21"
     pagecolor="#ffffff"
     bordercolor="#000000"
     borderopacity="0.25"
     inkscape:showpageshadow="2"
     inkscape:pageopacity="0.0"
     inkscape:pagecheckerboard="0"
     inkscape:deskcolor="#d1d1d1"
     inkscape:document-units="mm"
     inkscape:zoom="0.83899976"
     inkscape:cx="390.34576"
     inkscape:cy="532.18132"
     inkscape:window-width="2560"
     inkscape:window-height="1417"
     inkscape:window-x="-8"
     inkscape:window-y="-8"
     inkscape:window-maximized="1"
     inkscape:current-layer="g21"
     showgrid="false" />
  <g
     fill="none"
     stroke="#ff0000"
     stroke-width="0.1mm"
     stroke-linejoin="round"
     stroke-linecap="round"
     id="g21">
    <path
       d="m 380.70793,17.181031 c -25.82603,14.534374 -49.84855,33.422822 -74,52 -32.88511,25.52983 -64.92387,53.102919 -96,82.999999 -38.71877,36.6436 -77.67546,75.35311 -109,116 -20.330126,26.75869 -37.163366,54.96583 -51.999996,84 -7.33917,18.52618 -16.23051,36.40943 -21,56 -6.48969,18.44014 -10.28598,37.99592 -13,58 -4.19808,22.67531 -2.77176,47.68033 -3,72 2.03841,13.98409 2.90718,28.45266 6,42 4.87849,24.82157 12.59181,48.46891 23,71 14.58855,31.77009 33.8438,61.60717 58.999996,89 23.48246,27.09243 51.41934,49.44748 79,69 27.00467,18.26487 54.79546,34.63188 83,50 13.20872,8.8702 29.62575,13.6285 40,27 2.19843,23.37351 -18.90629,38.53045 -34,53 -0.73799,15.64598 18.07931,18.4713 28,24 10.27168,2.01933 22.97286,14.04185 33,4 16.31069,-26.61885 25.6532,-56.12403 51,-79 23.20478,-19.52931 49.64721,-31.24223 74,-48 25.58518,-14.44918 50.15062,-31.36022 74,-50 31.41073,-24.8478 62.65303,-56.48214 84,-89 15.96826,-22.96577 28.41961,-47.38829 38,-73 7.56949,-19.74042 12.50402,-40.57227 16,-62 2.68573,-18.77315 3.81376,-38.19153 4,-58 -1.65251,-11.72972 -1.56182,-24.1815 -3,-36 -3.23185,-19.31818 -6.21647,-38.73876 -12,-57 -6.82422,-24.23457 -16.21079,-47.40778 -27,-70 -16.32345,-31.66095 -35.33001,-62.21052 -61,-90 -28.96695,-32.95633 -62.87968,-59.74405 -96,-85 -23.59248,-18.89363 -50.5836,-39.75552 -66,-66 -11.25285,-18.548059 -16.10067,-39.749161 -16,-62.999999 1.25567,-7.485981 4.71969,-27.135085 -9,-24 z"
       id="path1"
       style="stroke-width:1.88977" />
    <path
       d="m 269.70793,737.18103 c 9.78272,3.21904 18.66584,17.35422 28,25 18.90177,22.02681 32.54825,46.23043 40,73 6.88814,20.14694 9.40155,47.16785 0,67 -1.49349,4.22865 -11.88545,19.23166 -12,13 1.14083,-22.77238 -1.78317,-43.86105 -7,-64 -6.17613,-21.95073 -13.5083,-43.42262 -23,-64 -7.63058,-17.08106 -17.05502,-33.47054 -26,-50 z"
       id="path2"
       style="stroke-width:1.88977" />
    <path
       d="m 467.70793,666.18103 c 4.17437,0.91416 4.0182,11.88691 6,17 2.85117,12.99022 2.8238,26.41299 2,40 -2.11688,24.16073 -8.85154,46.40871 -22,66 -10.49438,15.369 -26.28254,30.8013 -42,40 2.96984,-8.02253 11.32669,-17.3095 16,-26 14.73339,-24.25832 27.75935,-49.22387 34,-77 4.02933,-14.49276 6.48935,-29.63554 6,-46 2.87085,-4.05796 -0.36327,-9.65238 0,-14 z"
       id="path3"
       style="stroke-width:1.88977" />
    <path
       d="m 193.70793,639.18103 c 3.53079,0.25867 -0.39333,11.69265 1,17 -0.46673,24.65492 5.66605,46.57623 13,68 10.55243,25.89943 25.66608,49.90955 43,73 3.87048,7.53284 13.86412,14.71519 15,22 -25.21093,-14.95514 -51.15202,-39.38288 -66,-65 -10.89669,-19.41944 -15.49439,-41.44801 -14,-66 -0.10497,-17.45872 3.81275,-33.31974 8,-49 z"
       id="path4"
       style="stroke-width:1.88977" />
    <path
       d="m 329.70793,629.18103 c 18.07594,-3.64226 36.1825,1.45341 51,9 14.71971,6.625 32.8001,18.10172 29,38 -1.17027,13.66721 -8.28614,24.87166 -18,35 -0.30845,-11.45911 1.27951,-26.54613 -7,-36 0.009,3.07845 0.69364,15.14579 -3,20 -5.48437,14.52594 -19.20599,27.25768 -32,37 -1.52282,-5.07605 1.7892,-13.35689 -1,-19 -4.26238,6.92907 -8.80017,15.26202 -16,20 -18.60938,-13.92092 -35.4747,-32.7188 -36,-56 -6.59872,9.70463 -6.25171,22.28626 -8,34 -13.76683,-12.36488 -21.19661,-31.00966 -15,-49 11.17371,-17.98309 31.15706,-25.53448 49,-32 2.5808,0.0773 4.09488,-1.72781 7,-1 z"
       id="path5"
       style="stroke-width:1.88977" />
    <path
       d="m 499.70793,569.18103 c 7.89276,2.43828 12.50061,14.66739 19,21 10.04143,17.60213 18.46016,35.8764 20,57 2.43852,16.10028 1.1631,34.26129 -3,49 -7.8926,27.61065 -22.24369,52.5461 -45,74 0.33692,-8.80223 7.5512,-18.28332 9,-28 7.24795,-19.54027 12.44357,-39.93065 16,-61 1.65219,-14.99851 1.26885,-28.72375 1,-44 -2.39286,-15.38956 -4.97866,-30.6992 -10,-45 -1.61042,-7.92153 -5.39255,-15.08734 -7,-23 z"
       id="path6"
       style="stroke-width:1.88977" />
    <path
       d="m 173.70793,549.18103 c 4.28068,1.1962 -4.83537,11.66952 -5,17 -8.74457,18.19649 -14.82301,37.49734 -18,58 -4.17395,19.5923 -3.4126,42.3379 -2,63 3.27055,16.63548 6.70084,33.20479 12,49 1.12748,6.77786 6.72834,13.82775 6,20 -22.94116,-22.76786 -38.49056,-48.59748 -43,-79 -3.15285,-22.60155 0.89965,-45.31889 8,-65 8.79342,-23.22362 23.71362,-43.71011 42,-63 z"
       id="path7"
       style="stroke-width:1.88977" />
    <path
       d="m 526.70793,507.18103 c 10.44581,4.39709 21.22943,16.65133 31,26 19.85133,21.1384 31.28013,45.76552 34,74 3.14122,20.28663 -0.53232,41.32185 -7,59 -7.18586,19.38461 -18.70971,36.97236 -34,53 -0.42285,-8.83823 6.32875,-18.23793 7,-28 5.05619,-17.01023 8.16797,-34.82586 8,-54 2.73187,-10.94808 -1.53295,-22.58306 -1,-34 -3.67213,-17.88335 -7.66944,-35.63202 -15,-52 -6.82599,-14.99866 -14.55099,-29.68575 -23,-44 z"
       id="path8"
       style="stroke-width:1.88977" />
    <path
       d="m 128.70793,482.18103 c 4.05566,1.13157 -4.16762,11.90964 -5,17 -10.48528,21.91337 -19.26147,44.53467 -25.999996,68 -6.00416,22.75564 -10.27172,46.2306 -9,72 0.55854,6.46889 1.62646,18.26309 -3,7 -7.39693,-20.45488 -12.15359,-42.00339 -11,-66 3.00777,-19.57276 7.9991,-38.32389 18,-55 8.718266,-15.57326 20.953246,-31.00311 35.999996,-43 z"
       id="path9"
       style="stroke-width:1.88977" />
    <path
       d="m 440.70793,414.18103 c 3.91252,0.71053 2.64397,13.9523 -2,17 -7.49982,9.52123 -28.75595,8.04536 -29,-6 5.73357,0.6631 14.62084,9.17072 22,3 5.77039,-2.1939 7.83231,-8.97618 9,-14 z"
       id="path10"
       style="stroke-width:1.88977" />
    <path
       d="m 240.70793,413.18103 c 3.62219,1.12007 3.05541,14.14123 11,15 6.55972,4.65307 14.78205,0.66062 20,-4 4.17699,12.28073 -16.35187,16.49992 -24,10 -7.00472,-3.46335 -11.83559,-14.24424 -7,-21 z"
       id="path11"
       style="stroke-width:1.88977" />
    <path
       d="m 538.70793,409.18103 c 8.44743,-0.10756 16.0883,10.47844 24,15 20.61805,17.89333 39.50222,38.41626 51,61 10.21732,18.9198 17.55409,39.03276 18,62 2.45347,12.97455 0.36772,27.6446 -2,40 -3.51575,-13.25777 -5.51353,-27.14431 -10,-40 -8.62007,-25.12387 -19.33032,-49.38196 -34,-72 -13.63977,-22.81168 -29.71542,-44.6984 -47,-66 z"
       id="path12"
       style="stroke-width:1.88977" />
    <path
       d="m 162.70793,374.18103 c 4.409,1.55672 -6.34873,11.94317 -8,17 -17.7271,24.07954 -39.596,46.44349 -60.999996,69 -17.38046,20.71415 -31.54626,42.75985 -38,68 -2.13163,3.27161 -2.36508,19.44912 -5,13 -2.67752,-13.83549 -1.17806,-28.1818 1,-42 5.58601,-24.81852 21.43419,-45.38631 42,-64 22.513396,-20.03669 46.518246,-36.47269 67.999996,-59 v -1 z"
       id="path13"
       style="stroke-width:1.88977" />
    <path
       d="m 88.707934,339.18103 c 5.63015,-0.36558 7.26487,11.74061 11.999996,16 3.67283,6.41104 14.61429,12.44746 15,18 -24.892456,22.44422 -50.844156,46.3907 -66.999996,74 -2.07891,-11.03246 4.37196,-22.12378 6,-33 8.93488,-25.18873 19.4007,-49.74333 33,-73 l 1,-1 z"
       id="path14"
       style="stroke-width:1.88977" />
    <path
       d="m 588.70793,334.18103 c 6.07422,1.71954 8.74964,13.21185 13,19 10.5675,22.35072 20.63112,44.91015 27,69 3.88552,13.49513 6.64929,27.45491 8,42 -5.57869,-1.70735 -8.52169,-12.93955 -14,-18 -14.57464,-24.49971 -36.11018,-46.11612 -57,-68 10.43934,-13.61405 17.59391,-28.30162 23,-44 z"
       id="path15"
       style="stroke-width:1.88977" />
    <path
       d="m 253.70793,313.18103 c 18.26252,-3.44298 36.35244,2.39061 51,11 13.91889,7.40661 27.008,20.68165 36,34 12.74575,-18.95503 32.03893,-36.24546 53,-42 19.85071,-6.87274 46.30556,-6.10104 62,9 19.18318,19.46253 28.36464,43.06791 44,64 8.49405,13.88605 17.35565,27.61986 15,46 -1.67366,22.58327 -21.91917,40.14712 -41,50 -12.76277,8.73422 -26.38846,20.44903 -26,37 -0.81087,11.62128 -10.00903,-1.52138 -14,-6 -13.90258,-16.30262 -27.55573,-32.70855 -27,-55 -3.61962,-9.46418 5.28839,-19.56709 16,-17 15.13202,-1.3365 30.35317,-10.50588 34,-26 6.35483,-7.60862 18.21356,-5.77016 25,-10 -13.99182,-11.99951 -32.00405,-18.23239 -51,-15 -15.52239,1.85322 -27.23698,12.89928 -41,19 -13.54588,-3.36283 -11.05712,-23.1133 -7,-33 -14.0781,11.96863 -11.91364,34.3569 -3,48 9.42753,18.46589 15.45696,38.33932 22,58 13.02355,23.09482 38.00633,41.23595 47,66 3.1413,12.47609 -8.79256,18.30078 -19,18 -3.03184,2.63198 -19.22598,0.86427 -13,3 9.86644,3.26526 20.47392,4.74148 32,4 4.64772,12.72847 -8.66418,23.98026 -21,23 -5.90692,2.89486 -18.10759,-0.39744 -21,0 9.63364,6.29869 21.92896,6.17149 33,9 -4.41961,20.77939 -31.60486,28.6309 -49,19 -15.01013,-5.04747 -30.5071,-12.37916 -41,-26 -8.5665,-19.39281 12.21621,-35.53977 27,-44 12.70367,-5.72806 30.69076,-17.01699 25,-34 -3.63646,-12.98061 -4.00723,9.31519 -13,7 -17.61485,-5.08398 -33.52632,6.08754 -52,5 -11.24124,-2.55567 -22.20715,-5.77603 -34,-7 -6.48597,2.9265 -16.30554,2.9414 -18,-6 -2.01741,-9.41667 -6.13916,5.1502 -5,10 3.43591,18.6547 24.97426,21.90973 37,33 12.0054,7.82496 24.21786,23.34113 15,37 -11.26219,14.46078 -28.13073,21.31337 -44,27 -16.42705,5.87737 -38.53069,-0.14263 -44,-18 -2.75508,-6.75308 10.63815,-3.21407 15,-5 5.58262,-1.80675 16.01499,-4.58297 18,-7 -15.13336,2.10307 -38.40627,3.47641 -43,-14 -5.26341,-8.59594 4.57871,-10.25227 10,-9 8.87739,1.15511 20.49748,-3.67519 25,-5 -12.84765,-0.85705 -29.12006,0.0667 -35,-13 0.12549,-20.75682 18.32541,-34.02697 30,-50 11.48308,-12.41919 20.00854,-26.06347 23,-42 5.98926,-17.41866 12.71623,-34.53175 21,-51 2.58115,-7.53765 3.25955,-18.85364 -3,-24 1.45957,9.86687 -4.72934,25.41846 -16,19 -16.24389,-12.54066 -36.09012,-21.40508 -58,-17 -11.45173,2.63328 -21.93978,7.59311 -31,16 9.98903,2.5747 24.79565,2.27221 27,15 7.22158,14.42114 22.86301,20.75084 39,20 11.71641,1.31436 11.84869,14.68832 10,24 -3.46774,22.86751 -19.96383,40.3385 -36,58 -6.47758,4.44247 -3.52526,-9.7383 -6,-14 -8.70833,-21.30911 -37.86022,-29.34031 -45,-52 -3.43083,-6.79786 -4.24605,-14.67913 -4,-23 -4.63538,8.93208 -8.00915,18.38673 -11,28 -7.09764,-13.55516 -5.98848,-30.50968 -6,-47 4.69666,-17.7825 17.83033,-32.07028 27,-48 12.31432,-17.66061 20.51773,-40.50758 41,-52 5.74006,-2.1743 11.4038,-4.91233 18,-5 z"
       id="path16"
       style="stroke-width:1.88977" />
    <path
       d="m 529.70793,268.18103 c 16.99407,-3.33499 33.51725,14.67763 35,31 4.29815,23.17025 -4.16488,45.99025 -23,60 -2.4183,-3.47737 3.66421,-12.41397 5,-18 2.62343,-16.67082 5.40615,-38.79478 -11,-49 -16.38884,-1.1005 -28.7678,7.4797 -42,14 -4.60163,-5.35246 -15.49195,-8.18654 -17,-13 15.92493,-12.19245 32.38537,-24.19092 53,-25 z"
       id="path17"
       style="stroke-width:1.88977" />
    <path
       d="m 146.70793,268.18103 c 12.07638,-2.00507 24.48316,3.91841 35,9 8.25234,4.6145 17.8812,9.59854 24,17 -6.47507,3.43896 -12.99949,12.17585 -20,11 -12.10787,-7.01535 -25.94992,-15.42317 -41,-12 -13.28882,9.48448 -12.62867,28.21984 -10,43 0.29087,8.13835 5.77668,16.20319 6,23 -18.061,-11.89934 -25.76242,-32.4159 -25,-54 2.61446,-15.97159 11.35045,-36.74575 31,-37 z"
       id="path18"
       style="stroke-width:1.88977" />
    <path
       d="m 459.70793,238.18103 c 16.62291,-3.67893 33.09998,1.77933 47,8 -15.34733,2.4948 -30.90018,4.49344 -45,10 -21.83546,8.23548 -42.27377,19.84396 -60,38 0.37521,-9.58804 9.41217,-19.19382 15,-28 12.7185,-13.29335 25.52264,-26.18027 43,-28 z"
       id="path19"
       style="stroke-width:1.88977" />
    <path
       d="m 188.70793,238.18103 c 19.51556,-3.87521 37.7138,4.33389 53,14 13.19384,9.0119 23.44701,22.34606 32,35 -6.38143,-0.20234 -12.31048,-10.19684 -19,-13 -22.20306,-14.47627 -46.8547,-23.04113 -73,-28 -8.79873,0.18329 -13.93323,-3.41575 -3,-6 3.23002,-0.80841 6.3195,-2.32093 10,-2 z"
       id="path20"
       sodipodi:nodetypes="ccccccc"
       style="stroke-width:1.88977" />
    <path
       d="m 361.70793,63.181031 c 3.72295,0.847571 2.29702,12.031643 4,17 7.92852,32.309819 29.39016,59.014029 55,83.999999 8.0139,6.96645 16.05868,13.85834 24,21 -17.43199,2.3476 -34.37585,5.87367 -49,15 -15.2727,8.90898 -26.6725,24.71889 -33,40 -1.8168,-8.76145 1.69297,-19.70601 -1,-29 -1.68715,-20.48661 -9.66259,-38.36853 -11,-59 -2.96091,-7.52425 0.96708,-19.45313 -2,-26 -18.72101,13.70412 -37.29179,32.14357 -45,53 -5.19056,9.2879 -6.29285,20.26922 -8,31 -15.7842,-12.48749 -33.62885,-20.0006 -55,-19 23.52301,15.47205 38.57727,40.35305 49,64 4.78034,12.39344 -5.89943,-3.34013 -10,-7 -18.16732,-19.97676 -39.37072,-32.62378 -64,-37 -5.79038,-3.35497 -15.51347,-0.83906 -20,-5 37.16941,-37.80995 75.49592,-72.82643 115,-105 16.92291,-12.839169 33.67441,-26.136487 51,-37.999999 z"
       id="path21"
       sodipodi:nodetypes="cccccccccccccccccc"
       style="stroke-width:1.88977" />
  </g>
</svg>
