<?xml version="1.0" encoding="UTF-8" standalone="no"?>
<svg
   height="55mm"
   version="1.1"
   viewBox="0 0 48 55"
   width="48mm"
   id="svg19"
   sodipodi:docname="wolf_on_rock_cut.svg"
   inkscape:version="1.4.2 (f4327f4, 2025-05-13)"
   xmlns:inkscape="http://www.inkscape.org/namespaces/inkscape"
   xmlns:sodipodi="http://sodipodi.sourceforge.net/DTD/sodipodi-0.dtd"
   xmlns="http://www.w3.org/2000/svg"
   xmlns:svg="http://www.w3.org/2000/svg">
  <sodipodi:namedview
     id="namedview19"
     pagecolor="#ffffff"
     bordercolor="#000000"
     borderopacity="0.25"
     inkscape:showpageshadow="2"
     inkscape:pageopacity="0.0"
     inkscape:pagecheckerboard="0"
     inkscape:deskcolor="#d1d1d1"
     inkscape:document-units="mm"
     showgrid="false"
     inkscape:zoom="1.1365637"
     inkscape:cx="289.02911"
     inkscape:cy="401.64929"
     inkscape:window-width="2560"
     inkscape:window-height="1417"
     inkscape:window-x="-8"
     inkscape:window-y="-8"
     inkscape:window-maximized="1"
     inkscape:current-layer="svg19" />
  <defs
     id="defs1" />
  <g
     fill="none"
     id="cut"
     stroke="#ff0000"
     stroke-width="0.1"
     transform="matrix(-0.23986369,0,0,-0.25536305,47.647093,52.484048)"
     style="stroke-width:0.60608;stroke-dasharray:none">
    <path
       d="M 19.736842,0 C 15.936169,0.19908643 11.800335,-0.41097762 8.223684,0.328947 11.070399,2.4024862 14.59441,4.1733152 17.653509,6.25 c 2.117836,1.4227151 5.050174,2.1850914 5.921052,4.824561 2.113988,3.381231 3.019287,7.263116 5.153509,10.635965 2.900613,3.054301 6.868185,5.009827 9.100877,8.662281 0.869928,2.436774 3.674535,4.697848 2.412281,7.45614 -0.501255,3.564879 -1.555656,7.1425 -1.864035,10.635965 1.249003,3.94108 3.319958,7.541697 4.495614,11.513158 0.474897,2.410939 2.906383,2.932412 5.04386,3.070176 1.926855,0.581932 4.233624,0.246668 6.140351,0.877193 0.02047,2.03406 1.436475,3.794297 3.618421,3.618421 1.550857,0.861546 4.260201,-0.347631 4.824561,1.973684 1.366263,2.170554 2.56576,4.410185 2.083333,7.346491 -0.109474,5.411882 0.388555,10.572127 0.219299,16.008772 0.1451,2.719693 -0.09464,6.077725 -0.219299,8.991233 -0.372527,2.48032 -2.778408,4.11839 -3.72807,6.35964 -1.061564,1.51419 -1.61671,3.56839 -2.52193,4.93421 -1.024144,-0.5663 -2.019919,-1.74071 -2.302631,0.10965 -1.113703,3.95278 -3.12065,7.53557 -2.850877,12.06141 -0.74463,2.64187 0.428645,5.51661 -0.10965,8.22368 -0.868514,-0.35347 -1.591186,-3.51041 -2.083333,-1.20614 -0.531779,2.93993 -1.097402,6.22519 0.219298,8.99123 0.567185,1.22773 0.916993,2.78479 -0.657894,1.31579 -1.382069,-1.89494 -0.872661,1.6098 -0.657895,2.41228 -0.05084,3.00499 1.863388,5.44402 2.52193,8.00438 -1.169413,-0.53249 -2.773279,-0.86236 -1.425439,0.76755 1.194281,2.84585 3.241198,5.33851 4.605263,8.11403 -1.316077,-0.29442 -3.219962,-0.81241 -1.425438,0.98685 3.06827,2.57592 2.998825,6.6801 2.631579,10.52631 -0.906895,3.45517 -3.172621,6.3475 -4.714913,9.53948 -0.293829,1.62219 -0.07317,4.36062 1.864035,4.71491 1.691855,-1.26234 2.259821,-3.63815 4.166667,-4.38597 0.850123,3.53999 -2.187925,6.31108 -1.20614,9.75877 1.474995,1.73127 3.257777,3.33503 3.72807,5.48246 0.819001,1.9844 3.550951,1.71836 4.057017,-0.32895 2.57546,-4.22386 4.590731,-8.67977 7.346492,-12.82894 2.558419,0.12983 4.822262,-0.45149 6.469298,-2.52193 3.943658,-3.79995 4.567189,-9.26287 9.100877,-12.60965 2.813135,-2.64006 6.713975,-4.35476 8.552632,-7.89474 -1.209598,-2.16634 -4.349444,-2.19449 -6.469299,-3.17982 -2.01622,-0.17262 0.127142,-2.45514 0.438597,-3.50878 1.290138,-2.74876 3.671855,-5.29376 5.482456,-7.67543 -1.589538,-0.10925 -3.805568,-0.19624 -1.535088,-1.75439 3.793041,-3.08304 5.061386,-7.21185 7.236843,-10.96491 4.41982,-3.26831 9.28782,-5.45457 13.59649,-8.99123 4.58086,-3.12647 8.74916,-7.54793 12.5,-11.84211 3.92233,-4.48564 7.88153,-8.95603 10.63597,-13.92543 2.55633,-4.246486 3.24631,-9.266029 4.27631,-14.144741 0.77851,-3.410793 0.99221,-7.055545 1.09649,-10.745614 0.81557,-3.548795 4.84306,-4.523264 7.45614,-6.140351 3.20752,-1.406694 5.96914,-4.518247 8.22369,-7.346491 -1.57654,0.206337 -1.89736,-0.772681 -0.54825,-1.644737 2.55953,-2.925695 4.22087,-6.223427 5.04386,-9.868421 0.86665,-3.365413 0.49839,-7.242354 0.76754,-10.855263 0.0196,-2.187829 -2.63026,2.473294 -2.63157,-0.219299 -0.6054,-2.151564 -0.27097,-5.041659 2.19298,-5.482456 3.73319,-1.681444 7.38743,-3.553545 10.74561,-6.140351 3.39904,-5.144673 6.50619,-10.410251 9.86842,-15.570175 2.23283,-3.9486011 5.0619,-7.6502336 7.23685,-11.622807 -4.08075,-0.75827546 -8.74141,-0.11651541 -13.04825,-0.328948 -27.55848,0 -55.11696,0 -82.675438,0 C 91.846732,0.01321592 86.059895,0.30750408 81.140351,0.219298 60.724204,0.14619701 40.186941,0.36549888 19.846491,0.109649 Z"
       id="path1"
       style="stroke-width:0.60608;stroke-dasharray:none" />
    <path
       d="m 75.328947,180.15351 c 0.174525,1.67098 -1.808553,4.01558 -3.289473,2.85088 1.399605,-0.55293 2.186859,-2.5206 3.289473,-2.85088 z"
       id="path2"
       style="stroke-width:0.60608;stroke-dasharray:none" />
    <path
       d="m 87.828947,162.17105 c 0.741674,0.61427 1.454405,1.21372 2.302632,0.98684 0.28976,0.67408 -1.680016,2.85707 -1.31579,1.31579 -1.211499,-0.30284 -2.724719,1.15131 -3.399122,0.54825 1.284618,-1.76848 -2.146532,-0.45679 -2.960527,-0.10965 -2.261596,0.52646 0.956211,-2.05144 1.754386,-2.41228 0.899136,-0.076 1.393363,0.69816 2.631579,-0.2193 0.333212,0.0487 0.634903,-0.52142 0.986842,-0.10965 z"
       id="path3"
       style="stroke-width:0.60608;stroke-dasharray:none" />
    <path
       d="m 80.372807,143.5307 c 1.490721,1.75853 2.744674,3.84215 1.754386,6.14035 -0.76464,0.72134 -0.669191,-2.02167 -1.315789,-2.63158 -0.111963,-0.9518 -2.53824,-3.60348 -0.438597,-3.50877 z"
       id="path4"
       style="stroke-width:0.60608;stroke-dasharray:none" />
    <path
       d="m 76.20614,138.70614 c 2.636124,1.55686 3.321788,4.58734 2.631579,7.45614 -0.6486,0.70135 -1.033919,-1.77347 -1.535087,-2.41228 -0.675908,-1.43062 -2.24123,-2.37353 -1.535088,-4.16667 0.04498,-0.29489 -0.198343,-1.39131 0.438596,-0.87719 z"
       id="path5"
       style="stroke-width:0.60608;stroke-dasharray:none" />
    <path
       d="m 67.872807,135.41667 c 2.703945,0.94087 6.269639,2.30585 7.236842,5.48245 -0.03127,0.95499 0.619553,3.23592 -0.767544,1.64474 -1.900313,-2.70278 -4.936738,-4.41193 -6.907894,-6.9079 -0.154874,-0.2935 0.309808,-0.49773 0.438596,-0.21929 z"
       id="path6"
       style="stroke-width:0.60608;stroke-dasharray:none" />
    <path
       d="m 91.557018,112.39035 c -0.888392,2.09312 -0.288613,4.74753 0.548245,6.6886 1.561054,-1.76806 0.917158,2.17337 1.206141,3.17982 -0.155968,2.11414 -0.592112,4.46415 -2.083334,5.8114 0.181253,-2.15593 0.588832,-4.85336 0.219298,-7.23684 -1.17926,1.2363 -1.473789,-0.0299 -1.644736,-1.20614 -0.524771,-2.59525 0.0914,-5.2465 1.425438,-7.34649 h 0.219298 z"
       id="path7"
       style="stroke-width:0.60608;stroke-dasharray:none" />
    <path
       d="m 70.065789,106.25 c -2.688564,4.29661 -5.085725,8.71391 -6.359649,13.59649 -0.340608,0.97521 -0.05326,3.08966 -0.877193,3.28948 -0.870888,-3.2573 -1.21301,-7.39994 1.096492,-10.08772 1.444002,-2.57269 3.094164,-5.70513 6.030701,-6.9079 z"
       id="path8"
       style="stroke-width:0.60608;stroke-dasharray:none" />
    <path
       d="m 89.144737,93.530702 c -0.605299,2.473803 0.99272,4.222927 2.850877,5.482456 0.254904,3.087962 -3.128643,4.668842 -3.070175,7.675442 -0.679317,1.72189 -2.840656,1.66956 -1.31579,-0.2193 -0.210427,-2.50983 2.2217,-3.92509 2.192983,-6.35965 -2.639344,-0.945144 -2.884035,-4.883198 -0.986843,-6.688597 h 0.219299 z"
       id="path9"
       style="stroke-width:0.60608;stroke-dasharray:none" />
    <path
       d="m 107.12719,77.083333 c -2.61562,4.02332 -4.08964,8.888183 -3.28947,14.035088 0.90849,3.830032 3.26804,8.173885 7.34649,9.539469 3.13023,1.79325 6.47921,-0.3927 9.42983,-1.096486 1.36949,-0.64702 3.30827,-1.374957 4.05701,0.548246 -3.56062,-0.337107 -5.84407,2.40912 -8.99123,3.07017 -4.90931,1.26818 -9.98844,-1.43638 -12.39035,-5.811399 -2.55977,-4.160551 -2.94412,-10.528597 -0.32894,-14.802632 1.02373,-1.957021 2.27423,-4.163086 4.05701,-5.592105 z"
       id="path10"
       style="stroke-width:0.60608;stroke-dasharray:none" />
    <path
       d="m 64.144737,61.513158 c 1.647692,1.354073 3.146557,3.067449 5.263158,3.289474 3.135256,0.545753 3.596279,4.062258 4.824561,6.359649 -0.13188,5.950595 0.767317,11.474104 0.877193,17.324561 0.0082,3.303652 0.120001,7.002188 -1.20614,9.539474 -0.518301,-3.071113 -0.380241,-6.4141 -0.767544,-9.539474 C 72.390832,84.193896 72.566679,79.519469 72.368421,75 c 0.0819,-1.671074 -0.446066,-3.220314 -2.083333,-3.837719 -0.856132,-1.912982 -0.896084,-4.164037 -1.864035,-6.030702 -2.189211,-0.102683 -3.956574,-1.34589 -5.04386,-3.289474 -0.539369,-0.517353 0.588964,-0.562551 0.767544,-0.328947 z"
       id="path11"
       style="stroke-width:0.60608;stroke-dasharray:none" />
    <path
       d="m 88.048246,61.513158 c -0.201859,2.004689 0.883988,3.443731 2.631579,4.166667 2.412376,1.206043 5.760601,2.913187 8.223684,0.767543 1.684711,-0.05799 4.877891,-0.33954 5.592101,1.644737 -1.99947,2.86829 -5.802279,3.394503 -7.675435,6.578948 -2.270165,2.541203 -3.742857,5.41273 -3.508771,8.991228 -0.927512,3.504724 -4.821949,4.870216 -7.346492,6.907894 -0.819423,-1.811137 -0.884952,-4.48429 -1.535087,-6.578947 -0.826068,-4.849411 -1.97775,-9.56395 -1.864036,-14.802632 -1.267216,-1.528602 -2.848269,-2.927209 -2.960526,-4.93421 0.509186,-1.385753 -1.970196,-1.827926 -1.096491,-2.631579 3.122872,-0.123848 6.378797,-0.425295 9.539474,-0.109649 z"
       id="path12"
       style="stroke-width:0.60608;stroke-dasharray:none" />
    <path
       d="m 102.30263,56.25 c 0.27894,2.574146 3.085,4.806691 5.81141,4.276316 4.02278,-0.230071 7.46523,0.940888 10.96491,1.973684 1.38287,0.433325 3.40129,0.156193 4.49561,0.767544 -2.7115,3.345303 -6.15546,6.09453 -9.75877,7.785088 0.65891,-1.668909 2.68178,-3.165341 3.72807,-4.824562 1.28212,-2.13459 -2.17763,-2.204007 -3.28947,-3.289474 -3.24551,-1.323748 -7.12522,-1.116402 -10.74562,-1.535087 -2.24045,-0.11903 -4.838318,-1.335986 -5.153507,-3.83772 1.434911,-0.700338 2.019307,2.331347 3.618417,2.302632 1.79652,0.655175 0.64879,-0.484057 0,-1.315789 -0.45997,-0.477527 -0.59102,-2.606687 0.32895,-2.302632 z"
       id="path13"
       style="stroke-width:0.60608;stroke-dasharray:none" />
    <path
       d="m 146.60088,45.504386 c -1.02294,2.562338 -2.06523,5.116658 -2.30263,8.004386 -0.15496,2.075751 -0.96213,0.868262 -1.0965,-0.438597 -0.14963,-2.122935 -1.08938,-0.602838 -1.42543,0.548246 -0.1467,2.508392 -0.65062,-0.0026 -1.0965,0.877193 -1.31495,2.417301 -2.0404,5.570044 -0.65789,8.114035 0.10714,1.596517 -0.23246,3.945737 -1.53509,4.385965 0.70905,-2.692177 -1.15024,-4.117728 -3.07017,-5.263158 -1.06191,-0.744863 -0.98098,1.741827 -2.63158,0.657895 0.83773,-1.582634 0.89933,-3.879828 0,-5.482456 -1.15832,-0.297273 -1.88673,-1.66536 -0.2193,-1.754386 4.13198,-1.43715 8.0085,-3.491043 11.18421,-7.236842 0.94623,-0.683611 1.80916,-2.352642 2.85088,-2.412281 z"
       id="path14"
       style="stroke-width:0.60608;stroke-dasharray:none" />
    <path
       d="m 68.75,34.758772 c -0.293644,2.43484 -1.05414,4.913012 -0.986842,7.346491 0.475455,2.807303 3.7995,2.295185 5.701754,1.535088 4.223928,-1.336292 7.936165,-3.907911 12.061404,-5.482456 -0.499211,1.442859 -2.656931,2.430378 -3.83772,3.618421 -2.862763,2.435274 -5.458636,5.514878 -8.66228,7.127193 -3.084466,-0.908577 -5.481256,1.664032 -8.223684,2.302631 -3.964359,1.691958 -8.213263,2.696962 -11.951755,4.934211 -2.09687,-0.04326 -3.950843,-2.810082 -3.070175,-4.605263 4.275645,-2.33453 9.193287,-3.119143 13.048245,-6.469299 2.2228,-3.323617 3.805432,-6.9124 5.592106,-10.416666 h 0.219298 z"
       id="path15"
       style="stroke-width:0.60608;stroke-dasharray:none" />
    <path
       d="m 157.78509,37.390351 c -0.76275,0.965317 -1.42532,2.292975 -1.86404,3.179824 -0.67327,-1.426727 0.53976,-3.152415 1.86404,-3.179824 z"
       id="path16"
       style="stroke-width:0.60608;stroke-dasharray:none" />
    <path
       d="m 45.942982,13.486842 c 1.645594,1.927911 2.452543,4.203201 4.605264,5.921053 0.949424,1.934311 4.692162,3.24922 3.070175,5.701754 -0.519388,3.171344 0.0015,6.273944 0.657895,9.210526 -0.197264,1.00713 0.978945,3.123954 0,3.289474 -2.145163,-4.49876 -3.408594,-9.362747 -4.605263,-14.254386 -0.93075,-3.479241 -3.08788,-6.450499 -4.166667,-9.868421 0.0731,-0.176477 0.365497,-0.176477 0.438596,0 z"
       id="path17"
       style="stroke-width:0.60608;stroke-dasharray:none" />
    <path
       d="m 135.19737,14.583333 c -2.09679,2.460239 -5.10579,4.057911 -7.34649,6.688597 -3.23659,2.582784 -6.26275,5.673581 -9.64913,7.894737 -4.50198,1.814722 -9.76186,1.79969 -14.03508,4.166666 -0.93513,0.52622 -3.31922,1.033282 -1.42544,-0.328947 2.65316,-1.58816 5.88306,-3.531079 6.25,-6.907895 0.0301,-1.901231 1.54283,-1.473649 2.85088,-1.096491 5.16842,0.31111 8.44116,-3.954349 12.93859,-5.263158 3.45755,-1.701567 6.96759,-3.276428 10.30702,-5.263158 z"
       id="path18"
       style="stroke-width:0.60608;stroke-dasharray:none" />
    <path
       d="m 91.995614,10.635965 c -1.804415,3.081253 -4.696125,5.712134 -7.346491,8.442982 -2.772889,3.324206 -6.797163,3.627305 -10.087719,5.701755 -0.957485,0.217349 -2.302724,1.855207 -2.960527,1.20614 2.460287,-3.375419 6.566542,-5.681544 8.552632,-9.210526 0.574187,-1.550685 0.965546,-3.161969 3.070175,-2.850877 2.771003,-0.312428 5.495523,-0.737072 7.56579,-2.741228 0.494501,0.147726 0.724371,-1.032553 1.20614,-0.548246 z"
       id="path19"
       style="stroke-width:0.60608;stroke-dasharray:none" />
  </g>
</svg>
